<svg xmlns = "http://www.w3.org/2000/svg" width = "1000" height = "1000">
<g>
<polygon points = "245.530, 287.797 193.658, 305.936 167.056, 293.736 166.024, 264.812 237.125, 233.174 "
fill = "none" stroke = "black"/>
</g>
<g>
<polygon points = "666.563, 859.461 659.219, 867.573 613.594, 852.031 595.018, 839.895 584.710, 805.368 665.561, 853.893 "
fill = "none" stroke = "black"/>
</g>
<g>
<polygon points = "36.742, 851.826 58.518, 901.429 22.642, 969.068 15.775, 967.561 0.000, 961.456 0.000, 848.788 "
fill = "none" stroke = "black"/>
</g>
<g>
<polygon points = "549.341, 906.480 543.934, 885.326 567.586, 862.173 572.790, 860.654 584.549, 862.453 634.010, 894.539 "
fill = "none" stroke = "black"/>
</g>
<g>
<polygon points = "729.894, 710.686 755.146, 708.354 814.485, 770.396 777.460, 844.324 750.504, 839.965 720.493, 714.920 "
fill = "none" stroke = "black"/>
</g>
<g>
<polygon points = "395.228, 681.179 377.834, 646.542 412.622, 586.873 488.378, 604.214 477.777, 649.791 437.222, 691.497 "
fill = "none" stroke = "black"/>
</g>
<g>
<polygon points = "165.312, 117.286 144.821, 162.425 126.742, 182.461 64.757, 165.614 50.285, 100.003 121.876, 91.446 "
fill = "none" stroke = "black"/>
</g>
<g>
<polygon points = "777.460, 844.324 826.290, 889.187 791.585, 924.788 751.319, 932.491 736.880, 848.620 750.504, 839.965 "
fill = "none" stroke = "black"/>
</g>
<g>
<polygon points = "930.414, 1000.000 910.503, 972.479 924.602, 959.665 987.109, 947.650 1000.000, 953.009 1000.000, 1000.000 "
fill = "none" stroke = "black"/>
</g>
<g>
<polygon points = "257.278, 444.372 305.752, 432.649 342.608, 443.329 347.367, 449.976 349.247, 468.548 329.404, 511.835 234.741, 470.137 "
fill = "none" stroke = "black"/>
</g>
<g>
<polygon points = "276.673, 124.239 355.901, 145.148 317.781, 244.755 291.842, 234.321 255.424, 208.726 269.044, 127.094 "
fill = "none" stroke = "black"/>
</g>
<g>
<polygon points = "274.614, 625.831 267.597, 658.845 221.625, 727.740 211.713, 736.843 143.209, 736.954 182.498, 624.202 262.397, 603.257 "
fill = "none" stroke = "black"/>
</g>
<g>
<polygon points = "349.760, 808.222 344.748, 812.095 314.485, 808.720 295.438, 746.375 304.134, 733.840 365.447, 762.287 "
fill = "none" stroke = "black"/>
</g>
<g>
<polygon points = "589.828, 454.578 611.582, 515.120 606.840, 521.670 565.404, 487.592 "
fill = "none" stroke = "black"/>
</g>
<g>
<polygon points = "126.141, 732.727 105.120, 726.302 86.573, 710.852 46.734, 639.062 44.034, 629.823 64.546, 633.863 117.312, 688.411 "
fill = "none" stroke = "black"/>
</g>
<g>
<polygon points = "372.351, 724.208 395.228, 681.179 437.222, 691.497 476.944, 736.848 454.984, 768.307 369.116, 755.227 "
fill = "none" stroke = "black"/>
</g>
<g>
<polygon points = "987.109, 947.650 974.566, 932.802 952.529, 855.142 1000.000, 834.918 1000.000, 953.009 "
fill = "none" stroke = "black"/>
</g>
<g>
<polygon points = "446.059, 863.126 466.632, 863.141 476.605, 870.114 495.012, 949.224 420.765, 901.306 "
fill = "none" stroke = "black"/>
</g>
<g>
<polygon points = "31.209, 187.339 86.832, 243.564 80.298, 253.628 26.389, 244.740 0.000, 216.576 0.000, 194.978 "
fill = "none" stroke = "black"/>
</g>
<g>
<polygon points = "598.441, 409.191 580.811, 402.011 512.142, 319.485 507.095, 294.801 566.531, 279.659 625.909, 346.678 "
fill = "none" stroke = "black"/>
</g>
<g>
<polygon points = "102.614, 978.225 94.974, 999.197 22.642, 969.068 58.518, 901.429 "
fill = "none" stroke = "black"/>
</g>
<g>
<polygon points = "84.347, 20.717 0.000, 32.519 0.000, 0.000 96.449, 0.000 "
fill = "none" stroke = "black"/>
</g>
<g>
<polygon points = "543.934, 885.326 549.341, 906.480 541.021, 934.311 495.905, 950.232 495.012, 949.224 476.605, 870.114 540.584, 881.871 "
fill = "none" stroke = "black"/>
</g>
<g>
<polygon points = "269.598, 908.015 218.252, 986.534 196.161, 957.587 216.218, 892.466 "
fill = "none" stroke = "black"/>
</g>
<g>
<polygon points = "435.038, 283.705 439.938, 283.769 500.653, 290.164 507.095, 294.801 512.142, 319.485 475.642, 403.813 442.358, 418.476 383.203, 343.117 385.866, 332.102 "
fill = "none" stroke = "black"/>
</g>
<g>
<polygon points = "446.059, 863.126 420.765, 901.306 400.851, 911.051 356.287, 909.680 344.748, 812.095 349.760, 808.222 426.580, 822.907 "
fill = "none" stroke = "black"/>
</g>
<g>
<polygon points = "83.553, 327.772 28.482, 380.163 0.000, 380.022 0.000, 288.381 18.256, 277.495 77.919, 303.998 "
fill = "none" stroke = "black"/>
</g>
<g>
<polygon points = "941.986, 652.187 863.221, 636.446 874.382, 601.763 905.917, 574.561 935.481, 596.612 "
fill = "none" stroke = "black"/>
</g>
<g>
<polygon points = "274.614, 625.831 377.834, 646.542 395.228, 681.179 372.351, 724.208 307.591, 710.797 267.597, 658.845 "
fill = "none" stroke = "black"/>
</g>
<g>
<polygon points = "123.456, 776.899 196.864, 864.739 196.980, 868.813 142.824, 893.265 59.554, 842.457 "
fill = "none" stroke = "black"/>
</g>
<g>
<polygon points = "500.653, 290.164 439.938, 283.769 460.647, 170.487 483.174, 173.347 512.945, 201.276 "
fill = "none" stroke = "black"/>
</g>
<g>
<polygon points = "839.423, 532.518 845.794, 528.379 861.356, 523.913 871.735, 525.010 900.391, 539.120 905.917, 574.561 874.382, 601.763 836.217, 562.286 833.762, 552.488 "
fill = "none" stroke = "black"/>
</g>
<g>
<polygon points = "508.039, 545.717 510.042, 586.174 491.696, 602.591 488.378, 604.214 412.622, 586.873 407.870, 566.791 422.047, 530.578 468.015, 515.885 471.126, 515.449 498.057, 532.455 "
fill = "none" stroke = "black"/>
</g>
<g>
<polygon points = "837.075, 25.949 754.904, 61.782 737.178, 53.216 742.759, 0.000 846.558, 0.000 "
fill = "none" stroke = "black"/>
</g>
<g>
<polygon points = "616.558, 568.003 647.653, 550.194 709.361, 555.341 724.596, 568.325 720.401, 577.947 655.962, 612.015 "
fill = "none" stroke = "black"/>
</g>
<g>
<polygon points = "196.980, 868.813 196.864, 864.739 247.412, 798.983 295.013, 812.625 286.249, 836.143 212.488, 886.835 "
fill = "none" stroke = "black"/>
</g>
<g>
<polygon points = "580.811, 402.011 514.504, 440.478 475.642, 403.813 512.142, 319.485 "
fill = "none" stroke = "black"/>
</g>
<g>
<polygon points = "933.807, 97.980 889.669, 99.575 841.849, 37.560 837.075, 25.949 846.558, 0.000 920.223, 0.000 "
fill = "none" stroke = "black"/>
</g>
<g>
<polygon points = "954.060, 502.626 903.365, 537.583 900.391, 539.120 871.735, 525.010 924.959, 422.288 1000.000, 430.310 1000.000, 441.372 "
fill = "none" stroke = "black"/>
</g>
<g>
<polygon points = "562.671, 488.821 551.447, 524.155 508.039, 545.717 498.057, 532.455 510.207, 511.835 532.496, 478.265 "
fill = "none" stroke = "black"/>
</g>
<g>
<polygon points = "613.594, 852.031 584.549, 862.453 572.790, 860.654 595.018, 839.895 "
fill = "none" stroke = "black"/>
</g>
<g>
<polygon points = "435.038, 283.705 385.866, 332.102 314.350, 298.633 318.859, 246.208 408.135, 248.079 "
fill = "none" stroke = "black"/>
</g>
<g>
<polygon points = "564.683, 737.623 476.944, 736.848 437.222, 691.497 477.777, 649.791 579.610, 723.031 "
fill = "none" stroke = "black"/>
</g>
<g>
<polygon points = "795.906, 121.413 808.044, 120.500 846.366, 125.157 855.350, 164.179 854.170, 180.107 794.245, 207.821 752.310, 201.988 "
fill = "none" stroke = "black"/>
</g>
<g>
<polygon points = "754.776, 443.053 691.110, 488.375 661.924, 485.922 645.522, 475.139 615.572, 425.351 643.666, 415.292 689.166, 419.038 755.721, 439.495 "
fill = "none" stroke = "black"/>
</g>
<g>
<polygon points = "195.512, 105.477 165.312, 117.286 121.876, 91.446 113.410, 59.590 140.074, 0.000 196.113, 0.000 "
fill = "none" stroke = "black"/>
</g>
<g>
<polygon points = "510.042, 586.174 539.923, 592.414 583.751, 665.879 591.601, 716.660 582.992, 720.753 491.696, 602.591 "
fill = "none" stroke = "black"/>
</g>
<g>
<polygon points = "702.395, 990.508 703.575, 1000.000 578.938, 1000.000 579.318, 974.951 650.847, 942.356 "
fill = "none" stroke = "black"/>
</g>
<g>
<polygon points = "861.356, 523.913 845.794, 528.379 831.568, 493.853 826.148, 467.217 859.485, 480.184 "
fill = "none" stroke = "black"/>
</g>
<g>
<polygon points = "451.913, 788.853 426.580, 822.907 349.760, 808.222 365.447, 762.287 369.116, 755.227 454.984, 768.307 "
fill = "none" stroke = "black"/>
</g>
<g>
<polygon points = "947.821, 759.425 943.264, 766.963 936.258, 773.278 881.529, 775.275 882.453, 743.098 958.241, 697.696 "
fill = "none" stroke = "black"/>
</g>
<g>
<polygon points = "596.482, 565.154 610.659, 565.072 615.198, 567.825 583.751, 665.879 539.923, 592.414 "
fill = "none" stroke = "black"/>
</g>
<g>
<polygon points = "97.983, 449.969 167.434, 506.765 118.818, 564.801 10.272, 556.590 88.640, 448.685 "
fill = "none" stroke = "black"/>
</g>
<g>
<polygon points = "743.842, 565.992 815.329, 523.500 823.587, 527.261 756.146, 572.050 "
fill = "none" stroke = "black"/>
</g>
<g>
<polygon points = "117.312, 688.411 64.546, 633.863 120.635, 623.464 "
fill = "none" stroke = "black"/>
</g>
<g>
<polygon points = "752.310, 201.988 741.457, 208.343 719.423, 213.460 671.973, 170.993 672.018, 169.482 726.422, 57.343 737.178, 53.216 754.904, 61.782 795.906, 121.413 "
fill = "none" stroke = "black"/>
</g>
<g>
<polygon points = "868.230, 787.209 881.529, 775.275 936.258, 773.278 944.644, 792.973 933.615, 850.688 872.413, 866.194 "
fill = "none" stroke = "black"/>
</g>
<g>
<polygon points = "355.334, 910.614 351.949, 1000.000 272.821, 1000.000 287.634, 916.808 "
fill = "none" stroke = "black"/>
</g>
<g>
<polygon points = "342.608, 443.329 377.855, 349.406 383.203, 343.117 442.358, 418.476 434.235, 436.554 347.367, 449.976 "
fill = "none" stroke = "black"/>
</g>
<g>
<polygon points = "267.597, 658.845 307.591, 710.797 304.134, 733.840 295.438, 746.375 221.625, 727.740 "
fill = "none" stroke = "black"/>
</g>
<g>
<polygon points = "598.441, 409.191 610.752, 423.616 589.828, 454.578 565.404, 487.592 562.671, 488.821 532.496, 478.265 512.882, 456.594 514.504, 440.478 580.811, 402.011 "
fill = "none" stroke = "black"/>
</g>
<g>
<polygon points = "265.217, 301.927 275.802, 312.904 268.723, 346.292 258.091, 352.804 207.018, 340.576 193.658, 305.936 245.530, 287.797 "
fill = "none" stroke = "black"/>
</g>
<g>
<polygon points = "902.164, 245.699 871.964, 196.362 949.237, 169.136 1000.000, 158.725 1000.000, 216.746 "
fill = "none" stroke = "black"/>
</g>
<g>
<polygon points = "134.284, 739.852 123.456, 776.899 59.554, 842.457 36.742, 851.826 0.000, 848.788 0.000, 742.797 105.120, 726.302 126.141, 732.727 "
fill = "none" stroke = "black"/>
</g>
<g>
<polygon points = "666.563, 859.461 665.561, 853.893 667.504, 720.806 720.493, 714.920 750.504, 839.965 736.880, 848.620 677.950, 861.002 "
fill = "none" stroke = "black"/>
</g>
<g>
<polygon points = "314.485, 808.720 295.013, 812.625 247.412, 798.983 211.713, 736.843 221.625, 727.740 295.438, 746.375 "
fill = "none" stroke = "black"/>
</g>
<g>
<polygon points = "924.959, 422.288 882.212, 407.576 911.329, 326.115 1000.000, 401.540 1000.000, 430.310 "
fill = "none" stroke = "black"/>
</g>
<g>
<polygon points = "564.683, 737.623 560.966, 762.133 523.632, 815.940 500.822, 821.804 451.913, 788.853 454.984, 768.307 476.944, 736.848 "
fill = "none" stroke = "black"/>
</g>
<g>
<polygon points = "274.219, 908.546 269.598, 908.015 216.218, 892.466 212.488, 886.835 286.249, 836.143 "
fill = "none" stroke = "black"/>
</g>
<g>
<polygon points = "579.610, 723.031 582.992, 720.753 591.601, 716.660 657.722, 717.144 667.504, 720.806 665.561, 853.893 584.710, 805.368 572.154, 788.223 560.966, 762.133 564.683, 737.623 "
fill = "none" stroke = "black"/>
</g>
<g>
<polygon points = "202.962, 503.609 262.555, 592.018 262.397, 603.257 182.498, 624.202 133.149, 604.421 118.818, 564.801 167.434, 506.765 "
fill = "none" stroke = "black"/>
</g>
<g>
<polygon points = "121.124, 218.315 86.832, 243.564 31.209, 187.339 31.420, 187.174 64.757, 165.614 126.742, 182.461 "
fill = "none" stroke = "black"/>
</g>
<g>
<polygon points = "347.367, 449.976 434.235, 436.554 434.485, 437.268 432.354, 455.462 412.509, 512.059 349.247, 468.548 "
fill = "none" stroke = "black"/>
</g>
<g>
<polygon points = "890.753, 985.925 910.503, 972.479 930.414, 1000.000 886.969, 1000.000 "
fill = "none" stroke = "black"/>
</g>
<g>
<polygon points = "257.278, 444.372 238.982, 392.692 258.091, 352.804 268.723, 346.292 293.985, 367.070 305.752, 432.649 "
fill = "none" stroke = "black"/>
</g>
<g>
<polygon points = "719.423, 213.460 697.854, 285.171 576.297, 273.582 614.758, 184.906 619.743, 180.957 671.973, 170.993 "
fill = "none" stroke = "black"/>
</g>
<g>
<polygon points = "764.228, 358.354 705.801, 314.183 702.301, 308.747 697.854, 285.171 719.423, 213.460 741.457, 208.343 820.496, 297.613 "
fill = "none" stroke = "black"/>
</g>
<g>
<polygon points = "610.659, 565.072 596.482, 565.154 551.447, 524.155 562.671, 488.821 565.404, 487.592 606.840, 521.670 "
fill = "none" stroke = "black"/>
</g>
<g>
<polygon points = "285.813, 93.477 276.673, 124.239 269.044, 127.094 195.512, 105.477 196.113, 0.000 269.580, 0.000 "
fill = "none" stroke = "black"/>
</g>
<g>
<polygon points = "933.807, 97.980 920.223, 0.000 1000.000, 0.000 1000.000, 142.736 "
fill = "none" stroke = "black"/>
</g>
<g>
<polygon points = "866.076, 402.391 881.876, 407.550 859.485, 480.184 826.148, 467.217 792.375, 408.291 "
fill = "none" stroke = "black"/>
</g>
<g>
<polygon points = "702.395, 990.508 743.125, 937.025 751.319, 932.491 791.585, 924.788 813.851, 1000.000 703.575, 1000.000 "
fill = "none" stroke = "black"/>
</g>
<g>
<polygon points = "86.573, 710.852 41.406, 692.116 46.734, 639.062 "
fill = "none" stroke = "black"/>
</g>
<g>
<polygon points = "968.354, 574.589 963.919, 564.360 954.060, 502.626 1000.000, 441.372 1000.000, 577.476 "
fill = "none" stroke = "black"/>
</g>
<g>
<polygon points = "257.278, 444.372 234.741, 470.137 211.658, 488.299 173.169, 388.639 179.481, 385.559 238.982, 392.692 "
fill = "none" stroke = "black"/>
</g>
<g>
<polygon points = "133.149, 604.421 182.498, 624.202 143.209, 736.954 134.284, 739.852 126.141, 732.727 117.312, 688.411 120.635, 623.464 "
fill = "none" stroke = "black"/>
</g>
<g>
<polygon points = "792.375, 408.291 781.600, 406.923 764.228, 358.354 820.496, 297.613 858.623, 288.485 866.076, 402.391 "
fill = "none" stroke = "black"/>
</g>
<g>
<polygon points = "738.994, 564.205 767.824, 491.756 815.329, 523.500 743.842, 565.992 "
fill = "none" stroke = "black"/>
</g>
<g>
<polygon points = "77.919, 303.998 18.256, 277.495 26.389, 244.740 80.298, 253.628 "
fill = "none" stroke = "black"/>
</g>
<g>
<polygon points = "539.923, 592.414 510.042, 586.174 508.039, 545.717 551.447, 524.155 596.482, 565.154 "
fill = "none" stroke = "black"/>
</g>
<g>
<polygon points = "314.485, 808.720 344.748, 812.095 356.287, 909.680 355.334, 910.614 287.634, 916.808 274.219, 908.546 286.249, 836.143 295.013, 812.625 "
fill = "none" stroke = "black"/>
</g>
<g>
<polygon points = "15.775, 967.561 14.305, 1000.000 0.000, 1000.000 0.000, 961.456 "
fill = "none" stroke = "black"/>
</g>
<g>
<polygon points = "241.745, 222.094 255.424, 208.726 291.842, 234.321 265.217, 301.927 245.530, 287.797 237.125, 233.174 "
fill = "none" stroke = "black"/>
</g>
<g>
<polygon points = "724.596, 568.325 738.994, 564.205 743.842, 565.992 756.146, 572.050 775.425, 583.870 797.049, 625.880 809.042, 665.562 755.146, 708.354 729.894, 710.686 720.401, 577.947 "
fill = "none" stroke = "black"/>
</g>
<g>
<polygon points = "218.252, 986.534 225.371, 1000.000 94.997, 1000.000 94.974, 999.197 102.614, 978.225 129.486, 957.837 196.161, 957.587 "
fill = "none" stroke = "black"/>
</g>
<g>
<polygon points = "826.290, 889.187 854.916, 885.913 855.926, 888.791 861.668, 948.798 815.929, 1000.000 813.851, 1000.000 791.585, 924.788 "
fill = "none" stroke = "black"/>
</g>
<g>
<polygon points = "422.047, 530.578 407.870, 566.791 324.646, 538.485 329.404, 511.835 349.247, 468.548 412.509, 512.059 "
fill = "none" stroke = "black"/>
</g>
<g>
<polygon points = "657.722, 717.144 591.601, 716.660 583.751, 665.879 615.198, 567.825 616.558, 568.003 655.962, 612.015 "
fill = "none" stroke = "black"/>
</g>
<g>
<polygon points = "576.297, 273.582 697.854, 285.171 702.301, 308.747 625.909, 346.678 566.531, 279.659 "
fill = "none" stroke = "black"/>
</g>
<g>
<polygon points = "324.646, 538.485 262.555, 592.018 202.962, 503.609 211.658, 488.299 234.741, 470.137 329.404, 511.835 "
fill = "none" stroke = "black"/>
</g>
<g>
<polygon points = "987.109, 947.650 924.602, 959.665 855.926, 888.791 854.916, 885.913 869.354, 872.117 974.566, 932.802 "
fill = "none" stroke = "black"/>
</g>
<g>
<polygon points = "83.553, 327.772 122.371, 331.120 159.382, 385.870 97.983, 449.969 88.640, 448.685 28.482, 380.163 "
fill = "none" stroke = "black"/>
</g>
<g>
<polygon points = "412.622, 586.873 377.834, 646.542 274.614, 625.831 262.397, 603.257 262.555, 592.018 324.646, 538.485 407.870, 566.791 "
fill = "none" stroke = "black"/>
</g>
<g>
<polygon points = "584.710, 805.368 595.018, 839.895 572.790, 860.654 567.586, 862.173 572.154, 788.223 "
fill = "none" stroke = "black"/>
</g>
<g>
<polygon points = "890.753, 985.925 886.969, 1000.000 815.929, 1000.000 861.668, 948.798 "
fill = "none" stroke = "black"/>
</g>
<g>
<polygon points = "381.060, 145.130 408.135, 248.079 318.859, 246.208 317.781, 244.755 355.901, 145.148 "
fill = "none" stroke = "black"/>
</g>
<g>
<polygon points = "446.059, 863.126 426.580, 822.907 451.913, 788.853 500.822, 821.804 466.632, 863.141 "
fill = "none" stroke = "black"/>
</g>
<g>
<polygon points = "512.882, 456.594 532.496, 478.265 510.207, 511.835 500.389, 464.642 "
fill = "none" stroke = "black"/>
</g>
<g>
<polygon points = "419.452, 89.644 494.737, 121.933 483.174, 173.347 460.647, 170.487 389.328, 138.598 "
fill = "none" stroke = "black"/>
</g>
<g>
<polygon points = "754.776, 443.053 761.528, 465.579 767.824, 491.756 738.994, 564.205 724.596, 568.325 709.361, 555.341 691.110, 488.375 "
fill = "none" stroke = "black"/>
</g>
<g>
<polygon points = "872.413, 866.194 869.354, 872.117 854.916, 885.913 826.290, 889.187 777.460, 844.324 814.485, 770.396 868.230, 787.209 "
fill = "none" stroke = "black"/>
</g>
<g>
<polygon points = "553.436, 96.274 619.743, 180.957 614.758, 184.906 534.949, 182.697 552.255, 97.494 "
fill = "none" stroke = "black"/>
</g>
<g>
<polygon points = "86.573, 710.852 105.120, 726.302 0.000, 742.797 0.000, 696.259 41.406, 692.116 "
fill = "none" stroke = "black"/>
</g>
<g>
<polygon points = "369.116, 755.227 365.447, 762.287 304.134, 733.840 307.591, 710.797 372.351, 724.208 "
fill = "none" stroke = "black"/>
</g>
<g>
<polygon points = "935.481, 596.612 905.917, 574.561 900.391, 539.120 903.365, 537.583 963.919, 564.360 968.354, 574.589 "
fill = "none" stroke = "black"/>
</g>
<g>
<polygon points = "102.614, 978.225 58.518, 901.429 36.742, 851.826 59.554, 842.457 142.824, 893.265 129.486, 957.837 "
fill = "none" stroke = "black"/>
</g>
<g>
<polygon points = "552.255, 97.494 534.949, 182.697 529.809, 185.903 500.801, 120.732 "
fill = "none" stroke = "black"/>
</g>
<g>
<polygon points = "159.382, 385.870 122.371, 331.120 167.056, 293.736 193.658, 305.936 207.018, 340.576 179.481, 385.559 173.169, 388.639 "
fill = "none" stroke = "black"/>
</g>
<g>
<polygon points = "419.452, 89.644 389.328, 138.598 381.060, 145.130 355.901, 145.148 276.673, 124.239 285.813, 93.477 368.850, 0.000 432.006, 0.000 "
fill = "none" stroke = "black"/>
</g>
<g>
<polygon points = "50.285, 100.003 64.757, 165.614 31.420, 187.174 27.511, 89.364 "
fill = "none" stroke = "black"/>
</g>
<g>
<polygon points = "910.257, 314.060 860.236, 287.074 863.810, 275.025 902.164, 245.699 1000.000, 216.746 1000.000, 281.239 "
fill = "none" stroke = "black"/>
</g>
<g>
<polygon points = "26.389, 244.740 18.256, 277.495 0.000, 288.381 0.000, 216.576 "
fill = "none" stroke = "black"/>
</g>
<g>
<polygon points = "512.945, 201.276 483.174, 173.347 494.737, 121.933 500.801, 120.732 529.809, 185.903 "
fill = "none" stroke = "black"/>
</g>
<g>
<polygon points = "495.905, 950.232 541.021, 934.311 579.318, 974.951 578.938, 1000.000 469.991, 1000.000 "
fill = "none" stroke = "black"/>
</g>
<g>
<polygon points = "650.847, 942.356 579.318, 974.951 541.021, 934.311 549.341, 906.480 634.010, 894.539 645.508, 894.314 "
fill = "none" stroke = "black"/>
</g>
<g>
<polygon points = "196.980, 868.813 212.488, 886.835 216.218, 892.466 196.161, 957.587 129.486, 957.837 142.824, 893.265 "
fill = "none" stroke = "black"/>
</g>
<g>
<polygon points = "795.906, 121.413 754.904, 61.782 837.075, 25.949 841.849, 37.560 808.044, 120.500 "
fill = "none" stroke = "black"/>
</g>
<g>
<polygon points = "726.422, 57.343 672.018, 169.482 631.060, 91.128 690.556, 55.400 702.867, 50.860 "
fill = "none" stroke = "black"/>
</g>
<g>
<polygon points = "44.034, 629.823 46.734, 639.062 41.406, 692.116 0.000, 696.259 0.000, 593.965 "
fill = "none" stroke = "black"/>
</g>
<g>
<polygon points = "471.126, 515.449 481.958, 475.517 500.389, 464.642 510.207, 511.835 498.057, 532.455 "
fill = "none" stroke = "black"/>
</g>
<g>
<polygon points = "754.776, 443.053 755.721, 439.495 781.600, 406.923 792.375, 408.291 826.148, 467.217 831.568, 493.853 761.528, 465.579 "
fill = "none" stroke = "black"/>
</g>
<g>
<polygon points = "28.482, 380.163 88.640, 448.685 10.272, 556.590 0.000, 560.914 0.000, 380.022 "
fill = "none" stroke = "black"/>
</g>
<g>
<polygon points = "355.334, 910.614 356.287, 909.680 400.851, 911.051 438.770, 1000.000 351.949, 1000.000 "
fill = "none" stroke = "black"/>
</g>
<g>
<polygon points = "943.264, 766.963 947.821, 759.425 1000.000, 755.277 1000.000, 790.109 "
fill = "none" stroke = "black"/>
</g>
<g>
<polygon points = "944.644, 792.973 936.258, 773.278 943.264, 766.963 1000.000, 790.109 1000.000, 831.740 "
fill = "none" stroke = "black"/>
</g>
<g>
<polygon points = "615.572, 425.351 645.522, 475.139 611.582, 515.120 589.828, 454.578 610.752, 423.616 "
fill = "none" stroke = "black"/>
</g>
<g>
<polygon points = "471.126, 515.449 468.015, 515.885 432.354, 455.462 434.485, 437.268 481.958, 475.517 "
fill = "none" stroke = "black"/>
</g>
<g>
<polygon points = "317.781, 244.755 318.859, 246.208 314.350, 298.633 275.802, 312.904 265.217, 301.927 291.842, 234.321 "
fill = "none" stroke = "black"/>
</g>
<g>
<polygon points = "113.410, 59.590 105.476, 51.924 84.347, 20.717 96.449, 0.000 140.074, 0.000 "
fill = "none" stroke = "black"/>
</g>
<g>
<polygon points = "126.742, 182.461 144.821, 162.425 193.463, 207.252 162.688, 259.788 121.124, 218.315 "
fill = "none" stroke = "black"/>
</g>
<g>
<polygon points = "737.178, 53.216 726.422, 57.343 702.867, 50.860 645.689, 0.000 742.759, 0.000 "
fill = "none" stroke = "black"/>
</g>
<g>
<polygon points = "911.329, 326.115 910.257, 314.060 1000.000, 281.239 1000.000, 401.540 "
fill = "none" stroke = "black"/>
</g>
<g>
<polygon points = "121.876, 91.446 50.285, 100.003 27.511, 89.364 0.000, 74.429 0.000, 45.734 105.476, 51.924 113.410, 59.590 "
fill = "none" stroke = "black"/>
</g>
<g>
<polygon points = "954.060, 502.626 963.919, 564.360 903.365, 537.583 "
fill = "none" stroke = "black"/>
</g>
<g>
<polygon points = "134.284, 739.852 143.209, 736.954 211.713, 736.843 247.412, 798.983 196.864, 864.739 123.456, 776.899 "
fill = "none" stroke = "black"/>
</g>
<g>
<polygon points = "400.851, 911.051 420.765, 901.306 495.012, 949.224 495.905, 950.232 469.991, 1000.000 438.770, 1000.000 "
fill = "none" stroke = "black"/>
</g>
<g>
<polygon points = "947.821, 759.425 958.241, 697.696 966.889, 674.304 1000.000, 671.411 1000.000, 755.277 "
fill = "none" stroke = "black"/>
</g>
<g>
<polygon points = "27.511, 89.364 31.420, 187.174 31.209, 187.339 0.000, 194.978 0.000, 74.429 "
fill = "none" stroke = "black"/>
</g>
<g>
<polygon points = "839.423, 532.518 833.762, 552.488 775.425, 583.870 756.146, 572.050 823.587, 527.261 "
fill = "none" stroke = "black"/>
</g>
<g>
<polygon points = "434.235, 436.554 442.358, 418.476 475.642, 403.813 514.504, 440.478 512.882, 456.594 500.389, 464.642 481.958, 475.517 434.485, 437.268 "
fill = "none" stroke = "black"/>
</g>
<g>
<polygon points = "910.503, 972.479 890.753, 985.925 861.668, 948.798 855.926, 888.791 924.602, 959.665 "
fill = "none" stroke = "black"/>
</g>
<g>
<polygon points = "202.962, 503.609 167.434, 506.765 97.983, 449.969 159.382, 385.870 173.169, 388.639 211.658, 488.299 "
fill = "none" stroke = "black"/>
</g>
<g>
<polygon points = "285.813, 93.477 269.580, 0.000 368.850, 0.000 "
fill = "none" stroke = "black"/>
</g>
<g>
<polygon points = "872.413, 866.194 933.615, 850.688 952.529, 855.142 974.566, 932.802 869.354, 872.117 "
fill = "none" stroke = "black"/>
</g>
<g>
<polygon points = "794.245, 207.821 854.170, 180.107 866.192, 194.666 844.265, 240.379 "
fill = "none" stroke = "black"/>
</g>
<g>
<polygon points = "661.924, 485.922 647.653, 550.194 616.558, 568.003 615.198, 567.825 610.659, 565.072 606.840, 521.670 611.582, 515.120 645.522, 475.139 "
fill = "none" stroke = "black"/>
</g>
<g>
<polygon points = "650.847, 942.356 645.508, 894.314 659.219, 867.573 666.563, 859.461 677.950, 861.002 743.125, 937.025 702.395, 990.508 "
fill = "none" stroke = "black"/>
</g>
<g>
<polygon points = "22.642, 969.068 94.974, 999.197 94.997, 1000.000 14.305, 1000.000 15.775, 967.561 "
fill = "none" stroke = "black"/>
</g>
<g>
<polygon points = "702.867, 50.860 690.556, 55.400 570.780, 48.054 566.810, 45.748 554.072, 0.000 645.689, 0.000 "
fill = "none" stroke = "black"/>
</g>
<g>
<polygon points = "835.719, 652.217 821.398, 663.810 809.042, 665.562 797.049, 625.880 835.585, 564.717 "
fill = "none" stroke = "black"/>
</g>
<g>
<polygon points = "966.889, 674.304 958.241, 697.696 882.453, 743.098 874.588, 706.790 955.620, 668.128 "
fill = "none" stroke = "black"/>
</g>
<g>
<polygon points = "871.964, 196.362 866.192, 194.666 854.170, 180.107 855.350, 164.179 949.237, 169.136 "
fill = "none" stroke = "black"/>
</g>
<g>
<polygon points = "342.608, 443.329 305.752, 432.649 293.985, 367.070 377.855, 349.406 "
fill = "none" stroke = "black"/>
</g>
<g>
<polygon points = "237.125, 233.174 166.024, 264.812 162.688, 259.788 193.463, 207.252 241.745, 222.094 "
fill = "none" stroke = "black"/>
</g>
<g>
<polygon points = "435.038, 283.705 408.135, 248.079 381.060, 145.130 389.328, 138.598 460.647, 170.487 439.938, 283.769 "
fill = "none" stroke = "black"/>
</g>
<g>
<polygon points = "736.880, 848.620 751.319, 932.491 743.125, 937.025 677.950, 861.002 "
fill = "none" stroke = "black"/>
</g>
<g>
<polygon points = "195.512, 105.477 269.044, 127.094 255.424, 208.726 241.745, 222.094 193.463, 207.252 144.821, 162.425 165.312, 117.286 "
fill = "none" stroke = "black"/>
</g>
<g>
<polygon points = "821.398, 663.810 835.719, 652.217 863.221, 636.446 941.986, 652.187 955.620, 668.128 874.588, 706.790 "
fill = "none" stroke = "black"/>
</g>
<g>
<polygon points = "755.146, 708.354 809.042, 665.562 821.398, 663.810 874.588, 706.790 882.453, 743.098 881.529, 775.275 868.230, 787.209 814.485, 770.396 "
fill = "none" stroke = "black"/>
</g>
<g>
<polygon points = "615.572, 425.351 610.752, 423.616 598.441, 409.191 625.909, 346.678 702.301, 308.747 705.801, 314.183 695.580, 335.085 643.666, 415.292 "
fill = "none" stroke = "black"/>
</g>
<g>
<polygon points = "576.297, 273.582 566.531, 279.659 507.095, 294.801 500.653, 290.164 512.945, 201.276 529.809, 185.903 534.949, 182.697 614.758, 184.906 "
fill = "none" stroke = "black"/>
</g>
<g>
<polygon points = "275.802, 312.904 314.350, 298.633 385.866, 332.102 383.203, 343.117 377.855, 349.406 293.985, 367.070 268.723, 346.292 "
fill = "none" stroke = "black"/>
</g>
<g>
<polygon points = "691.110, 488.375 709.361, 555.341 647.653, 550.194 661.924, 485.922 "
fill = "none" stroke = "black"/>
</g>
<g>
<polygon points = "488.378, 604.214 491.696, 602.591 582.992, 720.753 579.610, 723.031 477.777, 649.791 "
fill = "none" stroke = "black"/>
</g>
<g>
<polygon points = "10.272, 556.590 118.818, 564.801 133.149, 604.421 120.635, 623.464 64.546, 633.863 44.034, 629.823 0.000, 593.965 0.000, 560.914 "
fill = "none" stroke = "black"/>
</g>
<g>
<polygon points = "952.529, 855.142 933.615, 850.688 944.644, 792.973 1000.000, 831.740 1000.000, 834.918 "
fill = "none" stroke = "black"/>
</g>
<g>
<polygon points = "949.237, 169.136 855.350, 164.179 846.366, 125.157 889.669, 99.575 933.807, 97.980 1000.000, 142.736 1000.000, 158.725 "
fill = "none" stroke = "black"/>
</g>
<g>
<polygon points = "764.228, 358.354 781.600, 406.923 755.721, 439.495 689.166, 419.038 695.580, 335.085 705.801, 314.183 "
fill = "none" stroke = "black"/>
</g>
<g>
<polygon points = "846.366, 125.157 808.044, 120.500 841.849, 37.560 889.669, 99.575 "
fill = "none" stroke = "black"/>
</g>
<g>
<polygon points = "84.347, 20.717 105.476, 51.924 0.000, 45.734 0.000, 32.519 "
fill = "none" stroke = "black"/>
</g>
<g>
<polygon points = "882.212, 407.576 924.959, 422.288 871.735, 525.010 861.356, 523.913 859.485, 480.184 881.876, 407.550 "
fill = "none" stroke = "black"/>
</g>
<g>
<polygon points = "863.810, 275.025 860.236, 287.074 858.623, 288.485 820.496, 297.613 741.457, 208.343 752.310, 201.988 794.245, 207.821 844.265, 240.379 "
fill = "none" stroke = "black"/>
</g>
<g>
<polygon points = "523.632, 815.940 540.584, 881.871 476.605, 870.114 466.632, 863.141 500.822, 821.804 "
fill = "none" stroke = "black"/>
</g>
<g>
<polygon points = "422.047, 530.578 412.509, 512.059 432.354, 455.462 468.015, 515.885 "
fill = "none" stroke = "black"/>
</g>
<g>
<polygon points = "566.810, 45.748 570.780, 48.054 631.060, 91.128 672.018, 169.482 671.973, 170.993 619.743, 180.957 553.436, 96.274 "
fill = "none" stroke = "black"/>
</g>
<g>
<polygon points = "839.423, 532.518 823.587, 527.261 815.329, 523.500 767.824, 491.756 761.528, 465.579 831.568, 493.853 845.794, 528.379 "
fill = "none" stroke = "black"/>
</g>
<g>
<polygon points = "860.236, 287.074 910.257, 314.060 911.329, 326.115 882.212, 407.576 881.876, 407.550 866.076, 402.391 858.623, 288.485 "
fill = "none" stroke = "black"/>
</g>
<g>
<polygon points = "566.810, 45.748 553.436, 96.274 552.255, 97.494 500.801, 120.732 494.737, 121.933 419.452, 89.644 432.006, 0.000 554.072, 0.000 "
fill = "none" stroke = "black"/>
</g>
<g>
<polygon points = "643.666, 415.292 695.580, 335.085 689.166, 419.038 "
fill = "none" stroke = "black"/>
</g>
<g>
<polygon points = "238.982, 392.692 179.481, 385.559 207.018, 340.576 258.091, 352.804 "
fill = "none" stroke = "black"/>
</g>
<g>
<polygon points = "729.894, 710.686 720.493, 714.920 667.504, 720.806 657.722, 717.144 655.962, 612.015 720.401, 577.947 "
fill = "none" stroke = "black"/>
</g>
<g>
<polygon points = "274.219, 908.546 287.634, 916.808 272.821, 1000.000 225.371, 1000.000 218.252, 986.534 269.598, 908.015 "
fill = "none" stroke = "black"/>
</g>
<g>
<polygon points = "631.060, 91.128 570.780, 48.054 690.556, 55.400 "
fill = "none" stroke = "black"/>
</g>
<g>
<polygon points = "863.221, 636.446 835.719, 652.217 835.585, 564.717 836.217, 562.286 874.382, 601.763 "
fill = "none" stroke = "black"/>
</g>
<g>
<polygon points = "167.056, 293.736 122.371, 331.120 83.553, 327.772 77.919, 303.998 80.298, 253.628 86.832, 243.564 121.124, 218.315 162.688, 259.788 166.024, 264.812 "
fill = "none" stroke = "black"/>
</g>
<g>
<polygon points = "966.889, 674.304 955.620, 668.128 941.986, 652.187 935.481, 596.612 968.354, 574.589 1000.000, 577.476 1000.000, 671.411 "
fill = "none" stroke = "black"/>
</g>
<g>
<polygon points = "560.966, 762.133 572.154, 788.223 567.586, 862.173 543.934, 885.326 540.584, 881.871 523.632, 815.940 "
fill = "none" stroke = "black"/>
</g>
<g>
<polygon points = "775.425, 583.870 833.762, 552.488 836.217, 562.286 835.585, 564.717 797.049, 625.880 "
fill = "none" stroke = "black"/>
</g>
<g>
<polygon points = "863.810, 275.025 844.265, 240.379 866.192, 194.666 871.964, 196.362 902.164, 245.699 "
fill = "none" stroke = "black"/>
</g>
<g>
<polygon points = "645.508, 894.314 634.010, 894.539 584.549, 862.453 613.594, 852.031 659.219, 867.573 "
fill = "none" stroke = "black"/>
</g>
<g>
<circle cx = "211.143" cy = "270.794" r="5"/></g>
<g>
<circle cx = "607.215" cy = "832.732" r="5"/></g>
<g>
<circle cx = "31.495" cy = "941.336" r="5"/></g>
<g>
<circle cx = "590.410" cy = "873.209" r="5"/></g>
<g>
<circle cx = "772.126" cy = "799.501" r="5"/></g>
<g>
<circle cx = "446.026" cy = "637.240" r="5"/></g>
<g>
<circle cx = "85.750" cy = "136.354" r="5"/></g>
<g>
<circle cx = "758.270" cy = "885.182" r="5"/></g>
<g>
<circle cx = "929.843" cy = "992.574" r="5"/></g>
<g>
<circle cx = "294.143" cy = "484.009" r="5"/></g>
<g>
<circle cx = "310.862" cy = "207.673" r="5"/></g>
<g>
<circle cx = "195.927" cy = "667.260" r="5"/></g>
<g>
<circle cx = "315.248" cy = "747.619" r="5"/></g>
<g>
<circle cx = "602.175" cy = "494.173" r="5"/></g>
<g>
<circle cx = "76.660" cy = "663.249" r="5"/></g>
<g>
<circle cx = "419.880" cy = "743.656" r="5"/></g>
<g>
<circle cx = "978.573" cy = "875.368" r="5"/></g>
<g>
<circle cx = "469.865" cy = "903.394" r="5"/></g>
<g>
<circle cx = "44.948" cy = "224.331" r="5"/></g>
<g>
<circle cx = "594.157" cy = "341.884" r="5"/></g>
<g>
<circle cx = "40.636" cy = "946.184" r="5"/></g>
<g>
<circle cx = "70.757" cy = "0.242" r="5"/></g>
<g>
<circle cx = "497.344" cy = "897.000" r="5"/></g>
<g>
<circle cx = "237.578" cy = "942.499" r="5"/></g>
<g>
<circle cx = "445.503" cy = "372.280" r="5"/></g>
<g>
<circle cx = "399.696" cy = "856.908" r="5"/></g>
<g>
<circle cx = "25.558" cy = "296.718" r="5"/></g>
<g>
<circle cx = "902.715" cy = "612.690" r="5"/></g>
<g>
<circle cx = "329.648" cy = "695.682" r="5"/></g>
<g>
<circle cx = "139.654" cy = "853.693" r="5"/></g>
<g>
<circle cx = "463.821" cy = "198.359" r="5"/></g>
<g>
<circle cx = "867.731" cy = "572.134" r="5"/></g>
<g>
<circle cx = "464.610" cy = "556.053" r="5"/></g>
<g>
<circle cx = "792.917" cy = "10.861" r="5"/></g>
<g>
<circle cx = "669.139" cy = "578.141" r="5"/></g>
<g>
<circle cx = "253.350" cy = "850.445" r="5"/></g>
<g>
<circle cx = "519.260" cy = "404.205" r="5"/></g>
<g>
<circle cx = "880.556" cy = "42.889" r="5"/></g>
<g>
<circle cx = "906.645" cy = "493.105" r="5"/></g>
<g>
<circle cx = "529.990" cy = "506.845" r="5"/></g>
<g>
<circle cx = "593.359" cy = "853.942" r="5"/></g>
<g>
<circle cx = "346.639" cy = "271.835" r="5"/></g>
<g>
<circle cx = "491.211" cy = "681.179" r="5"/></g>
<g>
<circle cx = "825.741" cy = "170.339" r="5"/></g>
<g>
<circle cx = "680.031" cy = "448.144" r="5"/></g>
<g>
<circle cx = "144.101" cy = "38.269" r="5"/></g>
<g>
<circle cx = "534.953" cy = "634.659" r="5"/></g>
<g>
<circle cx = "627.698" cy = "992.244" r="5"/></g>
<g>
<circle cx = "841.192" cy = "479.650" r="5"/></g>
<g>
<circle cx = "414.132" cy = "781.388" r="5"/></g>
<g>
<circle cx = "920.185" cy = "731.520" r="5"/></g>
<g>
<circle cx = "579.457" cy = "608.107" r="5"/></g>
<g>
<circle cx = "94.251" cy = "514.063" r="5"/></g>
<g>
<circle cx = "790.084" cy = "544.680" r="5"/></g>
<g>
<circle cx = "93.514" cy = "646.945" r="5"/></g>
<g>
<circle cx = "738.629" cy = "123.207" r="5"/></g>
<g>
<circle cx = "923.271" cy = "816.096" r="5"/></g>
<g>
<circle cx = "310.301" cy = "961.761" r="5"/></g>
<g>
<circle cx = "396.738" cy = "410.560" r="5"/></g>
<g>
<circle cx = "287.336" cy = "728.255" r="5"/></g>
<g>
<circle cx = "548.353" cy = "454.355" r="5"/></g>
<g>
<circle cx = "229.232" cy = "322.523" r="5"/></g>
<g>
<circle cx = "894.751" cy = "205.917" r="5"/></g>
<g>
<circle cx = "46.273" cy = "762.672" r="5"/></g>
<g>
<circle cx = "712.872" cy = "813.722" r="5"/></g>
<g>
<circle cx = "279.706" cy = "758.478" r="5"/></g>
<g>
<circle cx = "922.029" cy = "349.201" r="5"/></g>
<g>
<circle cx = "490.226" cy = "792.760" r="5"/></g>
<g>
<circle cx = "261.106" cy = "861.731" r="5"/></g>
<g>
<circle cx = "619.443" cy = "812.358" r="5"/></g>
<g>
<circle cx = "173.077" cy = "580.094" r="5"/></g>
<g>
<circle cx = "68.051" cy = "201.475" r="5"/></g>
<g>
<circle cx = "406.331" cy = "472.652" r="5"/></g>
<g>
<circle cx = "923.540" cy = "997.135" r="5"/></g>
<g>
<circle cx = "271.956" cy = "392.270" r="5"/></g>
<g>
<circle cx = "631.844" cy = "242.521" r="5"/></g>
<g>
<circle cx = "776.440" cy = "286.011" r="5"/></g>
<g>
<circle cx = "578.960" cy = "522.401" r="5"/></g>
<g>
<circle cx = "247.685" cy = "38.859" r="5"/></g>
<g>
<circle cx = "970.063" cy = "30.480" r="5"/></g>
<g>
<circle cx = "845.639" cy = "468.217" r="5"/></g>
<g>
<circle cx = "775.241" cy = "973.894" r="5"/></g>
<g>
<circle cx = "51.424" cy = "677.253" r="5"/></g>
<g>
<circle cx = "976.479" cy = "545.478" r="5"/></g>
<g>
<circle cx = "213.087" cy = "413.111" r="5"/></g>
<g>
<circle cx = "145.218" cy = "649.590" r="5"/></g>
<g>
<circle cx = "835.427" cy = "340.656" r="5"/></g>
<g>
<circle cx = "784.660" cy = "535.556" r="5"/></g>
<g>
<circle cx = "37.414" cy = "270.027" r="5"/></g>
<g>
<circle cx = "552.276" cy = "551.712" r="5"/></g>
<g>
<circle cx = "301.767" cy = "868.487" r="5"/></g>
<g>
<circle cx = "9.745" cy = "997.537" r="5"/></g>
<g>
<circle cx = "273.214" cy = "261.243" r="5"/></g>
<g>
<circle cx = "755.145" cy = "615.639" r="5"/></g>
<g>
<circle cx = "170.679" cy = "993.554" r="5"/></g>
<g>
<circle cx = "832.027" cy = "957.083" r="5"/></g>
<g>
<circle cx = "373.500" cy = "520.387" r="5"/></g>
<g>
<circle cx = "620.844" cy = "621.380" r="5"/></g>
<g>
<circle cx = "624.975" cy = "314.580" r="5"/></g>
<g>
<circle cx = "285.072" cy = "504.601" r="5"/></g>
<g>
<circle cx = "917.269" cy = "927.158" r="5"/></g>
<g>
<circle cx = "111.678" cy = "387.243" r="5"/></g>
<g>
<circle cx = "352.334" cy = "582.617" r="5"/></g>
<g>
<circle cx = "580.890" cy = "840.591" r="5"/></g>
<g>
<circle cx = "856.766" cy = "979.182" r="5"/></g>
<g>
<circle cx = "347.688" cy = "221.767" r="5"/></g>
<g>
<circle cx = "469.925" cy = "822.893" r="5"/></g>
<g>
<circle cx = "507.128" cy = "491.666" r="5"/></g>
<g>
<circle cx = "470.684" cy = "144.292" r="5"/></g>
<g>
<circle cx = "725.498" cy = "512.013" r="5"/></g>
<g>
<circle cx = "816.548" cy = "821.749" r="5"/></g>
<g>
<circle cx = "562.587" cy = "155.079" r="5"/></g>
<g>
<circle cx = "37.961" cy = "709.705" r="5"/></g>
<g>
<circle cx = "321.832" cy = "733.429" r="5"/></g>
<g>
<circle cx = "941.552" cy = "560.622" r="5"/></g>
<g>
<circle cx = "106.184" cy = "908.547" r="5"/></g>
<g>
<circle cx = "520.276" cy = "146.485" r="5"/></g>
<g>
<circle cx = "178.435" cy = "342.115" r="5"/></g>
<g>
<circle cx = "347.580" cy = "68.540" r="5"/></g>
<g>
<circle cx = "33.403" cy = "147.900" r="5"/></g>
<g>
<circle cx = "917.595" cy = "283.109" r="5"/></g>
<g>
<circle cx = "4.817" cy = "261.933" r="5"/></g>
<g>
<circle cx = "506.901" cy = "152.438" r="5"/></g>
<g>
<circle cx = "530.436" cy = "990.771" r="5"/></g>
<g>
<circle cx = "598.010" cy = "927.095" r="5"/></g>
<g>
<circle cx = "170.410" cy = "921.813" r="5"/></g>
<g>
<circle cx = "818.085" cy = "68.574" r="5"/></g>
<g>
<circle cx = "667.136" cy = "88.523" r="5"/></g>
<g>
<circle cx = "34.544" cy = "675.557" r="5"/></g>
<g>
<circle cx = "504.987" cy = "492.112" r="5"/></g>
<g>
<circle cx = "817.159" cy = "484.540" r="5"/></g>
<g>
<circle cx = "24.734" cy = "463.575" r="5"/></g>
<g>
<circle cx = "396.370" cy = "965.020" r="5"/></g>
<g>
<circle cx = "985.373" cy = "770.923" r="5"/></g>
<g>
<circle cx = "976.126" cy = "793.589" r="5"/></g>
<g>
<circle cx = "605.506" cy = "492.977" r="5"/></g>
<g>
<circle cx = "453.699" cy = "478.200" r="5"/></g>
<g>
<circle cx = "287.111" cy = "266.716" r="5"/></g>
<g>
<circle cx = "108.857" cy = "22.498" r="5"/></g>
<g>
<circle cx = "176.805" cy = "218.515" r="5"/></g>
<g>
<circle cx = "691.438" cy = "0.218" r="5"/></g>
<g>
<circle cx = "935.832" cy = "332.974" r="5"/></g>
<g>
<circle cx = "76.184" cy = "56.317" r="5"/></g>
<g>
<circle cx = "946.103" cy = "550.329" r="5"/></g>
<g>
<circle cx = "196.153" cy = "806.477" r="5"/></g>
<g>
<circle cx = "442.892" cy = "945.188" r="5"/></g>
<g>
<circle cx = "983.085" cy = "742.138" r="5"/></g>
<g>
<circle cx = "26.309" cy = "148.184" r="5"/></g>
<g>
<circle cx = "794.537" cy = "551.385" r="5"/></g>
<g>
<circle cx = "478.568" cy = "447.334" r="5"/></g>
<g>
<circle cx = "892.342" cy = "951.312" r="5"/></g>
<g>
<circle cx = "160.062" cy = "433.589" r="5"/></g>
<g>
<circle cx = "303.295" cy = "29.202" r="5"/></g>
<g>
<circle cx = "940.990" cy = "886.032" r="5"/></g>
<g>
<circle cx = "843.202" cy = "208.096" r="5"/></g>
<g>
<circle cx = "634.418" cy = "517.520" r="5"/></g>
<g>
<circle cx = "699.045" cy = "915.866" r="5"/></g>
<g>
<circle cx = "19.069" cy = "997.959" r="5"/></g>
<g>
<circle cx = "651.238" cy = "45.412" r="5"/></g>
<g>
<circle cx = "826.266" cy = "594.144" r="5"/></g>
<g>
<circle cx = "910.463" cy = "715.291" r="5"/></g>
<g>
<circle cx = "883.729" cy = "174.633" r="5"/></g>
<g>
<circle cx = "323.401" cy = "383.039" r="5"/></g>
<g>
<circle cx = "191.785" cy = "227.290" r="5"/></g>
<g>
<circle cx = "447.817" cy = "195.433" r="5"/></g>
<g>
<circle cx = "728.948" cy = "890.229" r="5"/></g>
<g>
<circle cx = "203.331" cy = "189.732" r="5"/></g>
<g>
<circle cx = "890.550" cy = "673.556" r="5"/></g>
<g>
<circle cx = "845.447" cy = "729.374" r="5"/></g>
<g>
<circle cx = "650.915" cy = "366.824" r="5"/></g>
<g>
<circle cx = "561.017" cy = "211.801" r="5"/></g>
<g>
<circle cx = "314.461" cy = "340.594" r="5"/></g>
<g>
<circle cx = "673.472" cy = "526.192" r="5"/></g>
<g>
<circle cx = "511.808" cy = "652.540" r="5"/></g>
<g>
<circle cx = "86.898" cy = "611.266" r="5"/></g>
<g>
<circle cx = "955.986" cy = "822.348" r="5"/></g>
<g>
<circle cx = "884.672" cy = "156.771" r="5"/></g>
<g>
<circle cx = "697.956" cy = "389.827" r="5"/></g>
<g>
<circle cx = "837.162" cy = "76.350" r="5"/></g>
<g>
<circle cx = "76.899" cy = "44.135" r="5"/></g>
<g>
<circle cx = "877.666" cy = "478.090" r="5"/></g>
<g>
<circle cx = "814.316" cy = "252.476" r="5"/></g>
<g>
<circle cx = "505.548" cy = "852.357" r="5"/></g>
<g>
<circle cx = "441.943" cy = "485.139" r="5"/></g>
<g>
<circle cx = "608.329" cy = "119.263" r="5"/></g>
<g>
<circle cx = "814.732" cy = "490.553" r="5"/></g>
<g>
<circle cx = "888.419" cy = "337.188" r="5"/></g>
<g>
<circle cx = "494.357" cy = "89.094" r="5"/></g>
<g>
<circle cx = "684.915" cy = "388.830" r="5"/></g>
<g>
<circle cx = "218.647" cy = "366.731" r="5"/></g>
<g>
<circle cx = "691.374" cy = "620.200" r="5"/></g>
<g>
<circle cx = "250.844" cy = "951.175" r="5"/></g>
<g>
<circle cx = "650.313" cy = "60.508" r="5"/></g>
<g>
<circle cx = "844.994" cy = "594.115" r="5"/></g>
<g>
<circle cx = "121.446" cy = "273.996" r="5"/></g>
<g>
<circle cx = "971.075" cy = "604.688" r="5"/></g>
<g>
<circle cx = "557.039" cy = "839.118" r="5"/></g>
<g>
<circle cx = "813.064" cy = "585.826" r="5"/></g>
<g>
<circle cx = "870.108" cy = "221.001" r="5"/></g>
<g>
<circle cx = "596.760" cy = "863.421" r="5"/></g>
</svg>
