<svg xmlns = "http://www.w3.org/2000/svg" width = "1000" height = "1000">
<g>
<polygon points = "354.605, 268.421 234.375, 440.179 0.000, 507.143 0.000, 0.000 287.500, 0.000 "
fill = "none" stroke = "black"/>
</g>
<g>
<polygon points = "453.571, 246.429 354.605, 268.421 287.500, 0.000 700.000, 0.000 "
fill = "none" stroke = "black"/>
</g>
<g>
<polygon points = "816.667, 391.667 453.571, 246.429 700.000, 0.000 1000.000, 0.000 1000.000, 300.000 "
fill = "none" stroke = "black"/>
</g>
<g>
<polygon points = "700.000, 625.000 550.000, 710.714 234.375, 440.179 354.605, 268.421 453.571, 246.429 816.667, 391.667 "
fill = "none" stroke = "black"/>
</g>
<g>
<polygon points = "700.000, 625.000 816.667, 391.667 1000.000, 300.000 1000.000, 775.000 "
fill = "none" stroke = "black"/>
</g>
<g>
<polygon points = "550.000, 1000.000 550.000, 710.714 700.000, 625.000 1000.000, 775.000 1000.000, 1000.000 "
fill = "none" stroke = "black"/>
</g>
<g>
<polygon points = "550.000, 710.714 550.000, 1000.000 0.000, 1000.000 0.000, 507.143 234.375, 440.179 "
fill = "none" stroke = "black"/>
</g>
<g>
<circle cx = "100.000" cy = "100.000" r="5"/></g>
<g>
<circle cx = "500.000" cy = "0.000" r="5"/></g>
<g>
<circle cx = "700.000" cy = "200.000" r="5"/></g>
<g>
<circle cx = "600.000" cy = "450.000" r="5"/></g>
<g>
<circle cx = "900.000" cy = "600.000" r="5"/></g>
<g>
<circle cx = "800.000" cy = "800.000" r="5"/></g>
<g>
<circle cx = "300.000" cy = "800.000" r="5"/></g>
</svg>
