<svg xmlns = "http://www.w3.org/2000/svg" width = "1000" height = "1000">
<g>
<polygon points = "147.005, 547.039 145.985, 548.489 80.695, 558.885 63.042, 525.619 72.856, 498.151 125.006, 485.983 "
fill = "none" stroke = "black"/>
</g>
<g>
<polygon points = "297.678, 240.379 281.169, 287.345 219.312, 279.172 206.910, 245.273 253.582, 202.703 "
fill = "none" stroke = "black"/>
</g>
<g>
<polygon points = "927.063, 461.712 909.490, 429.693 932.004, 381.177 1000.000, 385.422 1000.000, 456.838 "
fill = "none" stroke = "black"/>
</g>
<g>
<polygon points = "63.740, 433.189 95.892, 423.847 135.793, 465.577 125.006, 485.983 72.856, 498.151 49.832, 461.579 "
fill = "none" stroke = "black"/>
</g>
<g>
<polygon points = "79.616, 1000.000 0.000, 1000.000 0.000, 937.284 73.439, 932.387 "
fill = "none" stroke = "black"/>
</g>
<g>
<polygon points = "779.621, 77.473 743.735, 137.559 689.242, 103.121 688.357, 70.498 703.375, 53.291 773.054, 65.899 "
fill = "none" stroke = "black"/>
</g>
<g>
<polygon points = "584.109, 376.838 555.363, 404.487 515.637, 401.633 503.247, 339.152 520.255, 321.954 572.884, 330.925 "
fill = "none" stroke = "black"/>
</g>
<g>
<polygon points = "797.018, 173.902 799.655, 189.302 750.924, 240.447 749.046, 240.473 705.886, 190.991 744.358, 140.437 "
fill = "none" stroke = "black"/>
</g>
<g>
<polygon points = "81.636, 690.222 71.737, 720.766 0.000, 718.720 0.000, 654.243 58.130, 652.148 "
fill = "none" stroke = "black"/>
</g>
<g>
<polygon points = "783.675, 657.357 741.854, 685.551 700.049, 647.932 718.902, 602.690 778.888, 606.943 "
fill = "none" stroke = "black"/>
</g>
<g>
<polygon points = "932.004, 381.177 917.548, 354.080 939.576, 305.127 1000.000, 302.435 1000.000, 385.422 "
fill = "none" stroke = "black"/>
</g>
<g>
<polygon points = "81.712, 117.944 74.533, 125.560 0.000, 117.465 0.000, 58.380 80.659, 62.421 "
fill = "none" stroke = "black"/>
</g>
<g>
<polygon points = "421.074, 608.811 400.379, 582.794 414.422, 538.639 466.781, 531.900 484.979, 557.638 466.546, 610.847 "
fill = "none" stroke = "black"/>
</g>
<g>
<polygon points = "308.711, 781.664 342.963, 820.448 334.538, 858.896 288.940, 877.873 260.122, 857.199 256.793, 821.397 299.094, 781.832 "
fill = "none" stroke = "black"/>
</g>
<g>
<polygon points = "939.340, 932.228 937.632, 935.489 877.976, 958.464 854.547, 932.672 880.708, 886.416 923.510, 892.796 "
fill = "none" stroke = "black"/>
</g>
<g>
<polygon points = "514.877, 640.239 535.452, 669.786 519.536, 716.610 470.185, 720.367 446.305, 696.935 484.422, 634.134 "
fill = "none" stroke = "black"/>
</g>
<g>
<polygon points = "463.556, 866.203 465.686, 926.855 402.958, 937.122 378.658, 914.031 377.929, 898.250 420.944, 855.288 "
fill = "none" stroke = "black"/>
</g>
<g>
<polygon points = "77.755, 610.264 58.130, 652.148 0.000, 654.243 0.000, 586.590 69.434, 590.501 "
fill = "none" stroke = "black"/>
</g>
<g>
<polygon points = "945.885, 539.620 917.530, 489.332 927.063, 461.712 1000.000, 456.838 1000.000, 539.752 "
fill = "none" stroke = "black"/>
</g>
<g>
<polygon points = "172.502, 231.504 134.515, 262.351 83.976, 238.382 86.194, 196.278 158.583, 178.152 "
fill = "none" stroke = "black"/>
</g>
<g>
<polygon points = "151.144, 318.805 142.274, 377.530 110.196, 386.586 73.030, 354.078 72.779, 323.306 137.254, 306.181 "
fill = "none" stroke = "black"/>
</g>
<g>
<polygon points = "598.101, 302.654 578.029, 254.604 614.374, 220.840 653.551, 232.547 662.663, 258.796 630.170, 304.725 "
fill = "none" stroke = "black"/>
</g>
<g>
<polygon points = "912.834, 732.963 858.694, 753.024 827.124, 717.548 830.286, 681.074 860.728, 659.641 923.850, 701.962 "
fill = "none" stroke = "black"/>
</g>
<g>
<polygon points = "537.022, 47.380 583.955, 85.387 551.465, 133.053 502.947, 122.574 499.140, 72.481 "
fill = "none" stroke = "black"/>
</g>
<g>
<polygon points = "833.030, 589.652 864.728, 555.982 918.535, 574.841 923.779, 606.878 864.677, 640.303 "
fill = "none" stroke = "black"/>
</g>
<g>
<polygon points = "334.538, 858.896 342.963, 820.448 400.460, 805.613 420.944, 855.288 377.929, 898.250 "
fill = "none" stroke = "black"/>
</g>
<g>
<polygon points = "532.089, 929.037 541.397, 943.831 532.639, 1000.000 472.409, 1000.000 471.373, 932.022 "
fill = "none" stroke = "black"/>
</g>
<g>
<polygon points = "543.128, 246.358 514.043, 276.194 456.163, 258.701 450.443, 231.591 491.697, 194.194 529.611, 205.690 "
fill = "none" stroke = "black"/>
</g>
<g>
<polygon points = "840.943, 217.534 799.655, 189.302 797.018, 173.902 835.996, 130.294 885.825, 149.547 873.290, 206.952 "
fill = "none" stroke = "black"/>
</g>
<g>
<polygon points = "288.940, 877.873 288.676, 923.026 240.372, 948.269 207.494, 922.472 207.869, 883.544 260.122, 857.199 "
fill = "none" stroke = "black"/>
</g>
<g>
<polygon points = "329.686, 554.856 355.978, 586.883 338.652, 630.148 290.243, 632.512 278.025, 617.802 290.056, 560.884 "
fill = "none" stroke = "black"/>
</g>
<g>
<polygon points = "769.487, 743.692 768.072, 772.389 719.359, 798.521 680.827, 773.847 685.291, 736.063 739.602, 711.940 "
fill = "none" stroke = "black"/>
</g>
<g>
<polygon points = "337.310, 227.431 361.260, 240.698 374.082, 292.387 319.027, 320.291 293.082, 311.590 281.169, 287.345 297.678, 240.379 "
fill = "none" stroke = "black"/>
</g>
<g>
<polygon points = "703.065, 574.300 718.902, 602.690 700.049, 647.932 670.052, 656.209 626.550, 619.015 651.427, 569.286 "
fill = "none" stroke = "black"/>
</g>
<g>
<polygon points = "71.616, 179.496 74.533, 125.560 81.712, 117.944 144.029, 127.016 159.164, 176.846 158.583, 178.152 86.194, 196.278 "
fill = "none" stroke = "black"/>
</g>
<g>
<polygon points = "947.561, 855.882 923.172, 815.167 942.766, 780.457 1000.000, 775.592 1000.000, 857.206 "
fill = "none" stroke = "black"/>
</g>
<g>
<polygon points = "395.575, 369.429 432.659, 369.973 457.200, 412.170 428.361, 454.882 411.965, 458.129 383.885, 438.132 386.015, 377.108 "
fill = "none" stroke = "black"/>
</g>
<g>
<polygon points = "537.022, 47.380 499.140, 72.481 452.636, 53.001 448.059, 0.000 540.460, 0.000 "
fill = "none" stroke = "black"/>
</g>
<g>
<polygon points = "199.406, 315.968 222.329, 353.394 198.635, 393.977 170.696, 397.761 142.274, 377.530 151.144, 318.805 "
fill = "none" stroke = "black"/>
</g>
<g>
<polygon points = "653.551, 232.547 614.374, 220.840 599.943, 176.796 642.260, 140.306 646.811, 140.499 687.832, 191.681 "
fill = "none" stroke = "black"/>
</g>
<g>
<polygon points = "408.746, 788.313 459.425, 777.721 486.798, 799.494 481.202, 853.312 463.556, 866.203 420.944, 855.288 400.460, 805.613 "
fill = "none" stroke = "black"/>
</g>
<g>
<polygon points = "881.835, 818.816 923.172, 815.167 947.561, 855.882 923.510, 892.796 880.708, 886.416 862.663, 856.635 "
fill = "none" stroke = "black"/>
</g>
<g>
<polygon points = "369.499, 73.901 374.254, 78.205 368.893, 147.781 335.458, 162.944 303.594, 147.917 296.797, 81.180 "
fill = "none" stroke = "black"/>
</g>
<g>
<polygon points = "210.460, 667.207 166.837, 699.486 134.585, 673.144 135.548, 624.250 151.408, 610.252 210.448, 620.609 "
fill = "none" stroke = "black"/>
</g>
<g>
<polygon points = "151.408, 610.252 135.548, 624.250 77.755, 610.264 69.434, 590.501 80.695, 558.885 145.985, 548.489 "
fill = "none" stroke = "black"/>
</g>
<g>
<polygon points = "452.636, 53.001 499.140, 72.481 502.947, 122.574 477.416, 144.401 445.845, 138.610 424.639, 79.913 "
fill = "none" stroke = "black"/>
</g>
<g>
<polygon points = "238.555, 81.144 221.679, 97.285 167.915, 90.387 155.575, 63.473 181.317, 0.000 215.615, 0.000 "
fill = "none" stroke = "black"/>
</g>
<g>
<polygon points = "927.063, 461.712 917.530, 489.332 857.676, 511.103 829.539, 492.199 825.069, 476.204 859.007, 424.945 909.490, 429.693 "
fill = "none" stroke = "black"/>
</g>
<g>
<polygon points = "857.676, 511.103 864.728, 555.982 833.030, 589.652 796.530, 587.682 780.535, 538.441 829.539, 492.199 "
fill = "none" stroke = "black"/>
</g>
<g>
<polygon points = "599.943, 176.796 565.557, 167.473 551.465, 133.053 583.955, 85.387 597.829, 83.575 642.260, 140.306 "
fill = "none" stroke = "black"/>
</g>
<g>
<polygon points = "773.054, 65.899 703.375, 53.291 702.309, 0.000 784.898, 0.000 "
fill = "none" stroke = "black"/>
</g>
<g>
<polygon points = "285.055, 481.962 324.839, 481.404 346.497, 514.323 329.686, 554.856 290.056, 560.884 267.422, 542.473 265.891, 501.830 "
fill = "none" stroke = "black"/>
</g>
<g>
<polygon points = "424.639, 79.913 445.845, 138.610 408.730, 165.611 368.893, 147.781 374.254, 78.205 "
fill = "none" stroke = "black"/>
</g>
<g>
<polygon points = "771.790, 335.292 749.148, 337.284 714.314, 309.384 710.825, 277.999 749.046, 240.473 750.924, 240.447 800.081, 285.263 "
fill = "none" stroke = "black"/>
</g>
<g>
<polygon points = "722.199, 935.139 748.258, 927.133 793.044, 997.885 793.030, 1000.000 710.407, 1000.000 "
fill = "none" stroke = "black"/>
</g>
<g>
<polygon points = "465.686, 926.855 463.556, 866.203 481.202, 853.312 536.282, 868.945 545.006, 890.727 532.089, 929.037 471.373, 932.022 "
fill = "none" stroke = "black"/>
</g>
<g>
<polygon points = "520.255, 321.954 503.247, 339.152 458.443, 337.581 436.749, 289.069 456.163, 258.701 514.043, 276.194 "
fill = "none" stroke = "black"/>
</g>
<g>
<polygon points = "941.459, 154.465 910.683, 137.507 915.911, 79.727 927.455, 70.432 1000.000, 81.235 1000.000, 139.674 "
fill = "none" stroke = "black"/>
</g>
<g>
<polygon points = "155.575, 63.473 88.951, 51.764 87.211, 0.000 181.317, 0.000 "
fill = "none" stroke = "black"/>
</g>
<g>
<polygon points = "457.200, 412.170 501.643, 413.868 507.959, 478.099 477.491, 494.072 428.361, 454.882 "
fill = "none" stroke = "black"/>
</g>
<g>
<polygon points = "368.893, 147.781 408.730, 165.611 414.235, 210.540 361.260, 240.698 337.310, 227.431 335.458, 162.944 "
fill = "none" stroke = "black"/>
</g>
<g>
<polygon points = "215.059, 752.366 252.850, 733.627 299.094, 781.832 256.793, 821.397 207.317, 795.285 "
fill = "none" stroke = "black"/>
</g>
<g>
<polygon points = "541.397, 943.831 597.185, 951.011 605.031, 1000.000 532.639, 1000.000 "
fill = "none" stroke = "black"/>
</g>
<g>
<polygon points = "780.535, 538.441 796.530, 587.682 778.888, 606.943 718.902, 602.690 703.065, 574.300 732.032, 520.742 "
fill = "none" stroke = "black"/>
</g>
<g>
<polygon points = "744.358, 140.437 705.886, 190.991 687.832, 191.681 646.811, 140.499 689.242, 103.121 743.735, 137.559 "
fill = "none" stroke = "black"/>
</g>
<g>
<polygon points = "862.663, 856.635 880.708, 886.416 854.547, 932.672 829.001, 932.415 805.385, 907.404 821.506, 858.488 "
fill = "none" stroke = "black"/>
</g>
<g>
<polygon points = "596.897, 735.648 609.525, 711.861 653.311, 703.198 685.291, 736.063 680.827, 773.847 652.084, 789.909 609.411, 773.889 "
fill = "none" stroke = "black"/>
</g>
<g>
<polygon points = "369.499, 73.901 296.797, 81.180 292.920, 78.104 295.935, 0.000 368.005, 0.000 "
fill = "none" stroke = "black"/>
</g>
<g>
<polygon points = "344.725, 733.809 308.711, 781.664 299.094, 781.832 252.850, 733.627 262.633, 697.546 276.902, 689.133 335.012, 707.956 "
fill = "none" stroke = "black"/>
</g>
<g>
<polygon points = "830.286, 681.074 827.124, 717.548 769.487, 743.692 739.602, 711.940 741.854, 685.551 783.675, 657.357 "
fill = "none" stroke = "black"/>
</g>
<g>
<polygon points = "88.951, 51.764 80.659, 62.421 0.000, 58.380 0.000, 0.000 87.211, 0.000 "
fill = "none" stroke = "black"/>
</g>
<g>
<polygon points = "860.728, 659.641 830.286, 681.074 783.675, 657.357 778.888, 606.943 796.530, 587.682 833.030, 589.652 864.677, 640.303 "
fill = "none" stroke = "black"/>
</g>
<g>
<polygon points = "260.122, 857.199 207.869, 883.544 178.457, 859.815 185.927, 807.550 207.317, 795.285 256.793, 821.397 "
fill = "none" stroke = "black"/>
</g>
<g>
<polygon points = "323.177, 947.694 325.931, 1000.000 240.124, 1000.000 240.372, 948.269 288.676, 923.026 "
fill = "none" stroke = "black"/>
</g>
<g>
<polygon points = "599.943, 176.796 614.374, 220.840 578.029, 254.604 543.128, 246.358 529.611, 205.690 565.557, 167.473 "
fill = "none" stroke = "black"/>
</g>
<g>
<polygon points = "771.790, 335.292 809.352, 376.737 765.063, 430.681 717.132, 404.965 715.396, 397.648 749.148, 337.284 "
fill = "none" stroke = "black"/>
</g>
<g>
<polygon points = "653.311, 703.198 609.525, 711.861 584.019, 668.342 607.384, 623.578 626.550, 619.015 670.052, 656.209 "
fill = "none" stroke = "black"/>
</g>
<g>
<polygon points = "142.274, 377.530 170.696, 397.761 152.887, 459.155 135.793, 465.577 95.892, 423.847 110.196, 386.586 "
fill = "none" stroke = "black"/>
</g>
<g>
<polygon points = "514.043, 276.194 543.128, 246.358 578.029, 254.604 598.101, 302.654 572.884, 330.925 520.255, 321.954 "
fill = "none" stroke = "black"/>
</g>
<g>
<polygon points = "144.029, 127.016 167.915, 90.387 221.679, 97.285 229.648, 156.776 159.164, 176.846 "
fill = "none" stroke = "black"/>
</g>
<g>
<polygon points = "609.525, 711.861 596.897, 735.648 537.896, 739.602 519.536, 716.610 535.452, 669.786 584.019, 668.342 "
fill = "none" stroke = "black"/>
</g>
<g>
<polygon points = "515.637, 401.633 555.363, 404.487 578.681, 462.583 542.347, 488.816 507.959, 478.099 501.643, 413.868 "
fill = "none" stroke = "black"/>
</g>
<g>
<polygon points = "466.546, 610.847 484.422, 634.134 446.305, 696.935 426.947, 695.253 397.352, 661.454 421.074, 608.811 "
fill = "none" stroke = "black"/>
</g>
<g>
<polygon points = "552.071, 559.233 557.157, 585.442 514.877, 640.239 484.422, 634.134 466.546, 610.847 484.979, 557.638 "
fill = "none" stroke = "black"/>
</g>
<g>
<polygon points = "80.693, 740.269 54.478, 790.040 0.000, 789.679 0.000, 718.720 71.737, 720.766 "
fill = "none" stroke = "black"/>
</g>
<g>
<polygon points = "710.825, 277.999 714.314, 309.384 660.297, 343.516 630.170, 304.725 662.663, 258.796 "
fill = "none" stroke = "black"/>
</g>
<g>
<polygon points = "927.455, 70.432 930.900, 0.000 1000.000, 0.000 1000.000, 81.235 "
fill = "none" stroke = "black"/>
</g>
<g>
<polygon points = "458.443, 337.581 503.247, 339.152 515.637, 401.633 501.643, 413.868 457.200, 412.170 432.659, 369.973 "
fill = "none" stroke = "black"/>
</g>
<g>
<polygon points = "652.084, 789.909 647.258, 846.947 622.123, 858.348 568.211, 818.536 609.411, 773.889 "
fill = "none" stroke = "black"/>
</g>
<g>
<polygon points = "324.839, 481.404 342.467, 447.170 383.885, 438.132 411.965, 458.129 393.083, 511.774 346.497, 514.323 "
fill = "none" stroke = "black"/>
</g>
<g>
<polygon points = "61.830, 312.222 72.779, 323.306 73.030, 354.078 29.131, 388.428 0.000, 385.825 0.000, 313.950 "
fill = "none" stroke = "black"/>
</g>
<g>
<polygon points = "927.455, 70.432 915.911, 79.727 855.878, 61.928 850.224, 0.000 930.900, 0.000 "
fill = "none" stroke = "black"/>
</g>
<g>
<polygon points = "945.885, 539.620 918.535, 574.841 864.728, 555.982 857.676, 511.103 917.530, 489.332 "
fill = "none" stroke = "black"/>
</g>
<g>
<polygon points = "61.830, 312.222 0.000, 313.950 0.000, 240.135 65.446, 252.917 "
fill = "none" stroke = "black"/>
</g>
<g>
<polygon points = "450.443, 231.591 456.163, 258.701 436.749, 289.069 380.248, 295.933 374.082, 292.387 361.260, 240.698 414.235, 210.540 "
fill = "none" stroke = "black"/>
</g>
<g>
<polygon points = "653.551, 232.547 687.832, 191.681 705.886, 190.991 749.046, 240.473 710.825, 277.999 662.663, 258.796 "
fill = "none" stroke = "black"/>
</g>
<g>
<polygon points = "55.036, 864.707 79.297, 924.476 73.439, 932.387 0.000, 937.284 0.000, 864.331 "
fill = "none" stroke = "black"/>
</g>
<g>
<polygon points = "939.576, 305.127 913.288, 270.016 918.228, 237.446 944.426, 221.029 1000.000, 230.391 1000.000, 302.435 "
fill = "none" stroke = "black"/>
</g>
<g>
<polygon points = "29.131, 388.428 63.740, 433.189 49.832, 461.579 0.000, 467.139 0.000, 385.825 "
fill = "none" stroke = "black"/>
</g>
<g>
<polygon points = "567.978, 818.566 527.831, 786.387 537.896, 739.602 596.897, 735.648 609.411, 773.889 568.211, 818.536 "
fill = "none" stroke = "black"/>
</g>
<g>
<polygon points = "659.295, 358.614 626.918, 387.491 584.109, 376.838 572.884, 330.925 598.101, 302.654 630.170, 304.725 660.297, 343.516 "
fill = "none" stroke = "black"/>
</g>
<g>
<polygon points = "290.243, 632.512 338.652, 630.148 361.878, 661.274 335.012, 707.956 276.902, 689.133 "
fill = "none" stroke = "black"/>
</g>
<g>
<polygon points = "288.676, 923.026 288.940, 877.873 334.538, 858.896 377.929, 898.250 378.658, 914.031 323.177, 947.694 "
fill = "none" stroke = "black"/>
</g>
<g>
<polygon points = "760.488, 910.674 805.385, 907.404 829.001, 932.415 793.044, 997.885 748.258, 927.133 "
fill = "none" stroke = "black"/>
</g>
<g>
<polygon points = "166.837, 699.486 167.615, 717.001 130.508, 756.619 80.693, 740.269 71.737, 720.766 81.636, 690.222 134.585, 673.144 "
fill = "none" stroke = "black"/>
</g>
<g>
<polygon points = "466.781, 531.900 477.491, 494.072 507.959, 478.099 542.347, 488.816 554.659, 554.765 552.071, 559.233 484.979, 557.638 "
fill = "none" stroke = "black"/>
</g>
<g>
<polygon points = "252.297, 173.840 253.582, 202.703 206.910, 245.273 172.502, 231.504 158.583, 178.152 159.164, 176.846 229.648, 156.776 "
fill = "none" stroke = "black"/>
</g>
<g>
<polygon points = "607.384, 623.578 584.019, 668.342 535.452, 669.786 514.877, 640.239 557.157, 585.442 "
fill = "none" stroke = "black"/>
</g>
<g>
<polygon points = "948.364, 1000.000 937.632, 935.489 939.340, 932.228 1000.000, 926.155 1000.000, 1000.000 "
fill = "none" stroke = "black"/>
</g>
<g>
<polygon points = "80.695, 558.885 69.434, 590.501 0.000, 586.590 0.000, 531.151 63.042, 525.619 "
fill = "none" stroke = "black"/>
</g>
<g>
<polygon points = "765.063, 430.681 770.089, 446.803 725.919, 505.513 689.866, 487.136 678.980, 446.495 717.132, 404.965 "
fill = "none" stroke = "black"/>
</g>
<g>
<polygon points = "130.508, 756.619 138.602, 788.025 100.953, 830.776 82.584, 830.679 54.478, 790.040 80.693, 740.269 "
fill = "none" stroke = "black"/>
</g>
<g>
<polygon points = "536.282, 868.945 567.978, 818.566 568.211, 818.536 622.123, 858.348 608.509, 894.636 545.006, 890.727 "
fill = "none" stroke = "black"/>
</g>
<g>
<polygon points = "944.426, 221.029 941.459, 154.465 1000.000, 139.674 1000.000, 230.391 "
fill = "none" stroke = "black"/>
</g>
<g>
<polygon points = "216.779, 614.754 219.300, 561.319 267.422, 542.473 290.056, 560.884 278.025, 617.802 "
fill = "none" stroke = "black"/>
</g>
<g>
<polygon points = "873.290, 206.952 918.228, 237.446 913.288, 270.016 851.118, 293.643 829.421, 279.536 840.943, 217.534 "
fill = "none" stroke = "black"/>
</g>
<g>
<polygon points = "436.749, 289.069 458.443, 337.581 432.659, 369.973 395.575, 369.429 380.248, 295.933 "
fill = "none" stroke = "black"/>
</g>
<g>
<polygon points = "198.635, 393.977 228.808, 429.483 203.544, 478.591 152.887, 459.155 170.696, 397.761 "
fill = "none" stroke = "black"/>
</g>
<g>
<polygon points = "147.005, 547.039 188.997, 536.790 219.300, 561.319 216.779, 614.754 210.448, 620.609 151.408, 610.252 145.985, 548.489 "
fill = "none" stroke = "black"/>
</g>
<g>
<polygon points = "825.268, 89.975 835.996, 130.294 797.018, 173.902 744.358, 140.437 743.735, 137.559 779.621, 77.473 "
fill = "none" stroke = "black"/>
</g>
<g>
<polygon points = "939.340, 932.228 923.510, 892.796 947.561, 855.882 1000.000, 857.206 1000.000, 926.155 "
fill = "none" stroke = "black"/>
</g>
<g>
<polygon points = "858.694, 753.024 853.133, 779.342 799.269, 802.692 768.072, 772.389 769.487, 743.692 827.124, 717.548 "
fill = "none" stroke = "black"/>
</g>
<g>
<polygon points = "840.943, 217.534 829.421, 279.536 800.081, 285.263 750.924, 240.447 799.655, 189.302 "
fill = "none" stroke = "black"/>
</g>
<g>
<polygon points = "685.074, 917.149 722.199, 935.139 710.407, 1000.000 662.534, 1000.000 657.359, 932.326 "
fill = "none" stroke = "black"/>
</g>
<g>
<polygon points = "293.082, 311.590 257.690, 354.800 222.329, 353.394 199.406, 315.968 219.312, 279.172 281.169, 287.345 "
fill = "none" stroke = "black"/>
</g>
<g>
<polygon points = "387.164, 744.391 408.746, 788.313 400.460, 805.613 342.963, 820.448 308.711, 781.664 344.725, 733.809 "
fill = "none" stroke = "black"/>
</g>
<g>
<polygon points = "185.927, 807.550 178.457, 859.815 137.756, 870.805 100.953, 830.776 138.602, 788.025 "
fill = "none" stroke = "black"/>
</g>
<g>
<polygon points = "703.375, 53.291 688.357, 70.498 624.079, 52.606 620.109, 0.000 702.309, 0.000 "
fill = "none" stroke = "black"/>
</g>
<g>
<polygon points = "619.757, 922.839 657.359, 932.326 662.534, 1000.000 605.031, 1000.000 597.185, 951.011 "
fill = "none" stroke = "black"/>
</g>
<g>
<polygon points = "748.258, 927.133 722.199, 935.139 685.074, 917.149 685.988, 865.596 722.301, 846.428 745.239, 857.544 760.488, 910.674 "
fill = "none" stroke = "black"/>
</g>
<g>
<polygon points = "402.958, 937.122 465.686, 926.855 471.373, 932.022 472.409, 1000.000 400.494, 1000.000 "
fill = "none" stroke = "black"/>
</g>
<g>
<polygon points = "930.363, 698.172 947.694, 625.544 1000.000, 621.504 1000.000, 707.162 "
fill = "none" stroke = "black"/>
</g>
<g>
<polygon points = "799.269, 802.692 797.383, 833.405 745.239, 857.544 722.301, 846.428 719.359, 798.521 768.072, 772.389 "
fill = "none" stroke = "black"/>
</g>
<g>
<polygon points = "942.766, 780.457 912.834, 732.963 923.850, 701.962 930.363, 698.172 1000.000, 707.162 1000.000, 775.592 "
fill = "none" stroke = "black"/>
</g>
<g>
<polygon points = "82.584, 830.679 100.953, 830.776 137.756, 870.805 122.183, 915.162 79.297, 924.476 55.036, 864.707 "
fill = "none" stroke = "black"/>
</g>
<g>
<polygon points = "134.585, 673.144 81.636, 690.222 58.130, 652.148 77.755, 610.264 135.548, 624.250 "
fill = "none" stroke = "black"/>
</g>
<g>
<polygon points = "293.082, 311.590 319.027, 320.291 336.089, 372.983 311.453, 401.252 284.476, 402.707 257.690, 354.800 "
fill = "none" stroke = "black"/>
</g>
<g>
<polygon points = "833.317, 378.183 809.352, 376.737 771.790, 335.292 800.081, 285.263 829.421, 279.536 851.118, 293.643 862.155, 346.180 "
fill = "none" stroke = "black"/>
</g>
<g>
<polygon points = "923.850, 701.962 860.728, 659.641 864.677, 640.303 923.779, 606.878 947.694, 625.544 930.363, 698.172 "
fill = "none" stroke = "black"/>
</g>
<g>
<polygon points = "446.305, 696.935 470.185, 720.367 459.425, 777.721 408.746, 788.313 387.164, 744.391 426.947, 695.253 "
fill = "none" stroke = "black"/>
</g>
<g>
<polygon points = "397.352, 661.454 426.947, 695.253 387.164, 744.391 344.725, 733.809 335.012, 707.956 361.878, 661.274 "
fill = "none" stroke = "black"/>
</g>
<g>
<polygon points = "135.793, 465.577 152.887, 459.155 203.544, 478.591 206.293, 484.683 188.997, 536.790 147.005, 547.039 125.006, 485.983 "
fill = "none" stroke = "black"/>
</g>
<g>
<polygon points = "939.576, 305.127 917.548, 354.080 862.155, 346.180 851.118, 293.643 913.288, 270.016 "
fill = "none" stroke = "black"/>
</g>
<g>
<polygon points = "414.422, 538.639 400.379, 582.794 355.978, 586.883 329.686, 554.856 346.497, 514.323 393.083, 511.774 "
fill = "none" stroke = "black"/>
</g>
<g>
<polygon points = "854.547, 932.672 877.976, 958.464 876.984, 1000.000 793.030, 1000.000 793.044, 997.885 829.001, 932.415 "
fill = "none" stroke = "black"/>
</g>
<g>
<polygon points = "680.827, 773.847 719.359, 798.521 722.301, 846.428 685.988, 865.596 647.258, 846.947 652.084, 789.909 "
fill = "none" stroke = "black"/>
</g>
<g>
<polygon points = "167.915, 90.387 144.029, 127.016 81.712, 117.944 80.659, 62.421 88.951, 51.764 155.575, 63.473 "
fill = "none" stroke = "black"/>
</g>
<g>
<polygon points = "651.427, 569.286 626.550, 619.015 607.384, 623.578 557.157, 585.442 552.071, 559.233 554.659, 554.765 630.114, 530.898 "
fill = "none" stroke = "black"/>
</g>
<g>
<polygon points = "491.697, 194.194 477.416, 144.401 502.947, 122.574 551.465, 133.053 565.557, 167.473 529.611, 205.690 "
fill = "none" stroke = "black"/>
</g>
<g>
<polygon points = "374.082, 292.387 380.248, 295.933 395.575, 369.429 386.015, 377.108 336.089, 372.983 319.027, 320.291 "
fill = "none" stroke = "black"/>
</g>
<g>
<polygon points = "86.194, 196.278 83.976, 238.382 65.446, 252.917 0.000, 240.135 0.000, 188.986 71.616, 179.496 "
fill = "none" stroke = "black"/>
</g>
<g>
<polygon points = "519.536, 716.610 537.896, 739.602 527.831, 786.387 486.798, 799.494 459.425, 777.721 470.185, 720.367 "
fill = "none" stroke = "black"/>
</g>
<g>
<polygon points = "83.976, 238.382 134.515, 262.351 137.254, 306.181 72.779, 323.306 61.830, 312.222 65.446, 252.917 "
fill = "none" stroke = "black"/>
</g>
<g>
<polygon points = "290.243, 632.512 276.902, 689.133 262.633, 697.546 210.460, 667.207 210.448, 620.609 216.779, 614.754 278.025, 617.802 "
fill = "none" stroke = "black"/>
</g>
<g>
<polygon points = "267.422, 542.473 219.300, 561.319 188.997, 536.790 206.293, 484.683 265.891, 501.830 "
fill = "none" stroke = "black"/>
</g>
<g>
<polygon points = "948.364, 1000.000 876.984, 1000.000 877.976, 958.464 937.632, 935.489 "
fill = "none" stroke = "black"/>
</g>
<g>
<polygon points = "110.196, 386.586 95.892, 423.847 63.740, 433.189 29.131, 388.428 73.030, 354.078 "
fill = "none" stroke = "black"/>
</g>
<g>
<polygon points = "284.476, 402.707 311.453, 401.252 342.467, 447.170 324.839, 481.404 285.055, 481.962 264.255, 427.013 "
fill = "none" stroke = "black"/>
</g>
<g>
<polygon points = "452.636, 53.001 424.639, 79.913 374.254, 78.205 369.499, 73.901 368.005, 0.000 448.059, 0.000 "
fill = "none" stroke = "black"/>
</g>
<g>
<polygon points = "881.835, 818.816 862.663, 856.635 821.506, 858.488 797.383, 833.405 799.269, 802.692 853.133, 779.342 "
fill = "none" stroke = "black"/>
</g>
<g>
<polygon points = "624.079, 52.606 597.829, 83.575 583.955, 85.387 537.022, 47.380 540.460, 0.000 620.109, 0.000 "
fill = "none" stroke = "black"/>
</g>
<g>
<polygon points = "833.317, 378.183 859.007, 424.945 825.069, 476.204 770.089, 446.803 765.063, 430.681 809.352, 376.737 "
fill = "none" stroke = "black"/>
</g>
<g>
<polygon points = "923.172, 815.167 881.835, 818.816 853.133, 779.342 858.694, 753.024 912.834, 732.963 942.766, 780.457 "
fill = "none" stroke = "black"/>
</g>
<g>
<polygon points = "402.958, 937.122 400.494, 1000.000 325.931, 1000.000 323.177, 947.694 378.658, 914.031 "
fill = "none" stroke = "black"/>
</g>
<g>
<polygon points = "71.616, 179.496 0.000, 188.986 0.000, 117.465 74.533, 125.560 "
fill = "none" stroke = "black"/>
</g>
<g>
<polygon points = "749.148, 337.284 715.396, 397.648 659.295, 358.614 660.297, 343.516 714.314, 309.384 "
fill = "none" stroke = "black"/>
</g>
<g>
<polygon points = "166.837, 699.486 210.460, 667.207 262.633, 697.546 252.850, 733.627 215.059, 752.366 167.615, 717.001 "
fill = "none" stroke = "black"/>
</g>
<g>
<polygon points = "130.508, 756.619 167.615, 717.001 215.059, 752.366 207.317, 795.285 185.927, 807.550 138.602, 788.025 "
fill = "none" stroke = "black"/>
</g>
<g>
<polygon points = "619.757, 922.839 597.185, 951.011 541.397, 943.831 532.089, 929.037 545.006, 890.727 608.509, 894.636 "
fill = "none" stroke = "black"/>
</g>
<g>
<polygon points = "760.488, 910.674 745.239, 857.544 797.383, 833.405 821.506, 858.488 805.385, 907.404 "
fill = "none" stroke = "black"/>
</g>
<g>
<polygon points = "947.694, 625.544 923.779, 606.878 918.535, 574.841 945.885, 539.620 1000.000, 539.752 1000.000, 621.504 "
fill = "none" stroke = "black"/>
</g>
<g>
<polygon points = "932.004, 381.177 909.490, 429.693 859.007, 424.945 833.317, 378.183 862.155, 346.180 917.548, 354.080 "
fill = "none" stroke = "black"/>
</g>
<g>
<polygon points = "486.798, 799.494 527.831, 786.387 567.978, 818.566 536.282, 868.945 481.202, 853.312 "
fill = "none" stroke = "black"/>
</g>
<g>
<polygon points = "542.347, 488.816 578.681, 462.583 599.840, 465.762 631.849, 523.698 630.114, 530.898 554.659, 554.765 "
fill = "none" stroke = "black"/>
</g>
<g>
<polygon points = "678.980, 446.495 689.866, 487.136 631.849, 523.698 599.840, 465.762 636.775, 432.970 "
fill = "none" stroke = "black"/>
</g>
<g>
<polygon points = "717.132, 404.965 678.980, 446.495 636.775, 432.970 626.918, 387.491 659.295, 358.614 715.396, 397.648 "
fill = "none" stroke = "black"/>
</g>
<g>
<polygon points = "466.781, 531.900 414.422, 538.639 393.083, 511.774 411.965, 458.129 428.361, 454.882 477.491, 494.072 "
fill = "none" stroke = "black"/>
</g>
<g>
<polygon points = "49.832, 461.579 72.856, 498.151 63.042, 525.619 0.000, 531.151 0.000, 467.139 "
fill = "none" stroke = "black"/>
</g>
<g>
<polygon points = "82.584, 830.679 55.036, 864.707 0.000, 864.331 0.000, 789.679 54.478, 790.040 "
fill = "none" stroke = "black"/>
</g>
<g>
<polygon points = "584.109, 376.838 626.918, 387.491 636.775, 432.970 599.840, 465.762 578.681, 462.583 555.363, 404.487 "
fill = "none" stroke = "black"/>
</g>
<g>
<polygon points = "825.069, 476.204 829.539, 492.199 780.535, 538.441 732.032, 520.742 725.919, 505.513 770.089, 446.803 "
fill = "none" stroke = "black"/>
</g>
<g>
<polygon points = "725.919, 505.513 732.032, 520.742 703.065, 574.300 651.427, 569.286 630.114, 530.898 631.849, 523.698 689.866, 487.136 "
fill = "none" stroke = "black"/>
</g>
<g>
<polygon points = "653.311, 703.198 670.052, 656.209 700.049, 647.932 741.854, 685.551 739.602, 711.940 685.291, 736.063 "
fill = "none" stroke = "black"/>
</g>
<g>
<polygon points = "203.544, 478.591 228.808, 429.483 264.255, 427.013 285.055, 481.962 265.891, 501.830 206.293, 484.683 "
fill = "none" stroke = "black"/>
</g>
<g>
<polygon points = "222.329, 353.394 257.690, 354.800 284.476, 402.707 264.255, 427.013 228.808, 429.483 198.635, 393.977 "
fill = "none" stroke = "black"/>
</g>
<g>
<polygon points = "910.683, 137.507 941.459, 154.465 944.426, 221.029 918.228, 237.446 873.290, 206.952 885.825, 149.547 "
fill = "none" stroke = "black"/>
</g>
<g>
<polygon points = "238.555, 81.144 292.920, 78.104 296.797, 81.180 303.594, 147.917 252.297, 173.840 229.648, 156.776 221.679, 97.285 "
fill = "none" stroke = "black"/>
</g>
<g>
<polygon points = "689.242, 103.121 646.811, 140.499 642.260, 140.306 597.829, 83.575 624.079, 52.606 688.357, 70.498 "
fill = "none" stroke = "black"/>
</g>
<g>
<polygon points = "855.878, 61.928 825.268, 89.975 779.621, 77.473 773.054, 65.899 784.898, 0.000 850.224, 0.000 "
fill = "none" stroke = "black"/>
</g>
<g>
<polygon points = "206.910, 245.273 219.312, 279.172 199.406, 315.968 151.144, 318.805 137.254, 306.181 134.515, 262.351 172.502, 231.504 "
fill = "none" stroke = "black"/>
</g>
<g>
<polygon points = "79.297, 924.476 122.183, 915.162 157.314, 946.319 153.331, 1000.000 79.616, 1000.000 73.439, 932.387 "
fill = "none" stroke = "black"/>
</g>
<g>
<polygon points = "252.297, 173.840 303.594, 147.917 335.458, 162.944 337.310, 227.431 297.678, 240.379 253.582, 202.703 "
fill = "none" stroke = "black"/>
</g>
<g>
<polygon points = "336.089, 372.983 386.015, 377.108 383.885, 438.132 342.467, 447.170 311.453, 401.252 "
fill = "none" stroke = "black"/>
</g>
<g>
<polygon points = "292.920, 78.104 238.555, 81.144 215.615, 0.000 295.935, 0.000 "
fill = "none" stroke = "black"/>
</g>
<g>
<polygon points = "414.235, 210.540 408.730, 165.611 445.845, 138.610 477.416, 144.401 491.697, 194.194 450.443, 231.591 "
fill = "none" stroke = "black"/>
</g>
<g>
<polygon points = "122.183, 915.162 137.756, 870.805 178.457, 859.815 207.869, 883.544 207.494, 922.472 157.314, 946.319 "
fill = "none" stroke = "black"/>
</g>
<g>
<polygon points = "400.379, 582.794 421.074, 608.811 397.352, 661.454 361.878, 661.274 338.652, 630.148 355.978, 586.883 "
fill = "none" stroke = "black"/>
</g>
<g>
<polygon points = "657.359, 932.326 619.757, 922.839 608.509, 894.636 622.123, 858.348 647.258, 846.947 685.988, 865.596 685.074, 917.149 "
fill = "none" stroke = "black"/>
</g>
<g>
<polygon points = "910.683, 137.507 885.825, 149.547 835.996, 130.294 825.268, 89.975 855.878, 61.928 915.911, 79.727 "
fill = "none" stroke = "black"/>
</g>
<g>
<polygon points = "240.372, 948.269 240.124, 1000.000 153.331, 1000.000 157.314, 946.319 207.494, 922.472 "
fill = "none" stroke = "black"/>
</g>
<g>
<circle cx = "104.178" cy = "523.263" r="5"/></g>
<g>
<circle cx = "253.012" cy = "249.897" r="5"/></g>
<g>
<circle cx = "958.764" cy = "421.679" r="5"/></g>
<g>
<circle cx = "89.830" cy = "461.770" r="5"/></g>
<g>
<circle cx = "38.610" cy = "967.894" r="5"/></g>
<g>
<circle cx = "731.202" cy = "89.580" r="5"/></g>
<g>
<circle cx = "541.890" cy = "362.793" r="5"/></g>
<g>
<circle cx = "751.343" cy = "189.694" r="5"/></g>
<g>
<circle cx = "37.077" cy = "686.994" r="5"/></g>
<g>
<circle cx = "744.328" cy = "640.149" r="5"/></g>
<g>
<circle cx = "963.594" cy = "344.318" r="5"/></g>
<g>
<circle cx = "41.567" cy = "90.931" r="5"/></g>
<g>
<circle cx = "442.753" cy = "570.966" r="5"/></g>
<g>
<circle cx = "299.338" cy = "831.829" r="5"/></g>
<g>
<circle cx = "894.679" cy = "923.157" r="5"/></g>
<g>
<circle cx = "492.563" cy = "680.779" r="5"/></g>
<g>
<circle cx = "427.149" cy = "898.409" r="5"/></g>
<g>
<circle cx = "34.623" cy = "618.909" r="5"/></g>
<g>
<circle cx = "963.810" cy = "497.172" r="5"/></g>
<g>
<circle cx = "126.898" cy = "219.718" r="5"/></g>
<g>
<circle cx = "113.319" cy = "346.065" r="5"/></g>
<g>
<circle cx = "620.376" cy = "262.946" r="5"/></g>
<g>
<circle cx = "871.719" cy = "707.815" r="5"/></g>
<g>
<circle cx = "535.964" cy = "93.229" r="5"/></g>
<g>
<circle cx = "878.152" cy = "596.142" r="5"/></g>
<g>
<circle cx = "377.831" cy = "849.030" r="5"/></g>
<g>
<circle cx = "505.540" cy = "965.077" r="5"/></g>
<g>
<circle cx = "498.628" cy = "236.418" r="5"/></g>
<g>
<circle cx = "845.345" cy = "173.597" r="5"/></g>
<g>
<circle cx = "248.656" cy = "902.476" r="5"/></g>
<g>
<circle cx = "315.248" cy = "595.763" r="5"/></g>
<g>
<circle cx = "725.229" cy = "756.418" r="5"/></g>
<g>
<circle cx = "326.564" cy = "275.751" r="5"/></g>
<g>
<circle cx = "674.401" cy = "611.009" r="5"/></g>
<g>
<circle cx = "111.049" cy = "156.422" r="5"/></g>
<g>
<circle cx = "967.272" cy = "817.917" r="5"/></g>
<g>
<circle cx = "415.977" cy = "410.978" r="5"/></g>
<g>
<circle cx = "494.388" cy = "30.481" r="5"/></g>
<g>
<circle cx = "179.230" cy = "356.020" r="5"/></g>
<g>
<circle cx = "642.493" cy = "188.931" r="5"/></g>
<g>
<circle cx = "447.114" cy = "820.460" r="5"/></g>
<g>
<circle cx = "904.787" cy = "855.346" r="5"/></g>
<g>
<circle cx = "337.533" cy = "115.420" r="5"/></g>
<g>
<circle cx = "171.380" cy = "650.371" r="5"/></g>
<g>
<circle cx = "114.080" cy = "585.451" r="5"/></g>
<g>
<circle cx = "465.874" cy = "98.555" r="5"/></g>
<g>
<circle cx = "197.933" cy = "54.064" r="5"/></g>
<g>
<circle cx = "876.268" cy = "466.955" r="5"/></g>
<g>
<circle cx = "823.831" cy = "545.003" r="5"/></g>
<g>
<circle cx = "594.198" cy = "132.923" r="5"/></g>
<g>
<circle cx = "742.154" cy = "29.055" r="5"/></g>
<g>
<circle cx = "303.737" cy = "520.092" r="5"/></g>
<g>
<circle cx = "404.840" cy = "120.606" r="5"/></g>
<g>
<circle cx = "752.738" cy = "291.170" r="5"/></g>
<g>
<circle cx = "745.205" cy = "971.074" r="5"/></g>
<g>
<circle cx = "502.134" cy = "895.776" r="5"/></g>
<g>
<circle cx = "479.177" cy = "300.774" r="5"/></g>
<g>
<circle cx = "954.627" cy = "112.000" r="5"/></g>
<g>
<circle cx = "131.737" cy = "27.218" r="5"/></g>
<g>
<circle cx = "473.712" cy = "449.961" r="5"/></g>
<g>
<circle cx = "372.576" cy = "192.694" r="5"/></g>
<g>
<circle cx = "249.225" cy = "778.251" r="5"/></g>
<g>
<circle cx = "569.083" cy = "974.984" r="5"/></g>
<g>
<circle cx = "749.360" cy = "569.194" r="5"/></g>
<g>
<circle cx = "695.021" cy = "146.832" r="5"/></g>
<g>
<circle cx = "842.021" cy = "893.377" r="5"/></g>
<g>
<circle cx = "641.709" cy = "746.552" r="5"/></g>
<g>
<circle cx = "329.936" cy = "39.544" r="5"/></g>
<g>
<circle cx = "297.587" cy = "731.857" r="5"/></g>
<g>
<circle cx = "784.870" cy = "700.286" r="5"/></g>
<g>
<circle cx = "44.613" cy = "30.147" r="5"/></g>
<g>
<circle cx = "819.079" cy = "633.051" r="5"/></g>
<g>
<circle cx = "216.902" cy = "839.494" r="5"/></g>
<g>
<circle cx = "282.696" cy = "967.616" r="5"/></g>
<g>
<circle cx = "572.824" cy = "211.758" r="5"/></g>
<g>
<circle cx = "760.737" cy = "382.063" r="5"/></g>
<g>
<circle cx = "626.076" cy = "667.528" r="5"/></g>
<g>
<circle cx = "134.050" cy = "419.491" r="5"/></g>
<g>
<circle cx = "554.199" cy = "290.589" r="5"/></g>
<g>
<circle cx = "187.791" cy = "133.112" r="5"/></g>
<g>
<circle cx = "562.758" cy = "704.639" r="5"/></g>
<g>
<circle cx = "536.069" cy = "443.828" r="5"/></g>
<g>
<circle cx = "439.285" cy = "648.442" r="5"/></g>
<g>
<circle cx = "509.911" cy = "594.231" r="5"/></g>
<g>
<circle cx = "35.208" cy = "752.507" r="5"/></g>
<g>
<circle cx = "672.827" cy = "300.053" r="5"/></g>
<g>
<circle cx = "965.560" cy = "38.585" r="5"/></g>
<g>
<circle cx = "476.549" cy = "375.750" r="5"/></g>
<g>
<circle cx = "615.740" cy = "815.728" r="5"/></g>
<g>
<circle cx = "368.719" cy = "477.339" r="5"/></g>
<g>
<circle cx = "32.615" cy = "346.721" r="5"/></g>
<g>
<circle cx = "892.640" cy = "35.018" r="5"/></g>
<g>
<circle cx = "900.287" cy = "532.989" r="5"/></g>
<g>
<circle cx = "30.733" cy = "279.408" r="5"/></g>
<g>
<circle cx = "408.315" cy = "255.472" r="5"/></g>
<g>
<circle cx = "698.425" cy = "235.851" r="5"/></g>
<g>
<circle cx = "34.204" cy = "901.819" r="5"/></g>
<g>
<circle cx = "960.014" cy = "263.955" r="5"/></g>
<g>
<circle cx = "25.165" cy = "430.091" r="5"/></g>
<g>
<circle cx = "567.200" cy = "770.935" r="5"/></g>
<g>
<circle cx = "615.085" cy = "344.898" r="5"/></g>
<g>
<circle cx = "318.709" cy = "666.650" r="5"/></g>
<g>
<circle cx = "328.934" cy = "902.945" r="5"/></g>
<g>
<circle cx = "789.281" cy = "943.175" r="5"/></g>
<g>
<circle cx = "119.617" cy = "713.745" r="5"/></g>
<g>
<circle cx = "511.622" cy = "522.271" r="5"/></g>
<g>
<circle cx = "206.535" cy = "198.941" r="5"/></g>
<g>
<circle cx = "560.640" cy = "633.373" r="5"/></g>
<g>
<circle cx = "972.237" cy = "963.766" r="5"/></g>
<g>
<circle cx = "38.033" cy = "558.365" r="5"/></g>
<g>
<circle cx = "722.163" cy = "453.962" r="5"/></g>
<g>
<circle cx = "96.329" cy = "784.700" r="5"/></g>
<g>
<circle cx = "579.511" cy = "864.787" r="5"/></g>
<g>
<circle cx = "973.216" cy = "185.579" r="5"/></g>
<g>
<circle cx = "252.904" cy = "582.585" r="5"/></g>
<g>
<circle cx = "870.461" cy = "250.375" r="5"/></g>
<g>
<circle cx = "417.186" cy = "328.497" r="5"/></g>
<g>
<circle cx = "190.026" cy = "435.728" r="5"/></g>
<g>
<circle cx = "183.843" cy = "579.327" r="5"/></g>
<g>
<circle cx = "791.920" cy = "125.844" r="5"/></g>
<g>
<circle cx = "965.332" cy = "894.793" r="5"/></g>
<g>
<circle cx = "812.278" cy = "760.710" r="5"/></g>
<g>
<circle cx = "801.598" cy = "237.577" r="5"/></g>
<g>
<circle cx = "688.017" cy = "960.677" r="5"/></g>
<g>
<circle cx = "244.252" cy = "316.195" r="5"/></g>
<g>
<circle cx = "359.650" cy = "778.564" r="5"/></g>
<g>
<circle cx = "147.244" cy = "829.539" r="5"/></g>
<g>
<circle cx = "663.658" cy = "30.625" r="5"/></g>
<g>
<circle cx = "631.369" cy = "965.009" r="5"/></g>
<g>
<circle cx = "721.060" cy = "892.485" r="5"/></g>
<g>
<circle cx = "438.229" cy = "966.102" r="5"/></g>
<g>
<circle cx = "970.076" cy = "665.976" r="5"/></g>
<g>
<circle cx = "757.683" cy = "816.916" r="5"/></g>
<g>
<circle cx = "960.598" cy = "739.399" r="5"/></g>
<g>
<circle cx = "95.841" cy = "876.800" r="5"/></g>
<g>
<circle cx = "98.715" cy = "648.940" r="5"/></g>
<g>
<circle cx = "298.186" cy = "360.370" r="5"/></g>
<g>
<circle cx = "819.419" cy = "328.879" r="5"/></g>
<g>
<circle cx = "909.467" cy = "651.513" r="5"/></g>
<g>
<circle cx = "431.026" cy = "743.490" r="5"/></g>
<g>
<circle cx = "378.916" cy = "701.302" r="5"/></g>
<g>
<circle cx = "164.826" cy = "501.412" r="5"/></g>
<g>
<circle cx = "894.315" cy = "313.144" r="5"/></g>
<g>
<circle cx = "372.622" cy = "548.662" r="5"/></g>
<g>
<circle cx = "841.232" cy = "971.708" r="5"/></g>
<g>
<circle cx = "683.575" cy = "821.467" r="5"/></g>
<g>
<circle cx = "120.803" cy = "89.428" r="5"/></g>
<g>
<circle cx = "604.262" cy = "575.921" r="5"/></g>
<g>
<circle cx = "520.910" cy = "162.929" r="5"/></g>
<g>
<circle cx = "359.404" cy = "340.546" r="5"/></g>
<g>
<circle cx = "43.251" cy = "215.312" r="5"/></g>
<g>
<circle cx = "498.299" cy = "756.111" r="5"/></g>
<g>
<circle cx = "96.683" cy = "283.430" r="5"/></g>
<g>
<circle cx = "249.531" cy = "650.351" r="5"/></g>
<g>
<circle cx = "229.526" cy = "522.888" r="5"/></g>
<g>
<circle cx = "914.046" cy = "973.447" r="5"/></g>
<g>
<circle cx = "70.451" cy = "395.076" r="5"/></g>
<g>
<circle cx = "302.660" cy = "443.323" r="5"/></g>
<g>
<circle cx = "407.640" cy = "37.972" r="5"/></g>
<g>
<circle cx = "838.802" cy = "821.897" r="5"/></g>
<g>
<circle cx = "581.649" cy = "36.814" r="5"/></g>
<g>
<circle cx = "813.592" cy = "425.458" r="5"/></g>
<g>
<circle cx = "898.033" cy = "778.830" r="5"/></g>
<g>
<circle cx = "365.527" cy = "963.254" r="5"/></g>
<g>
<circle cx = "34.901" cy = "152.304" r="5"/></g>
<g>
<circle cx = "704.930" cy = "350.859" r="5"/></g>
<g>
<circle cx = "215.134" cy = "709.502" r="5"/></g>
<g>
<circle cx = "174.003" cy = "764.682" r="5"/></g>
<g>
<circle cx = "576.069" cy = "920.703" r="5"/></g>
<g>
<circle cx = "784.267" cy = "874.344" r="5"/></g>
<g>
<circle cx = "963.603" cy = "582.155" r="5"/></g>
<g>
<circle cx = "883.797" cy = "386.890" r="5"/></g>
<g>
<circle cx = "521.319" cy = "828.175" r="5"/></g>
<g>
<circle cx = "583.073" cy = "508.932" r="5"/></g>
<g>
<circle cx = "645.311" cy = "474.547" r="5"/></g>
<g>
<circle cx = "667.886" cy = "404.099" r="5"/></g>
<g>
<circle cx = "433.644" cy = "500.192" r="5"/></g>
<g>
<circle cx = "32.713" cy = "497.729" r="5"/></g>
<g>
<circle cx = "34.713" cy = "827.314" r="5"/></g>
<g>
<circle cx = "596.502" cy = "419.571" r="5"/></g>
<g>
<circle cx = "776.492" cy = "494.836" r="5"/></g>
<g>
<circle cx = "681.998" cy = "532.762" r="5"/></g>
<g>
<circle cx = "696.964" cy = "692.784" r="5"/></g>
<g>
<circle cx = "246.276" cy = "464.667" r="5"/></g>
<g>
<circle cx = "241.228" cy = "392.216" r="5"/></g>
<g>
<circle cx = "912.596" cy = "188.282" r="5"/></g>
<g>
<circle cx = "263.801" cy = "122.930" r="5"/></g>
<g>
<circle cx = "646.609" cy = "91.875" r="5"/></g>
<g>
<circle cx = "814.850" cy = "42.120" r="5"/></g>
<g>
<circle cx = "174.676" cy = "278.556" r="5"/></g>
<g>
<circle cx = "114.126" cy = "960.995" r="5"/></g>
<g>
<circle cx = "300.109" cy = "194.775" r="5"/></g>
<g>
<circle cx = "353.765" cy = "408.806" r="5"/></g>
<g>
<circle cx = "258.986" cy = "36.804" r="5"/></g>
<g>
<circle cx = "450.353" cy = "183.165" r="5"/></g>
<g>
<circle cx = "166.725" cy = "901.686" r="5"/></g>
<g>
<circle cx = "379.322" cy = "621.421" r="5"/></g>
<g>
<circle cx = "649.985" cy = "891.225" r="5"/></g>
<g>
<circle cx = "872.032" cy = "104.527" r="5"/></g>
<g>
<circle cx = "197.864" cy = "967.209" r="5"/></g>
</svg>
