<svg xmlns = "http://www.w3.org/2000/svg" width = "1000" height = "1000">
<g>
<polygon points = "83.372, 516.206 153.582, 501.533 122.887, 554.172 101.123, 577.425 71.718, 554.618 "
fill = "none" stroke = "black"/>
</g>
<g>
<polygon points = "187.852, 337.607 170.665, 330.952 174.257, 295.902 187.385, 242.507 241.982, 218.298 282.349, 282.685 269.712, 329.159 "
fill = "none" stroke = "black"/>
</g>
<g>
<polygon points = "983.562, 530.591 899.872, 498.809 887.920, 433.251 938.111, 370.110 956.727, 363.226 1000.000, 372.079 1000.000, 532.289 "
fill = "none" stroke = "black"/>
</g>
<g>
<polygon points = "77.508, 437.251 75.223, 490.194 17.352, 468.101 6.429, 440.620 "
fill = "none" stroke = "black"/>
</g>
<g>
<polygon points = "31.546, 919.885 66.647, 943.694 81.217, 987.833 78.574, 1000.000 0.000, 1000.000 0.000, 928.195 "
fill = "none" stroke = "black"/>
</g>
<g>
<polygon points = "661.722, 114.393 669.080, 67.223 682.298, 49.727 779.652, 112.390 780.120, 116.045 685.451, 116.690 661.700, 115.121 "
fill = "none" stroke = "black"/>
</g>
<g>
<polygon points = "519.257, 379.190 489.481, 379.923 492.509, 352.848 535.721, 294.497 576.858, 345.685 "
fill = "none" stroke = "black"/>
</g>
<g>
<polygon points = "745.247, 191.315 734.131, 249.633 721.625, 257.304 670.955, 223.799 688.970, 201.790 "
fill = "none" stroke = "black"/>
</g>
<g>
<polygon points = "75.908, 651.006 103.145, 689.989 102.446, 692.517 0.000, 734.976 0.000, 615.318 "
fill = "none" stroke = "black"/>
</g>
<g>
<polygon points = "706.480, 665.041 719.678, 620.788 773.811, 590.742 811.110, 662.730 744.466, 684.726 "
fill = "none" stroke = "black"/>
</g>
<g>
<polygon points = "956.727, 363.226 951.123, 347.283 941.295, 230.627 942.097, 221.280 956.175, 208.348 1000.000, 193.599 1000.000, 372.079 "
fill = "none" stroke = "black"/>
</g>
<g>
<polygon points = "20.119, 79.658 68.359, 49.611 123.460, 104.727 120.793, 114.425 89.515, 174.250 87.277, 177.655 72.777, 174.793 "
fill = "none" stroke = "black"/>
</g>
<g>
<polygon points = "405.767, 503.387 473.138, 516.842 515.765, 558.598 448.492, 566.421 "
fill = "none" stroke = "black"/>
</g>
<g>
<polygon points = "235.636, 802.719 326.810, 805.108 345.881, 832.517 340.316, 837.982 282.575, 870.450 249.572, 861.425 246.513, 856.156 "
fill = "none" stroke = "black"/>
</g>
<g>
<polygon points = "939.727, 945.704 921.807, 999.883 921.730, 1000.000 864.381, 1000.000 849.491, 973.432 872.336, 899.040 876.618, 897.571 927.803, 900.095 "
fill = "none" stroke = "black"/>
</g>
<g>
<polygon points = "529.043, 601.859 533.713, 630.031 528.058, 727.804 498.766, 732.198 469.457, 713.757 455.197, 673.343 471.163, 650.366 "
fill = "none" stroke = "black"/>
</g>
<g>
<polygon points = "419.670, 883.699 482.120, 865.121 539.424, 885.680 522.891, 905.755 427.978, 1000.000 415.180, 1000.000 "
fill = "none" stroke = "black"/>
</g>
<g>
<polygon points = "71.718, 554.618 101.123, 577.425 106.745, 582.272 106.307, 589.670 75.908, 651.006 0.000, 615.318 0.000, 584.794 "
fill = "none" stroke = "black"/>
</g>
<g>
<polygon points = "882.079, 565.470 877.357, 527.534 899.872, 498.809 983.562, 530.591 "
fill = "none" stroke = "black"/>
</g>
<g>
<polygon points = "113.073, 235.094 59.053, 268.068 30.181, 188.396 72.777, 174.793 87.277, 177.655 119.367, 228.323 "
fill = "none" stroke = "black"/>
</g>
<g>
<polygon points = "82.225, 363.580 79.835, 357.778 104.516, 307.922 174.257, 295.902 170.665, 330.952 121.525, 392.717 111.849, 392.244 "
fill = "none" stroke = "black"/>
</g>
<g>
<polygon points = "653.728, 285.236 652.828, 286.738 604.969, 278.762 581.986, 236.168 650.721, 241.296 "
fill = "none" stroke = "black"/>
</g>
<g>
<polygon points = "933.215, 683.631 936.636, 696.965 862.700, 770.598 851.313, 769.080 850.371, 767.082 827.454, 667.783 866.482, 638.520 874.950, 634.867 "
fill = "none" stroke = "black"/>
</g>
<g>
<polygon points = "461.889, 144.445 469.153, 120.873 504.573, 95.670 558.094, 84.159 581.280, 118.223 570.594, 178.201 "
fill = "none" stroke = "black"/>
</g>
<g>
<polygon points = "889.331, 609.582 874.950, 634.867 866.482, 638.520 812.239, 570.022 825.272, 563.360 881.665, 566.804 "
fill = "none" stroke = "black"/>
</g>
<g>
<polygon points = "392.180, 841.920 416.259, 799.971 434.242, 796.252 497.643, 817.912 482.120, 865.121 419.670, 883.699 "
fill = "none" stroke = "black"/>
</g>
<g>
<polygon points = "520.501, 991.270 574.902, 912.281 600.491, 923.982 564.951, 1000.000 515.128, 1000.000 "
fill = "none" stroke = "black"/>
</g>
<g>
<polygon points = "534.932, 290.763 465.856, 280.819 468.859, 226.482 559.368, 215.868 562.436, 216.267 566.543, 228.306 "
fill = "none" stroke = "black"/>
</g>
<g>
<polygon points = "817.359, 119.387 893.066, 128.239 922.606, 144.183 883.412, 199.634 829.921, 204.348 788.776, 150.416 788.129, 127.853 "
fill = "none" stroke = "black"/>
</g>
<g>
<polygon points = "168.758, 909.333 181.450, 873.480 192.448, 859.031 246.513, 856.156 249.572, 861.425 207.798, 925.874 "
fill = "none" stroke = "black"/>
</g>
<g>
<polygon points = ""
fill = "none" stroke = "black"/>
</g>
<g>
<polygon points = "737.433, 742.190 744.861, 785.415 707.357, 803.723 668.982, 771.098 659.042, 740.844 "
fill = "none" stroke = "black"/>
</g>
<g>
<polygon points = "381.375, 308.047 382.899, 323.269 281.451, 382.726 269.503, 364.747 269.712, 329.159 282.349, 282.685 "
fill = "none" stroke = "black"/>
</g>
<g>
<polygon points = "666.677, 675.470 604.033, 558.158 613.881, 550.826 680.949, 561.414 719.678, 620.788 706.480, 665.041 "
fill = "none" stroke = "black"/>
</g>
<g>
<polygon points = "164.564, 156.717 89.515, 174.250 120.793, 114.425 "
fill = "none" stroke = "black"/>
</g>
<g>
<polygon points = "933.006, 894.048 930.881, 875.422 990.409, 792.155 1000.000, 790.746 1000.000, 876.323 "
fill = "none" stroke = "black"/>
</g>
<g>
<polygon points = "393.551, 482.778 368.384, 443.943 373.417, 396.548 395.782, 370.013 432.402, 385.695 464.683, 402.987 467.920, 419.687 454.747, 439.937 405.002, 476.827 "
fill = "none" stroke = "black"/>
</g>
<g>
<polygon points = "558.094, 84.159 504.573, 95.670 446.829, 24.592 448.512, 0.000 574.356, 0.000 "
fill = "none" stroke = "black"/>
</g>
<g>
<polygon points = "227.840, 375.124 193.917, 413.158 153.214, 418.008 121.525, 392.717 170.665, 330.952 187.852, 337.607 "
fill = "none" stroke = "black"/>
</g>
<g>
<polygon points = "659.560, 234.087 637.434, 190.021 657.486, 172.852 683.005, 195.280 688.970, 201.790 670.955, 223.799 "
fill = "none" stroke = "black"/>
</g>
<g>
<polygon points = "488.576, 765.046 506.294, 809.040 497.643, 817.912 434.242, 796.252 "
fill = "none" stroke = "black"/>
</g>
<g>
<polygon points = "896.076, 793.214 906.717, 796.800 930.881, 875.422 933.006, 894.048 927.803, 900.095 876.618, 897.571 "
fill = "none" stroke = "black"/>
</g>
<g>
<polygon points = "317.208, 147.436 320.013, 111.024 416.257, 77.609 446.236, 104.958 328.376, 153.171 "
fill = "none" stroke = "black"/>
</g>
<g>
<polygon points = ""
fill = "none" stroke = "black"/>
</g>
<g>
<polygon points = "106.745, 582.272 101.123, 577.425 122.887, 554.172 "
fill = "none" stroke = "black"/>
</g>
<g>
<polygon points = "420.363, 61.186 446.829, 24.592 504.573, 95.670 469.153, 120.873 446.236, 104.958 416.257, 77.609 "
fill = "none" stroke = "black"/>
</g>
<g>
<polygon points = "251.363, 50.073 201.496, 129.755 166.217, 90.952 178.395, 64.311 "
fill = "none" stroke = "black"/>
</g>
<g>
<polygon points = "877.357, 527.534 837.384, 514.090 813.589, 490.520 811.091, 479.006 870.422, 438.665 887.920, 433.251 899.872, 498.809 "
fill = "none" stroke = "black"/>
</g>
<g>
<polygon points = "777.957, 571.180 774.289, 563.746 813.589, 490.520 837.384, 514.090 825.272, 563.360 812.239, 570.022 "
fill = "none" stroke = "black"/>
</g>
<g>
<polygon points = "569.315, 194.525 570.594, 178.201 581.280, 118.223 645.085, 122.261 657.486, 172.852 637.434, 190.021 "
fill = "none" stroke = "black"/>
</g>
<g>
<polygon points = "779.652, 112.390 682.298, 49.727 675.796, 0.000 781.077, 0.000 "
fill = "none" stroke = "black"/>
</g>
<g>
<polygon points = ""
fill = "none" stroke = "black"/>
</g>
<g>
<polygon points = "328.376, 153.171 446.236, 104.958 469.153, 120.873 461.889, 144.445 461.320, 145.733 371.915, 178.593 "
fill = "none" stroke = "black"/>
</g>
<g>
<polygon points = "754.470, 273.455 722.600, 330.752 714.600, 333.008 700.564, 287.896 704.217, 272.821 721.625, 257.304 734.131, 249.633 "
fill = "none" stroke = "black"/>
</g>
<g>
<polygon points = "703.434, 958.833 749.871, 979.415 751.924, 983.351 748.951, 1000.000 674.839, 1000.000 "
fill = "none" stroke = "black"/>
</g>
<g>
<polygon points = "522.891, 905.755 539.424, 885.680 556.108, 884.700 574.902, 912.281 520.501, 991.270 "
fill = "none" stroke = "black"/>
</g>
<g>
<polygon points = "465.955, 316.266 454.086, 289.657 465.856, 280.819 534.932, 290.763 535.721, 294.497 492.509, 352.848 "
fill = "none" stroke = "black"/>
</g>
<g>
<polygon points = "923.987, 144.111 922.606, 144.183 893.066, 128.239 921.635, 79.829 973.137, 108.710 "
fill = "none" stroke = "black"/>
</g>
<g>
<polygon points = "166.633, 35.869 75.800, 25.058 74.599, 0.000 175.143, 0.000 "
fill = "none" stroke = "black"/>
</g>
<g>
<polygon points = "405.002, 476.827 454.747, 439.937 464.743, 499.548 "
fill = "none" stroke = "black"/>
</g>
<g>
<polygon points = "371.915, 178.593 461.320, 145.733 466.928, 159.895 464.846, 222.318 392.347, 218.244 "
fill = "none" stroke = "black"/>
</g>
<g>
<polygon points = "200.477, 791.644 235.636, 802.719 246.513, 856.156 192.448, 859.031 "
fill = "none" stroke = "black"/>
</g>
<g>
<polygon points = "601.607, 985.886 652.906, 1000.000 589.760, 1000.000 "
fill = "none" stroke = "black"/>
</g>
<g>
<polygon points = "734.458, 537.929 774.289, 563.746 777.957, 571.180 773.811, 590.742 719.678, 620.788 680.949, 561.414 "
fill = "none" stroke = "black"/>
</g>
<g>
<polygon points = "683.005, 195.280 657.486, 172.852 645.085, 122.261 661.700, 115.121 685.451, 116.690 "
fill = "none" stroke = "black"/>
</g>
<g>
<polygon points = "816.220, 959.297 795.335, 917.597 792.017, 867.699 802.062, 858.125 872.336, 899.040 849.491, 973.432 "
fill = "none" stroke = "black"/>
</g>
<g>
<polygon points = "587.963, 741.564 646.091, 724.244 659.042, 740.844 668.982, 771.098 629.764, 822.637 586.242, 806.144 "
fill = "none" stroke = "black"/>
</g>
<g>
<polygon points = "420.363, 61.186 416.257, 77.609 320.013, 111.024 296.477, 33.319 301.270, 0.000 340.078, 0.000 "
fill = "none" stroke = "black"/>
</g>
<g>
<polygon points = ""
fill = "none" stroke = "black"/>
</g>
<g>
<polygon points = "827.454, 667.783 850.371, 767.082 747.154, 720.545 744.466, 684.726 811.110, 662.730 "
fill = "none" stroke = "black"/>
</g>
<g>
<polygon points = "75.800, 25.058 68.359, 49.611 20.119, 79.658 0.000, 81.424 0.000, 0.000 74.599, 0.000 "
fill = "none" stroke = "black"/>
</g>
<g>
<polygon points = "777.957, 571.180 812.239, 570.022 866.482, 638.520 827.454, 667.783 811.110, 662.730 773.811, 590.742 "
fill = "none" stroke = "black"/>
</g>
<g>
<polygon points = "169.829, 849.770 179.274, 798.719 195.784, 789.378 200.477, 791.644 192.448, 859.031 181.450, 873.480 "
fill = "none" stroke = "black"/>
</g>
<g>
<polygon points = "207.798, 925.874 249.572, 861.425 282.575, 870.450 287.855, 1000.000 268.074, 1000.000 "
fill = "none" stroke = "black"/>
</g>
<g>
<polygon points = "566.543, 228.306 562.436, 216.267 569.315, 194.525 637.434, 190.021 659.560, 234.087 657.633, 236.958 650.721, 241.296 581.986, 236.168 "
fill = "none" stroke = "black"/>
</g>
<g>
<polygon points = "787.737, 393.211 763.931, 417.739 720.656, 411.512 687.395, 365.813 714.600, 333.008 722.600, 330.752 810.247, 337.759 "
fill = "none" stroke = "black"/>
</g>
<g>
<polygon points = "581.236, 738.024 578.110, 691.325 594.238, 664.731 661.578, 682.988 646.091, 724.244 587.963, 741.564 "
fill = "none" stroke = "black"/>
</g>
<g>
<polygon points = "75.561, 497.341 75.223, 490.194 77.508, 437.251 111.849, 392.244 121.525, 392.717 153.214, 418.008 166.987, 478.857 167.098, 487.260 153.582, 501.533 83.372, 516.206 "
fill = "none" stroke = "black"/>
</g>
<g>
<polygon points = "534.932, 290.763 566.543, 228.306 581.986, 236.168 604.969, 278.762 618.539, 362.088 576.858, 345.685 535.721, 294.497 "
fill = "none" stroke = "black"/>
</g>
<g>
<polygon points = "166.217, 90.952 201.496, 129.755 233.993, 186.473 164.564, 156.717 120.793, 114.425 123.460, 104.727 "
fill = "none" stroke = "black"/>
</g>
<g>
<polygon points = "578.110, 691.325 581.236, 738.024 540.951, 732.871 528.058, 727.804 533.713, 630.031 "
fill = "none" stroke = "black"/>
</g>
<g>
<polygon points = "567.072, 427.607 524.616, 461.915 467.920, 419.687 464.683, 402.987 489.481, 379.923 519.257, 379.190 "
fill = "none" stroke = "black"/>
</g>
<g>
<polygon points = "454.701, 673.286 455.121, 635.769 471.163, 650.366 455.197, 673.343 "
fill = "none" stroke = "black"/>
</g>
<g>
<polygon points = "455.121, 635.769 448.492, 566.421 515.765, 558.598 536.649, 563.487 542.557, 568.733 541.394, 573.320 529.043, 601.859 471.163, 650.366 "
fill = "none" stroke = "black"/>
</g>
<g>
<polygon points = "124.154, 733.824 101.119, 778.407 45.220, 816.080 0.000, 802.766 0.000, 734.976 102.446, 692.517 "
fill = "none" stroke = "black"/>
</g>
<g>
<polygon points = "704.217, 272.821 700.564, 287.896 653.728, 285.236 650.721, 241.296 657.633, 236.958 "
fill = "none" stroke = "black"/>
</g>
<g>
<polygon points = "973.137, 108.710 921.635, 79.829 909.178, 64.766 981.210, 0.000 1000.000, 0.000 1000.000, 106.268 "
fill = "none" stroke = "black"/>
</g>
<g>
<polygon points = "464.683, 402.987 432.402, 385.695 465.955, 316.266 492.509, 352.848 489.481, 379.923 "
fill = "none" stroke = "black"/>
</g>
<g>
<polygon points = "564.751, 826.383 586.242, 806.144 629.764, 822.637 646.180, 849.245 557.918, 879.864 "
fill = "none" stroke = "black"/>
</g>
<g>
<polygon points = "392.629, 487.159 341.305, 465.551 360.043, 446.106 368.384, 443.943 393.551, 482.778 "
fill = "none" stroke = "black"/>
</g>
<g>
<polygon points = "55.276, 329.134 79.835, 357.778 82.225, 363.580 0.000, 390.281 0.000, 322.971 "
fill = "none" stroke = "black"/>
</g>
<g>
<polygon points = "909.178, 64.766 894.826, 60.558 876.730, 0.000 981.210, 0.000 "
fill = "none" stroke = "black"/>
</g>
<g>
<polygon points = "837.384, 514.090 877.357, 527.534 882.079, 565.470 881.665, 566.804 825.272, 563.360 "
fill = "none" stroke = "black"/>
</g>
<g>
<polygon points = "55.703, 270.697 55.276, 329.134 0.000, 322.971 0.000, 252.779 "
fill = "none" stroke = "black"/>
</g>
<g>
<polygon points = "392.347, 218.244 464.846, 222.318 468.859, 226.482 465.856, 280.819 454.086, 289.657 387.002, 301.495 "
fill = "none" stroke = "black"/>
</g>
<g>
<polygon points = "704.217, 272.821 657.633, 236.958 659.560, 234.087 670.955, 223.799 721.625, 257.304 "
fill = "none" stroke = "black"/>
</g>
<g>
<polygon points = "31.546, 919.885 0.000, 928.195 0.000, 884.241 "
fill = "none" stroke = "black"/>
</g>
<g>
<polygon points = "871.661, 257.539 941.295, 230.627 951.123, 347.283 "
fill = "none" stroke = "black"/>
</g>
<g>
<polygon points = "6.429, 440.620 17.352, 468.101 20.944, 493.464 0.000, 510.184 0.000, 438.396 "
fill = "none" stroke = "black"/>
</g>
<g>
<polygon points = "526.503, 809.028 540.951, 732.871 581.236, 738.024 587.963, 741.564 586.242, 806.144 564.751, 826.383 "
fill = "none" stroke = "black"/>
</g>
<g>
<polygon points = "622.673, 470.458 543.103, 446.975 475.952, 392.505 458.454, 331.788 448.167, 290.701 463.424, 222.238 464.947, 219.310 494.984, 176.884 512.742, 160.236 574.779, 108.673 661.458, 113.604 661.839, 113.645 669.086, 115.609 685.272, 122.447 773.654, 164.625 807.473, 285.101 803.692, 337.235 755.927, 416.587 704.299, 450.030 "
fill = "none" stroke = "black"/>
</g>
<g>
<polygon points = "355.335, 649.784 355.201, 661.823 344.181, 680.777 255.431, 669.593 277.293, 606.918 329.373, 599.913 "
fill = "none" stroke = "black"/>
</g>
<g>
<polygon points = "282.575, 870.450 340.316, 837.982 305.150, 1000.000 287.855, 1000.000 "
fill = "none" stroke = "black"/>
</g>
<g>
<polygon points = "751.924, 983.351 749.871, 979.415 748.894, 946.113 795.335, 917.597 816.220, 959.297 "
fill = "none" stroke = "black"/>
</g>
<g>
<polygon points = "131.717, 667.988 161.129, 668.816 215.392, 704.040 209.209, 755.902 124.154, 733.824 102.446, 692.517 103.145, 689.989 "
fill = "none" stroke = "black"/>
</g>
<g>
<polygon points = "464.743, 499.548 454.747, 439.937 467.920, 419.687 524.616, 461.915 536.649, 563.487 515.765, 558.598 473.138, 516.842 "
fill = "none" stroke = "black"/>
</g>
<g>
<polygon points = "164.564, 156.717 233.993, 186.473 247.853, 203.305 241.982, 218.298 187.385, 242.507 119.367, 228.323 87.277, 177.655 89.515, 174.250 "
fill = "none" stroke = "black"/>
</g>
<g>
<polygon points = "594.238, 664.731 578.110, 691.325 533.713, 630.031 529.043, 601.859 541.394, 573.320 "
fill = "none" stroke = "black"/>
</g>
<g>
<polygon points = "921.730, 1000.000 921.807, 999.883 1000.000, 976.740 1000.000, 1000.000 "
fill = "none" stroke = "black"/>
</g>
<g>
<polygon points = "20.944, 493.464 75.561, 497.341 83.372, 516.206 71.718, 554.618 0.000, 584.794 0.000, 510.184 "
fill = "none" stroke = "black"/>
</g>
<g>
<polygon points = "700.249, 473.388 704.299, 450.030 755.927, 416.587 763.931, 417.739 787.547, 467.148 734.537, 502.504 "
fill = "none" stroke = "black"/>
</g>
<g>
<polygon points = "155.859, 808.258 145.006, 824.782 57.167, 828.962 45.220, 816.080 101.119, 778.407 "
fill = "none" stroke = "black"/>
</g>
<g>
<polygon points = "557.918, 879.864 646.180, 849.245 682.090, 879.064 601.887, 924.376 600.491, 923.982 574.902, 912.281 556.108, 884.700 "
fill = "none" stroke = "black"/>
</g>
<g>
<polygon points = "956.175, 208.348 923.987, 144.111 973.137, 108.710 1000.000, 106.268 1000.000, 193.599 "
fill = "none" stroke = "black"/>
</g>
<g>
<polygon points = "214.803, 601.391 217.710, 569.514 280.560, 532.765 294.647, 537.503 255.009, 598.973 "
fill = "none" stroke = "black"/>
</g>
<g>
<polygon points = "832.181, 229.956 829.921, 204.348 883.412, 199.634 942.097, 221.280 941.295, 230.627 871.661, 257.539 "
fill = "none" stroke = "black"/>
</g>
<g>
<polygon points = "458.454, 331.788 432.402, 385.695 395.782, 370.013 382.899, 323.269 381.375, 308.047 387.002, 301.495 448.167, 290.701 "
fill = "none" stroke = "black"/>
</g>
<g>
<polygon points = "249.437, 441.567 247.277, 450.811 166.987, 478.857 153.214, 418.008 193.917, 413.158 "
fill = "none" stroke = "black"/>
</g>
<g>
<polygon points = "134.559, 593.037 180.090, 513.520 180.721, 513.787 217.710, 569.514 214.803, 601.391 211.991, 605.898 200.904, 607.961 135.871, 594.503 "
fill = "none" stroke = "black"/>
</g>
<g>
<polygon points = "788.129, 127.853 788.776, 150.416 773.654, 164.625 685.272, 122.447 685.451, 116.690 780.120, 116.045 "
fill = "none" stroke = "black"/>
</g>
<g>
<polygon points = "939.727, 945.704 927.803, 900.095 933.006, 894.048 1000.000, 876.323 1000.000, 940.616 "
fill = "none" stroke = "black"/>
</g>
<g>
<polygon points = "747.154, 720.545 850.371, 767.082 851.313, 769.080 811.425, 807.523 744.861, 785.415 737.433, 742.190 "
fill = "none" stroke = "black"/>
</g>
<g>
<polygon points = "809.976, 285.652 807.473, 285.101 773.654, 164.625 788.776, 150.416 829.921, 204.348 832.181, 229.956 "
fill = "none" stroke = "black"/>
</g>
<g>
<polygon points = "650.966, 971.563 688.343, 923.816 703.434, 958.833 674.839, 1000.000 659.609, 1000.000 "
fill = "none" stroke = "black"/>
</g>
<g>
<polygon points = "269.503, 364.747 227.840, 375.124 187.852, 337.607 269.712, 329.159 "
fill = "none" stroke = "black"/>
</g>
<g>
<polygon points = "344.598, 691.868 412.425, 752.483 416.259, 799.971 392.180, 841.920 345.881, 832.517 304.576, 773.154 "
fill = "none" stroke = "black"/>
</g>
<g>
<polygon points = "144.930, 834.726 145.006, 824.782 155.859, 808.258 179.274, 798.719 169.829, 849.770 "
fill = "none" stroke = "black"/>
</g>
<g>
<polygon points = "682.298, 49.727 669.080, 67.223 637.514, 42.204 605.129, 0.000 675.796, 0.000 "
fill = "none" stroke = "black"/>
</g>
<g>
<polygon points = "611.773, 943.468 650.966, 971.563 659.609, 1000.000 652.906, 1000.000 601.607, 985.886 "
fill = "none" stroke = "black"/>
</g>
<g>
<polygon points = "688.343, 923.816 692.333, 880.147 692.337, 880.146 712.521, 883.817 748.894, 946.113 749.871, 979.415 703.434, 958.833 "
fill = "none" stroke = "black"/>
</g>
<g>
<polygon points = "522.891, 905.755 520.501, 991.270 515.128, 1000.000 427.978, 1000.000 "
fill = "none" stroke = "black"/>
</g>
<g>
<polygon points = "936.636, 696.965 933.215, 683.631 1000.000, 598.826 1000.000, 728.994 "
fill = "none" stroke = "black"/>
</g>
<g>
<polygon points = "712.521, 883.817 692.337, 880.146 707.357, 803.723 744.861, 785.415 811.425, 807.523 802.062, 858.125 792.017, 867.699 "
fill = "none" stroke = "black"/>
</g>
<g>
<polygon points = "990.409, 792.155 906.717, 796.800 896.076, 793.214 862.700, 770.598 936.636, 696.965 1000.000, 728.994 1000.000, 790.746 "
fill = "none" stroke = "black"/>
</g>
<g>
<polygon points = "132.846, 874.588 75.156, 859.154 57.167, 828.962 145.006, 824.782 144.930, 834.726 "
fill = "none" stroke = "black"/>
</g>
<g>
<polygon points = "134.559, 593.037 135.871, 594.503 131.717, 667.988 103.145, 689.989 75.908, 651.006 109.007, 584.222 "
fill = "none" stroke = "black"/>
</g>
<g>
<polygon points = "309.201, 444.470 302.203, 444.879 279.346, 421.608 285.567, 394.014 357.603, 396.905 "
fill = "none" stroke = "black"/>
</g>
<g>
<polygon points = "807.473, 285.101 809.976, 285.652 815.371, 333.948 810.247, 337.759 803.692, 337.235 "
fill = "none" stroke = "black"/>
</g>
<g>
<polygon points = "933.215, 683.631 874.950, 634.867 889.331, 609.582 1000.000, 593.816 1000.000, 598.826 "
fill = "none" stroke = "black"/>
</g>
<g>
<polygon points = "488.576, 765.046 434.242, 796.252 416.259, 799.971 412.425, 752.483 469.457, 713.757 498.766, 732.198 "
fill = "none" stroke = "black"/>
</g>
<g>
<polygon points = "412.425, 752.483 344.598, 691.868 344.181, 680.777 355.201, 661.823 455.197, 673.343 469.457, 713.757 "
fill = "none" stroke = "black"/>
</g>
<g>
<polygon points = "166.987, 478.857 247.277, 450.811 249.372, 494.567 180.721, 513.787 180.090, 513.520 170.768, 503.015 167.250, 498.677 "
fill = "none" stroke = "black"/>
</g>
<g>
<polygon points = "815.371, 333.948 809.976, 285.652 832.181, 229.956 871.661, 257.539 951.123, 347.283 956.727, 363.226 938.111, 370.110 "
fill = "none" stroke = "black"/>
</g>
<g>
<polygon points = "324.460, 532.756 391.800, 491.095 399.879, 502.211 419.387, 560.392 325.162, 554.539 319.543, 541.165 "
fill = "none" stroke = "black"/>
</g>
<g>
<polygon points = "751.924, 983.351 816.220, 959.297 849.491, 973.432 864.381, 1000.000 748.951, 1000.000 "
fill = "none" stroke = "black"/>
</g>
<g>
<polygon points = "692.337, 880.146 692.333, 880.147 682.090, 879.064 646.180, 849.245 629.764, 822.637 668.982, 771.098 707.357, 803.723 "
fill = "none" stroke = "black"/>
</g>
<g>
<polygon points = "75.800, 25.058 166.633, 35.869 178.395, 64.311 166.217, 90.952 123.460, 104.727 68.359, 49.611 "
fill = "none" stroke = "black"/>
</g>
<g>
<polygon points = "604.033, 558.158 666.677, 675.470 661.578, 682.988 594.238, 664.731 541.394, 573.320 542.557, 568.733 "
fill = "none" stroke = "black"/>
</g>
<g>
<polygon points = "494.984, 176.884 466.928, 159.895 461.320, 145.733 461.889, 144.445 512.742, 160.236 "
fill = "none" stroke = "black"/>
</g>
<g>
<polygon points = "357.603, 396.905 285.567, 394.014 281.451, 382.726 382.899, 323.269 395.782, 370.013 373.417, 396.548 "
fill = "none" stroke = "black"/>
</g>
<g>
<polygon points = "30.181, 188.396 59.053, 268.068 55.703, 270.697 0.000, 252.779 0.000, 194.786 "
fill = "none" stroke = "black"/>
</g>
<g>
<polygon points = "540.951, 732.871 526.503, 809.028 506.294, 809.040 488.576, 765.046 498.766, 732.198 528.058, 727.804 "
fill = "none" stroke = "black"/>
</g>
<g>
<polygon points = "55.276, 329.134 55.703, 270.697 59.053, 268.068 113.073, 235.094 104.516, 307.922 79.835, 357.778 "
fill = "none" stroke = "black"/>
</g>
<g>
<polygon points = "255.431, 669.593 242.133, 670.641 211.991, 605.898 214.803, 601.391 255.009, 598.973 277.293, 606.918 "
fill = "none" stroke = "black"/>
</g>
<g>
<polygon points = "249.372, 494.567 251.773, 496.437 280.560, 532.765 217.710, 569.514 180.721, 513.787 "
fill = "none" stroke = "black"/>
</g>
<g>
<polygon points = "921.807, 999.883 939.727, 945.704 1000.000, 940.616 1000.000, 976.740 "
fill = "none" stroke = "black"/>
</g>
<g>
<polygon points = "82.225, 363.580 111.849, 392.244 77.508, 437.251 6.429, 440.620 0.000, 438.396 0.000, 390.281 "
fill = "none" stroke = "black"/>
</g>
<g>
<polygon points = "302.203, 444.879 309.201, 444.470 360.043, 446.106 317.871, 489.870 304.784, 466.019 "
fill = "none" stroke = "black"/>
</g>
<g>
<polygon points = "446.829, 24.592 420.363, 61.186 340.078, 0.000 448.512, 0.000 "
fill = "none" stroke = "black"/>
</g>
<g>
<polygon points = "896.076, 793.214 876.618, 897.571 872.336, 899.040 802.062, 858.125 811.425, 807.523 851.313, 769.080 862.700, 770.598 "
fill = "none" stroke = "black"/>
</g>
<g>
<polygon points = "637.514, 42.204 661.458, 113.604 574.779, 108.673 558.094, 84.159 574.356, 0.000 605.129, 0.000 "
fill = "none" stroke = "black"/>
</g>
<g>
<polygon points = "787.547, 467.148 763.931, 417.739 787.737, 393.211 870.422, 438.665 811.091, 479.006 "
fill = "none" stroke = "black"/>
</g>
<g>
<polygon points = "990.409, 792.155 930.881, 875.422 906.717, 796.800 "
fill = "none" stroke = "black"/>
</g>
<g>
<polygon points = "340.316, 837.982 345.881, 832.517 392.180, 841.920 419.670, 883.699 415.180, 1000.000 305.150, 1000.000 "
fill = "none" stroke = "black"/>
</g>
<g>
<polygon points = "20.119, 79.658 72.777, 174.793 30.181, 188.396 0.000, 194.786 0.000, 81.424 "
fill = "none" stroke = "black"/>
</g>
<g>
<polygon points = ""
fill = "none" stroke = "black"/>
</g>
<g>
<polygon points = "161.129, 668.816 200.904, 607.961 211.991, 605.898 242.133, 670.641 215.392, 704.040 "
fill = "none" stroke = "black"/>
</g>
<g>
<polygon points = "155.859, 808.258 101.119, 778.407 124.154, 733.824 209.209, 755.902 216.315, 770.541 201.105, 786.367 179.274, 798.719 "
fill = "none" stroke = "black"/>
</g>
<g>
<polygon points = "601.887, 924.376 611.773, 943.468 601.607, 985.886 589.760, 1000.000 564.951, 1000.000 600.491, 923.982 "
fill = "none" stroke = "black"/>
</g>
<g>
<polygon points = "712.521, 883.817 792.017, 867.699 795.335, 917.597 748.894, 946.113 "
fill = "none" stroke = "black"/>
</g>
<g>
<polygon points = "889.331, 609.582 881.665, 566.804 882.079, 565.470 983.562, 530.591 1000.000, 532.289 1000.000, 593.816 "
fill = "none" stroke = "black"/>
</g>
<g>
<polygon points = "787.737, 393.211 810.247, 337.759 815.371, 333.948 938.111, 370.110 887.920, 433.251 870.422, 438.665 "
fill = "none" stroke = "black"/>
</g>
<g>
<polygon points = "526.503, 809.028 564.751, 826.383 557.918, 879.864 556.108, 884.700 539.424, 885.680 482.120, 865.121 497.643, 817.912 506.294, 809.040 "
fill = "none" stroke = "black"/>
</g>
<g>
<polygon points = "524.616, 461.915 543.103, 446.975 622.673, 470.458 629.604, 507.572 613.881, 550.826 604.033, 558.158 542.557, 568.733 536.649, 563.487 "
fill = "none" stroke = "black"/>
</g>
<g>
<polygon points = "629.604, 507.572 622.673, 470.458 704.299, 450.030 700.249, 473.388 "
fill = "none" stroke = "black"/>
</g>
<g>
<polygon points = ""
fill = "none" stroke = "black"/>
</g>
<g>
<polygon points = "391.800, 491.095 393.551, 482.778 405.002, 476.827 464.743, 499.548 473.138, 516.842 399.879, 502.211 "
fill = "none" stroke = "black"/>
</g>
<g>
<polygon points = "20.944, 493.464 17.352, 468.101 75.223, 490.194 75.561, 497.341 "
fill = "none" stroke = "black"/>
</g>
<g>
<polygon points = "45.220, 816.080 57.167, 828.962 75.156, 859.154 66.647, 943.694 31.546, 919.885 0.000, 884.241 0.000, 802.766 "
fill = "none" stroke = "black"/>
</g>
<g>
<polygon points = ""
fill = "none" stroke = "black"/>
</g>
<g>
<polygon points = "734.537, 502.504 787.547, 467.148 811.091, 479.006 813.589, 490.520 774.289, 563.746 734.458, 537.929 "
fill = "none" stroke = "black"/>
</g>
<g>
<polygon points = "734.458, 537.929 680.949, 561.414 613.881, 550.826 629.604, 507.572 700.249, 473.388 734.537, 502.504 "
fill = "none" stroke = "black"/>
</g>
<g>
<polygon points = "747.154, 720.545 737.433, 742.190 659.042, 740.844 646.091, 724.244 661.578, 682.988 666.677, 675.470 706.480, 665.041 744.466, 684.726 "
fill = "none" stroke = "black"/>
</g>
<g>
<polygon points = "249.372, 494.567 247.277, 450.811 249.437, 441.567 279.346, 421.608 302.203, 444.879 304.784, 466.019 251.773, 496.437 "
fill = "none" stroke = "black"/>
</g>
<g>
<polygon points = "269.503, 364.747 281.451, 382.726 285.567, 394.014 279.346, 421.608 249.437, 441.567 193.917, 413.158 227.840, 375.124 "
fill = "none" stroke = "black"/>
</g>
<g>
<polygon points = "956.175, 208.348 942.097, 221.280 883.412, 199.634 922.606, 144.183 923.987, 144.111 "
fill = "none" stroke = "black"/>
</g>
<g>
<polygon points = "296.477, 33.319 320.013, 111.024 317.208, 147.436 247.853, 203.305 233.993, 186.473 201.496, 129.755 251.363, 50.073 "
fill = "none" stroke = "black"/>
</g>
<g>
<polygon points = "637.514, 42.204 669.080, 67.223 661.839, 113.645 661.458, 113.604 "
fill = "none" stroke = "black"/>
</g>
<g>
<polygon points = "894.826, 60.558 817.359, 119.387 788.129, 127.853 780.120, 116.045 779.652, 112.390 781.077, 0.000 876.730, 0.000 "
fill = "none" stroke = "black"/>
</g>
<g>
<polygon points = "104.516, 307.922 113.073, 235.094 119.367, 228.323 187.385, 242.507 174.257, 295.902 "
fill = "none" stroke = "black"/>
</g>
<g>
<polygon points = "75.156, 859.154 132.846, 874.588 166.179, 909.578 81.217, 987.833 66.647, 943.694 "
fill = "none" stroke = "black"/>
</g>
<g>
<polygon points = "247.853, 203.305 317.208, 147.436 328.376, 153.171 371.915, 178.593 392.347, 218.244 387.002, 301.495 381.375, 308.047 282.349, 282.685 241.982, 218.298 "
fill = "none" stroke = "black"/>
</g>
<g>
<polygon points = "360.043, 446.106 309.201, 444.470 357.603, 396.905 373.417, 396.548 368.384, 443.943 "
fill = "none" stroke = "black"/>
</g>
<g>
<polygon points = "296.477, 33.319 251.363, 50.073 178.395, 64.311 166.633, 35.869 175.143, 0.000 301.270, 0.000 "
fill = "none" stroke = "black"/>
</g>
<g>
<polygon points = "494.984, 176.884 464.947, 219.310 466.928, 159.895 "
fill = "none" stroke = "black"/>
</g>
<g>
<polygon points = "166.179, 909.578 132.846, 874.588 144.930, 834.726 169.829, 849.770 181.450, 873.480 168.758, 909.333 "
fill = "none" stroke = "black"/>
</g>
<g>
<polygon points = "412.239, 596.752 355.335, 649.784 329.373, 599.913 325.162, 554.539 419.387, 560.392 427.521, 568.860 "
fill = "none" stroke = "black"/>
</g>
<g>
<polygon points = "601.887, 924.376 682.090, 879.064 692.333, 880.147 688.343, 923.816 650.966, 971.563 611.773, 943.468 "
fill = "none" stroke = "black"/>
</g>
<g>
<polygon points = "894.826, 60.558 909.178, 64.766 921.635, 79.829 893.066, 128.239 817.359, 119.387 "
fill = "none" stroke = "black"/>
</g>
<g>
<polygon points = "166.179, 909.578 168.758, 909.333 207.798, 925.874 268.074, 1000.000 78.574, 1000.000 81.217, 987.833 "
fill = "none" stroke = "black"/>
</g>
<g>
<circle cx = "131.538" cy = "541.350" r="5"/></g>
<g>
<circle cx = "218.959" cy = "321.135" r="5"/></g>
<g>
<circle cx = "934.693" cy = "480.584" r="5"/></g>
<g>
<circle cx = "34.572" cy = "470.300" r="5"/></g>
<g>
<circle cx = "7.698" cy = "933.158" r="5"/></g>
<g>
<circle cx = "686.773" cy = "69.564" r="5"/></g>
<g>
<circle cx = "526.929" cy = "346.081" r="5"/></g>
<g>
<circle cx = "701.191" cy = "237.802" r="5"/></g>
<g>
<circle cx = "47.465" cy = "671.766" r="5"/></g>
<g>
<circle cx = "756.410" cy = "634.661" r="5"/></g>
<g>
<circle cx = "982.550" cy = "246.644" r="5"/></g>
<g>
<circle cx = "72.686" cy = "115.293" r="5"/></g>
<g>
<circle cx = "436.411" cy = "522.268" r="5"/></g>
<g>
<circle cx = "274.907" cy = "833.493" r="5"/></g>
<g>
<circle cx = "897.656" cy = "939.436" r="5"/></g>
<g>
<circle cx = "504.523" cy = "680.967" r="5"/></g>
<g>
<circle cx = "493.977" cy = "909.267" r="5"/></g>
<g>
<circle cx = "73.749" cy = "615.858" r="5"/></g>
<g>
<circle cx = "913.817" cy = "535.554" r="5"/></g>
<g>
<circle cx = "50.084" cy = "229.795" r="5"/></g>
<g>
<circle cx = "125.365" cy = "311.545" r="5"/></g>
<g>
<circle cx = "629.543" cy = "274.588" r="5"/></g>
<g>
<circle cx = "888.572" cy = "693.678" r="5"/></g>
<g>
<circle cx = "513.274" cy = "154.018" r="5"/></g>
<g>
<circle cx = "841.511" cy = "584.605" r="5"/></g>
<g>
<circle cx = "467.917" cy = "821.672" r="5"/></g>
<g>
<circle cx = "571.655" cy = "966.946" r="5"/></g>
<g>
<circle cx = "498.480" cy = "251.707" r="5"/></g>
<g>
<circle cx = "890.737" cy = "157.960" r="5"/></g>
<g>
<circle cx = "212.752" cy = "869.573" r="5"/></g>
<g>
<circle cx = "274.588" cy = "585.707" r="5"/></g>
<g>
<circle cx = "709.820" cy = "760.089" r="5"/></g>
<g>
<circle cx = "317.540" cy = "347.941" r="5"/></g>
<g>
<circle cx = "681.346" cy = "612.275" r="5"/></g>
<g>
<circle cx = "147.533" cy = "154.424" r="5"/></g>
<g>
<circle cx = "955.409" cy = "851.848" r="5"/></g>
<g>
<circle cx = "408.767" cy = "435.101" r="5"/></g>
<g>
<circle cx = "488.515" cy = "38.905" r="5"/></g>
<g>
<circle cx = "199.757" cy = "370.731" r="5"/></g>
<g>
<circle cx = "651.254" cy = "196.927" r="5"/></g>
<g>
<circle cx = "476.432" cy = "796.750" r="5"/></g>
<g>
<circle cx = "901.673" cy = "857.979" r="5"/></g>
<g>
<circle cx = "410.313" cy = "114.352" r="5"/></g>
<g>
<circle cx = "162.199" cy = "634.661" r="5"/></g>
<g>
<circle cx = "135.109" cy = "544.693" r="5"/></g>
<g>
<circle cx = "452.300" cy = "68.326" r="5"/></g>
<g>
<circle cx = "215.248" cy = "91.078" r="5"/></g>
<g>
<circle cx = "860.860" cy = "494.044" r="5"/></g>
<g>
<circle cx = "817.561" cy = "537.755" r="5"/></g>
<g>
<circle cx = "632.739" cy = "175.303" r="5"/></g>
<g>
<circle cx = "702.207" cy = "45.585" r="5"/></g>
<g>
<circle cx = "289.316" cy = "485.565" r="5"/></g>
<g>
<circle cx = "414.028" cy = "123.434" r="5"/></g>
<g>
<circle cx = "729.748" cy = "284.358" r="5"/></g>
<g>
<circle cx = "706.535" cy = "980.908" r="5"/></g>
<g>
<circle cx = "524.987" cy = "934.806" r="5"/></g>
<g>
<circle cx = "488.943" cy = "317.951" r="5"/></g>
<g>
<circle cx = "916.634" cy = "109.981" r="5"/></g>
<g>
<circle cx = "139.195" cy = "10.638" r="5"/></g>
<g>
<circle cx = "446.023" cy = "485.341" r="5"/></g>
<g>
<circle cx = "439.726" cy = "193.350" r="5"/></g>
<g>
<circle cx = "211.519" cy = "846.396" r="5"/></g>
<g>
<circle cx = "616.350" cy = "999.121" r="5"/></g>
<g>
<circle cx = "727.335" cy = "582.276" r="5"/></g>
<g>
<circle cx = "680.562" cy = "163.580" r="5"/></g>
<g>
<circle cx = "828.708" cy = "918.262" r="5"/></g>
<g>
<circle cx = "629.572" cy = "786.453" r="5"/></g>
<g>
<circle cx = "388.823" cy = "52.455" r="5"/></g>
<g>
<circle cx = "269.215" cy = "715.965" r="5"/></g>
<g>
<circle cx = "783.865" cy = "717.844" r="5"/></g>
<g>
<circle cx = "11.316" cy = "16.764" r="5"/></g>
<g>
<circle cx = "819.726" cy = "601.856" r="5"/></g>
<g>
<circle cx = "176.880" cy = "842.269" r="5"/></g>
<g>
<circle cx = "257.169" cy = "898.363" r="5"/></g>
<g>
<circle cx = "634.717" cy = "205.230" r="5"/></g>
<g>
<circle cx = "752.940" cy = "366.570" r="5"/></g>
<g>
<circle cx = "598.217" cy = "681.222" r="5"/></g>
<g>
<circle cx = "117.437" cy = "473.877" r="5"/></g>
<g>
<circle cx = "587.989" cy = "297.011" r="5"/></g>
<g>
<circle cx = "161.688" cy = "139.774" r="5"/></g>
<g>
<circle cx = "556.836" cy = "683.993" r="5"/></g>
<g>
<circle cx = "528.548" cy = "411.881" r="5"/></g>
<g>
<circle cx = "430.848" cy = "629.774" r="5"/></g>
<g>
<circle cx = "446.866" cy = "612.169" r="5"/></g>
<g>
<circle cx = "78.263" cy = "746.078" r="5"/></g>
<g>
<circle cx = "676.237" cy = "271.392" r="5"/></g>
<g>
<circle cx = "944.753" cy = "59.837" r="5"/></g>
<g>
<circle cx = "460.434" cy = "338.645" r="5"/></g>
<g>
<circle cx = "605.640" cy = "849.606" r="5"/></g>
<g>
<circle cx = "343.818" cy = "477.192" r="5"/></g>
<g>
<circle cx = "14.951" cy = "357.021" r="5"/></g>
<g>
<circle cx = "917.848" cy = "29.913" r="5"/></g>
<g>
<circle cx = "843.975" cy = "544.248" r="5"/></g>
<g>
<circle cx = "22.084" cy = "293.050" r="5"/></g>
<g>
<circle cx = "436.638" cy = "248.290" r="5"/></g>
<g>
<circle cx = "695.679" cy = "246.137" r="5"/></g>
<g>
<circle cx = "4.254" cy = "920.083" r="5"/></g>
<g>
<circle cx = "903.301" cy = "253.321" r="5"/></g>
<g>
<circle cx = "6.342" cy = "481.522" r="5"/></g>
<g>
<circle cx = "544.023" cy = "784.174" r="5"/></g>
<g>
<circle cx = "626.861" cy = "290.680" r="5"/></g>
<g>
<circle cx = "280.289" cy = "628.090" r="5"/></g>
<g>
<circle cx = "310.169" cy = "896.203" r="5"/></g>
<g>
<circle cx = "775.880" cy = "944.721" r="5"/></g>
<g>
<circle cx = "160.274" cy = "702.978" r="5"/></g>
<g>
<circle cx = "477.804" cy = "480.012" r="5"/></g>
<g>
<circle cx = "150.312" cy = "166.318" r="5"/></g>
<g>
<circle cx = "577.776" cy = "668.825" r="5"/></g>
<g>
<circle cx = "986.883" cy = "998.343" r="5"/></g>
<g>
<circle cx = "29.355" cy = "510.348" r="5"/></g>
<g>
<circle cx = "738.959" cy = "463.733" r="5"/></g>
<g>
<circle cx = "122.507" cy = "811.724" r="5"/></g>
<g>
<circle cx = "614.126" cy = "874.067" r="5"/></g>
<g>
<circle cx = "954.028" cy = "161.898" r="5"/></g>
<g>
<circle cx = "259.014" cy = "575.664" r="5"/></g>
<g>
<circle cx = "897.914" cy = "239.383" r="5"/></g>
<g>
<circle cx = "451.851" cy = "334.497" r="5"/></g>
<g>
<circle cx = "209.562" cy = "453.025" r="5"/></g>
<g>
<circle cx = "175.974" cy = "568.092" r="5"/></g>
<g>
<circle cx = "687.414" cy = "163.793" r="5"/></g>
<g>
<circle cx = "973.346" cy = "919.647" r="5"/></g>
<g>
<circle cx = "769.437" cy = "749.845" r="5"/></g>
<g>
<circle cx = "769.114" cy = "250.748" r="5"/></g>
<g>
<circle cx = "681.666" cy = "963.632" r="5"/></g>
<g>
<circle cx = "221.667" cy = "347.378" r="5"/></g>
<g>
<circle cx = "371.466" cy = "766.309" r="5"/></g>
<g>
<circle cx = "165.928" cy = "840.242" r="5"/></g>
<g>
<circle cx = "661.994" cy = "50.843" r="5"/></g>
<g>
<circle cx = "621.046" cy = "982.055" r="5"/></g>
<g>
<circle cx = "721.872" cy = "946.306" r="5"/></g>
<g>
<circle cx = "519.175" cy = "934.644" r="5"/></g>
<g>
<circle cx = "977.180" cy = "670.944" r="5"/></g>
<g>
<circle cx = "743.274" cy = "828.621" r="5"/></g>
<g>
<circle cx = "939.725" cy = "745.043" r="5"/></g>
<g>
<circle cx = "123.849" cy = "839.917" r="5"/></g>
<g>
<circle cx = "105.185" cy = "631.438" r="5"/></g>
<g>
<circle cx = "327.228" cy = "423.224" r="5"/></g>
<g>
<circle cx = "758.246" cy = "300.209" r="5"/></g>
<g>
<circle cx = "935.242" cy = "637.916" r="5"/></g>
<g>
<circle cx = "455.072" cy = "759.560" r="5"/></g>
<g>
<circle cx = "421.579" cy = "710.234" r="5"/></g>
<g>
<circle cx = "216.386" cy = "472.561" r="5"/></g>
<g>
<circle cx = "863.643" cy = "288.436" r="5"/></g>
<g>
<circle cx = "382.822" cy = "540.237" r="5"/></g>
<g>
<circle cx = "795.353" cy = "996.771" r="5"/></g>
<g>
<circle cx = "664.689" cy = "813.175" r="5"/></g>
<g>
<circle cx = "134.039" cy = "53.955" r="5"/></g>
<g>
<circle cx = "606.001" cy = "652.508" r="5"/></g>
<g>
<circle cx = "509.658" cy = "165.662" r="5"/></g>
<g>
<circle cx = "329.434" cy = "368.237" r="5"/></g>
<g>
<circle cx = "41.420" cy = "232.935" r="5"/></g>
<g>
<circle cx = "519.303" cy = "779.484" r="5"/></g>
<g>
<circle cx = "88.993" cy = "293.539" r="5"/></g>
<g>
<circle cx = "261.779" cy = "621.634" r="5"/></g>
<g>
<circle cx = "232.608" cy = "530.502" r="5"/></g>
<g>
<circle cx = "977.238" cy = "965.757" r="5"/></g>
<g>
<circle cx = "31.639" cy = "408.412" r="5"/></g>
<g>
<circle cx = "329.579" cy = "463.472" r="5"/></g>
<g>
<circle cx = "403.581" cy = "33.090" r="5"/></g>
<g>
<circle cx = "867.514" cy = "851.610" r="5"/></g>
<g>
<circle cx = "639.523" cy = "68.085" r="5"/></g>
<g>
<circle cx = "815.407" cy = "427.193" r="5"/></g>
<g>
<circle cx = "945.250" cy = "844.586" r="5"/></g>
<g>
<circle cx = "343.613" cy = "903.462" r="5"/></g>
<g>
<circle cx = "22.405" cy = "143.124" r="5"/></g>
<g>
<circle cx = "674.525" cy = "301.540" r="5"/></g>
<g>
<circle cx = "191.984" cy = "654.128" r="5"/></g>
<g>
<circle cx = "140.710" cy = "778.344" r="5"/></g>
<g>
<circle cx = "586.016" cy = "973.660" r="5"/></g>
<g>
<circle cx = "762.344" cy = "922.676" r="5"/></g>
<g>
<circle cx = "925.503" cy = "569.554" r="5"/></g>
<g>
<circle cx = "831.256" cy = "398.362" r="5"/></g>
<g>
<circle cx = "519.337" cy = "838.581" r="5"/></g>
<g>
<circle cx = "574.360" cy = "468.573" r="5"/></g>
<g>
<circle cx = "667.049" cy = "451.264" r="5"/></g>
<g>
<circle cx = "667.965" cy = "428.417" r="5"/></g>
<g>
<circle cx = "441.313" cy = "497.725" r="5"/></g>
<g>
<circle cx = "31.657" cy = "477.937" r="5"/></g>
<g>
<circle cx = "35.060" cy = "892.819" r="5"/></g>
<g>
<circle cx = "551.829" cy = "388.889" r="5"/></g>
<g>
<circle cx = "772.030" cy = "513.319" r="5"/></g>
<g>
<circle cx = "696.996" cy = "513.150" r="5"/></g>
<g>
<circle cx = "710.450" cy = "723.353" r="5"/></g>
<g>
<circle cx = "280.104" cy = "469.510" r="5"/></g>
<g>
<circle cx = "235.403" cy = "402.524" r="5"/></g>
<g>
<circle cx = "920.252" cy = "178.823" r="5"/></g>
<g>
<circle cx = "230.270" cy = "100.479" r="5"/></g>
<g>
<circle cx = "651.515" cy = "64.064" r="5"/></g>
<g>
<circle cx = "858.766" cy = "47.569" r="5"/></g>
<g>
<circle cx = "122.950" cy = "297.529" r="5"/></g>
<g>
<circle cx = "107.739" cy = "900.134" r="5"/></g>
<g>
<circle cx = "344.576" cy = "242.379" r="5"/></g>
<g>
<circle cx = "330.758" cy = "426.817" r="5"/></g>
<g>
<circle cx = "202.482" cy = "25.652" r="5"/></g>
<g>
<circle cx = "491.841" cy = "195.088" r="5"/></g>
<g>
<circle cx = "159.580" cy = "850.749" r="5"/></g>
<g>
<circle cx = "380.608" cy = "575.866" r="5"/></g>
<g>
<circle cx = "651.295" cy = "939.858" r="5"/></g>
<g>
<circle cx = "897.657" cy = "98.782" r="5"/></g>
<g>
<circle cx = "170.796" cy = "968.596" r="5"/></g>
</svg>
