<svg xmlns = "http://www.w3.org/2000/svg" width = "1000" height = "1000">
<g>
<polygon points = "227.129, 768.283 235.752, 782.020 201.202, 836.963 137.729, 735.129 138.510, 732.354 168.394, 732.002 "
fill = "none" stroke = "black"/>
</g>
<g>
<polygon points = "235.688, 139.997 277.053, 182.000 280.689, 234.413 234.843, 235.014 159.503, 193.595 153.372, 185.908 196.471, 136.921 "
fill = "none" stroke = "black"/>
</g>
<g>
<polygon points = "288.672, 887.088 309.741, 898.204 300.040, 934.016 285.191, 945.621 221.781, 953.614 185.060, 914.227 182.012, 901.542 "
fill = "none" stroke = "black"/>
</g>
<g>
<polygon points = "326.448, 11.959 329.631, 45.081 312.570, 75.985 283.174, 85.778 234.348, 64.763 282.527, 24.310 "
fill = "none" stroke = "black"/>
</g>
<g>
<polygon points = "571.435, 528.584 621.958, 584.217 625.220, 607.272 612.543, 618.579 555.046, 653.386 "
fill = "none" stroke = "black"/>
</g>
<g>
<polygon points = "863.655, 838.633 855.163, 849.676 790.951, 856.884 797.221, 797.757 809.088, 796.941 "
fill = "none" stroke = "black"/>
</g>
<g>
<polygon points = "562.860, 714.700 657.630, 677.478 689.455, 674.685 656.882, 744.909 628.590, 756.911 576.563, 735.900 "
fill = "none" stroke = "black"/>
</g>
<g>
<polygon points = "128.439, 412.760 152.041, 429.035 209.156, 492.378 211.106, 495.216 163.954, 523.354 150.935, 522.697 106.906, 512.109 104.220, 505.902 "
fill = "none" stroke = "black"/>
</g>
<g>
<polygon points = "117.783, 35.577 95.626, 63.677 22.120, 50.972 39.440, 0.000 129.020, 0.000 "
fill = "none" stroke = "black"/>
</g>
<g>
<polygon points = "734.305, 4.042 840.334, 49.491 840.086, 76.846 839.242, 77.482 730.191, 76.977 728.168, 74.271 "
fill = "none" stroke = "black"/>
</g>
<g>
<polygon points = "928.982, 842.535 874.984, 837.599 858.766, 760.459 860.546, 758.601 924.315, 777.908 952.424, 816.673 "
fill = "none" stroke = "black"/>
</g>
<g>
<polygon points = "534.655, 533.576 494.696, 544.850 456.991, 501.995 462.912, 487.633 511.635, 445.605 569.632, 488.477 564.503, 509.032 "
fill = "none" stroke = "black"/>
</g>
<g>
<polygon points = "776.911, 900.251 724.911, 872.336 738.619, 800.377 792.180, 794.333 797.221, 797.757 790.951, 856.884 "
fill = "none" stroke = "black"/>
</g>
<g>
<polygon points = "685.726, 614.191 714.917, 660.266 689.455, 674.685 657.630, 677.478 612.543, 618.579 625.220, 607.272 "
fill = "none" stroke = "black"/>
</g>
<g>
<polygon points = "777.121, 155.553 814.682, 117.015 866.001, 153.020 868.011, 157.689 852.000, 180.324 777.248, 157.012 "
fill = "none" stroke = "black"/>
</g>
<g>
<polygon points = "420.771, 531.536 419.203, 530.426 396.771, 484.334 391.335, 457.337 397.457, 454.549 407.423, 455.184 462.912, 487.633 456.991, 501.995 "
fill = "none" stroke = "black"/>
</g>
<g>
<polygon points = "24.504, 910.715 54.728, 916.386 85.341, 945.156 71.734, 1000.000 0.000, 1000.000 0.000, 926.245 "
fill = "none" stroke = "black"/>
</g>
<g>
<polygon points = "85.341, 945.156 105.968, 908.777 163.971, 891.363 176.493, 894.626 182.012, 901.542 185.060, 914.227 153.445, 975.125 132.527, 1000.000 71.734, 1000.000 "
fill = "none" stroke = "black"/>
</g>
<g>
<polygon points = "220.022, 964.981 211.030, 981.311 153.445, 975.125 185.060, 914.227 221.781, 953.614 "
fill = "none" stroke = "black"/>
</g>
<g>
<polygon points = "121.203, 701.746 119.002, 687.771 122.851, 666.457 225.949, 625.674 259.233, 683.257 168.394, 732.002 138.510, 732.354 "
fill = "none" stroke = "black"/>
</g>
<g>
<polygon points = "743.031, 266.303 748.349, 267.922 847.797, 333.855 836.754, 354.564 805.062, 344.764 730.374, 283.022 "
fill = "none" stroke = "black"/>
</g>
<g>
<polygon points = "877.506, 696.458 896.456, 683.139 898.976, 682.681 926.032, 746.913 924.315, 777.908 860.546, 758.601 852.635, 716.982 "
fill = "none" stroke = "black"/>
</g>
<g>
<polygon points = "852.367, 716.892 852.635, 716.982 860.546, 758.601 858.766, 760.459 809.088, 796.941 797.221, 797.757 792.180, 794.333 782.802, 742.035 "
fill = "none" stroke = "black"/>
</g>
<g>
<polygon points = "500.521, 409.861 503.011, 398.573 519.321, 364.049 596.438, 347.217 650.470, 460.548 569.632, 488.477 511.635, 445.605 "
fill = "none" stroke = "black"/>
</g>
<g>
<polygon points = "683.291, 875.999 724.911, 872.336 776.911, 900.251 781.732, 909.596 748.215, 1000.000 713.798, 1000.000 "
fill = "none" stroke = "black"/>
</g>
<g>
<polygon points = "571.985, 841.630 563.869, 806.530 576.563, 735.900 628.590, 756.911 650.030, 800.873 "
fill = "none" stroke = "black"/>
</g>
<g>
<polygon points = "982.051, 302.804 965.136, 268.627 1000.000, 221.613 1000.000, 300.367 "
fill = "none" stroke = "black"/>
</g>
<g>
<polygon points = "746.787, 695.008 782.802, 742.035 792.180, 794.333 738.619, 800.377 719.955, 788.635 712.199, 753.973 "
fill = "none" stroke = "black"/>
</g>
<g>
<polygon points = "865.510, 227.964 755.267, 219.921 752.238, 204.268 777.248, 157.012 852.000, 180.324 "
fill = "none" stroke = "black"/>
</g>
<g>
<polygon points = "60.723, 493.114 104.220, 505.902 106.906, 512.109 87.138, 559.938 22.233, 527.835 "
fill = "none" stroke = "black"/>
</g>
<g>
<polygon points = "246.021, 503.142 248.478, 510.517 192.191, 582.325 177.063, 581.453 163.954, 523.354 211.106, 495.216 "
fill = "none" stroke = "black"/>
</g>
<g>
<polygon points = "346.235, 997.232 417.565, 916.504 464.613, 953.221 501.000, 1000.000 346.634, 1000.000 "
fill = "none" stroke = "black"/>
</g>
<g>
<polygon points = "663.543, 816.025 650.030, 800.873 628.590, 756.911 656.882, 744.909 712.199, 753.973 719.955, 788.635 "
fill = "none" stroke = "black"/>
</g>
<g>
<polygon points = "952.424, 816.673 924.315, 777.908 926.032, 746.913 968.153, 707.235 1000.000, 745.243 1000.000, 811.004 "
fill = "none" stroke = "black"/>
</g>
<g>
<polygon points = "516.521, 64.954 490.893, 145.639 482.794, 148.052 447.681, 73.564 455.494, 30.526 "
fill = "none" stroke = "black"/>
</g>
<g>
<polygon points = "854.974, 96.239 892.226, 122.379 901.794, 147.758 868.011, 157.689 866.001, 153.020 "
fill = "none" stroke = "black"/>
</g>
<g>
<polygon points = "444.351, 191.866 435.839, 191.214 382.848, 159.824 378.837, 138.939 387.393, 94.944 447.681, 73.564 482.794, 148.052 "
fill = "none" stroke = "black"/>
</g>
<g>
<polygon points = "282.527, 24.310 234.348, 64.763 223.206, 65.530 195.729, 0.000 226.669, 0.000 "
fill = "none" stroke = "black"/>
</g>
<g>
<polygon points = "943.586, 612.982 937.290, 651.716 898.976, 682.681 896.456, 683.139 838.894, 631.981 863.041, 584.861 "
fill = "none" stroke = "black"/>
</g>
<g>
<polygon points = "199.918, 107.698 196.471, 136.921 153.372, 185.908 124.237, 182.917 98.988, 172.404 95.626, 63.677 117.783, 35.577 "
fill = "none" stroke = "black"/>
</g>
<g>
<polygon points = "561.892, 246.393 596.619, 171.832 642.793, 178.220 666.985, 296.547 618.459, 312.814 "
fill = "none" stroke = "black"/>
</g>
<g>
<polygon points = "93.113, 349.290 109.396, 360.183 122.275, 395.726 122.244, 397.098 52.215, 437.351 0.000, 409.892 0.000, 324.480 "
fill = "none" stroke = "black"/>
</g>
<g>
<polygon points = "618.459, 312.814 666.985, 296.547 697.182, 303.810 712.687, 361.409 712.465, 363.970 703.042, 403.921 667.461, 458.151 659.691, 462.432 650.470, 460.548 596.438, 347.217 "
fill = "none" stroke = "black"/>
</g>
<g>
<polygon points = "39.033, 720.325 17.239, 797.937 0.000, 799.045 0.000, 717.878 "
fill = "none" stroke = "black"/>
</g>
<g>
<polygon points = "107.192, 786.567 137.729, 735.129 201.202, 836.963 203.422, 844.580 176.493, 894.626 163.971, 891.363 "
fill = "none" stroke = "black"/>
</g>
<g>
<polygon points = "922.652, 487.879 903.549, 475.456 941.516, 402.249 944.367, 399.807 1000.000, 441.766 1000.000, 477.195 "
fill = "none" stroke = "black"/>
</g>
<g>
<polygon points = "769.664, 476.307 769.384, 501.436 767.724, 521.970 745.693, 554.098 704.070, 552.204 673.643, 509.036 659.691, 462.432 667.461, 458.151 "
fill = "none" stroke = "black"/>
</g>
<g>
<polygon points = "455.494, 30.526 447.681, 73.564 387.393, 94.944 376.583, 76.964 434.674, 0.000 448.650, 0.000 "
fill = "none" stroke = "black"/>
</g>
<g>
<polygon points = "254.293, 837.241 288.672, 887.088 182.012, 901.542 176.493, 894.626 203.422, 844.580 "
fill = "none" stroke = "black"/>
</g>
<g>
<polygon points = "300.848, 284.392 318.332, 317.381 301.730, 338.850 287.168, 342.223 218.136, 310.125 219.019, 308.358 "
fill = "none" stroke = "black"/>
</g>
<g>
<polygon points = "358.093, 515.620 341.222, 475.947 363.496, 452.471 391.335, 457.337 396.771, 484.334 "
fill = "none" stroke = "black"/>
</g>
<g>
<polygon points = "756.227, 359.926 712.687, 361.409 697.182, 303.810 730.374, 283.022 805.062, 344.764 "
fill = "none" stroke = "black"/>
</g>
<g>
<polygon points = "657.630, 677.478 562.860, 714.700 551.544, 704.962 546.369, 662.572 555.046, 653.386 612.543, 618.579 "
fill = "none" stroke = "black"/>
</g>
<g>
<polygon points = "321.551, 573.860 367.482, 652.324 329.976, 713.572 279.837, 685.472 294.132, 571.569 314.815, 572.735 "
fill = "none" stroke = "black"/>
</g>
<g>
<polygon points = "862.370, 311.576 920.784, 315.410 944.794, 338.333 961.007, 370.045 944.367, 399.807 941.516, 402.249 836.917, 356.930 836.754, 354.564 847.797, 333.855 "
fill = "none" stroke = "black"/>
</g>
<g>
<polygon points = "815.569, 645.230 838.894, 631.981 896.456, 683.139 877.506, 696.458 "
fill = "none" stroke = "black"/>
</g>
<g>
<polygon points = "905.256, 1000.000 912.399, 949.763 912.545, 949.595 1000.000, 936.364 1000.000, 1000.000 "
fill = "none" stroke = "black"/>
</g>
<g>
<polygon points = "43.041, 882.472 54.728, 916.386 24.504, 910.715 "
fill = "none" stroke = "black"/>
</g>
<g>
<polygon points = "840.334, 49.491 734.305, 4.042 734.058, 3.171 734.171, 0.000 873.722, 0.000 "
fill = "none" stroke = "black"/>
</g>
<g>
<polygon points = "416.563, 834.538 380.060, 857.590 335.641, 776.892 334.558, 725.473 431.418, 732.468 440.628, 794.132 "
fill = "none" stroke = "black"/>
</g>
<g>
<polygon points = "285.103, 567.434 294.132, 571.569 279.837, 685.472 259.233, 683.257 225.949, 625.674 229.185, 610.623 "
fill = "none" stroke = "black"/>
</g>
<g>
<polygon points = "331.679, 719.868 334.558, 725.473 335.641, 776.892 262.430, 805.449 235.752, 782.020 227.129, 768.283 "
fill = "none" stroke = "black"/>
</g>
<g>
<polygon points = "740.556, 106.171 667.508, 178.224 644.146, 177.573 675.415, 91.046 728.168, 74.271 730.191, 76.977 "
fill = "none" stroke = "black"/>
</g>
<g>
<polygon points = "22.233, 527.835 87.138, 559.938 85.724, 589.447 64.847, 590.670 0.000, 540.169 0.000, 532.541 "
fill = "none" stroke = "black"/>
</g>
<g>
<polygon points = "421.093, 636.351 444.663, 720.334 431.418, 732.468 334.558, 725.473 331.679, 719.868 329.976, 713.572 367.482, 652.324 "
fill = "none" stroke = "black"/>
</g>
<g>
<polygon points = "806.505, 538.061 812.791, 569.739 775.083, 586.438 745.693, 554.098 767.724, 521.970 "
fill = "none" stroke = "black"/>
</g>
<g>
<polygon points = "378.837, 138.939 382.848, 159.824 351.894, 170.189 304.801, 147.255 302.323, 142.631 321.101, 99.878 "
fill = "none" stroke = "black"/>
</g>
<g>
<polygon points = "650.470, 460.548 659.691, 462.432 673.643, 509.036 621.958, 584.217 571.435, 528.584 564.503, 509.032 569.632, 488.477 "
fill = "none" stroke = "black"/>
</g>
<g>
<polygon points = "993.263, 94.022 962.192, 0.000 1000.000, 0.000 1000.000, 96.195 "
fill = "none" stroke = "black"/>
</g>
<g>
<polygon points = "389.266, 329.865 480.206, 285.641 519.321, 364.049 503.011, 398.573 395.050, 338.444 389.959, 332.943 "
fill = "none" stroke = "black"/>
</g>
<g>
<polygon points = "814.682, 117.015 777.121, 155.553 740.556, 106.171 730.191, 76.977 839.242, 77.482 "
fill = "none" stroke = "black"/>
</g>
<g>
<polygon points = "594.299, 45.360 675.415, 91.046 644.146, 177.573 642.793, 178.220 596.619, 171.832 574.135, 146.531 592.291, 44.982 "
fill = "none" stroke = "black"/>
</g>
<g>
<polygon points = "704.070, 552.204 745.693, 554.098 775.083, 586.438 765.513, 657.907 744.818, 670.655 714.917, 660.266 685.726, 614.191 "
fill = "none" stroke = "black"/>
</g>
<g>
<polygon points = "836.917, 356.930 820.576, 419.805 786.765, 396.638 756.227, 359.926 805.062, 344.764 836.754, 354.564 "
fill = "none" stroke = "black"/>
</g>
<g>
<polygon points = "45.458, 871.194 43.041, 882.472 24.504, 910.715 0.000, 926.245 0.000, 866.355 "
fill = "none" stroke = "black"/>
</g>
<g>
<polygon points = "126.739, 623.545 150.935, 522.697 163.954, 523.354 177.063, 581.453 "
fill = "none" stroke = "black"/>
</g>
<g>
<polygon points = "209.547, 315.920 162.971, 312.565 159.503, 193.595 234.843, 235.014 219.019, 308.358 218.136, 310.125 "
fill = "none" stroke = "black"/>
</g>
<g>
<polygon points = "918.300, 149.904 901.794, 147.758 892.226, 122.379 903.297, 84.442 927.380, 78.160 953.725, 96.424 "
fill = "none" stroke = "black"/>
</g>
<g>
<polygon points = "22.120, 50.972 95.626, 63.677 98.988, 172.404 0.000, 187.595 0.000, 59.840 "
fill = "none" stroke = "black"/>
</g>
<g>
<polygon points = "634.500, 904.787 641.694, 882.247 663.920, 870.082 683.291, 875.999 713.798, 1000.000 655.978, 1000.000 "
fill = "none" stroke = "black"/>
</g>
<g>
<polygon points = "714.917, 660.266 744.818, 670.655 746.787, 695.008 712.199, 753.973 656.882, 744.909 689.455, 674.685 "
fill = "none" stroke = "black"/>
</g>
<g>
<polygon points = "590.272, 42.092 592.291, 44.982 574.135, 146.531 490.893, 145.639 516.521, 64.954 "
fill = "none" stroke = "black"/>
</g>
<g>
<polygon points = "321.101, 99.878 302.323, 142.631 270.673, 127.046 283.174, 85.778 312.570, 75.985 "
fill = "none" stroke = "black"/>
</g>
<g>
<polygon points = "663.920, 870.082 663.543, 816.025 719.955, 788.635 738.619, 800.377 724.911, 872.336 683.291, 875.999 "
fill = "none" stroke = "black"/>
</g>
<g>
<polygon points = "522.405, 860.068 499.139, 860.237 479.747, 843.645 499.117, 817.694 508.354, 811.100 511.962, 812.008 "
fill = "none" stroke = "black"/>
</g>
<g>
<polygon points = "472.469, 412.046 426.207, 402.266 395.050, 338.444 503.011, 398.573 500.521, 409.861 "
fill = "none" stroke = "black"/>
</g>
<g>
<polygon points = "118.823, 631.856 85.724, 589.447 87.138, 559.938 106.906, 512.109 150.935, 522.697 126.739, 623.545 "
fill = "none" stroke = "black"/>
</g>
<g>
<polygon points = "52.215, 437.351 42.156, 468.562 0.000, 474.022 0.000, 409.892 "
fill = "none" stroke = "black"/>
</g>
<g>
<polygon points = "266.144, 477.246 289.226, 474.819 328.469, 477.486 314.815, 572.735 294.132, 571.569 285.103, 567.434 248.478, 510.517 246.021, 503.142 "
fill = "none" stroke = "black"/>
</g>
<g>
<polygon points = "408.913, 412.917 370.699, 391.492 389.959, 332.943 395.050, 338.444 426.207, 402.266 "
fill = "none" stroke = "black"/>
</g>
<g>
<polygon points = "433.613, 624.709 431.069, 581.330 485.081, 560.530 519.636, 611.518 526.389, 646.842 "
fill = "none" stroke = "black"/>
</g>
<g>
<polygon points = "920.528, 154.180 909.973, 222.720 866.976, 229.868 865.510, 227.964 852.000, 180.324 868.011, 157.689 901.794, 147.758 918.300, 149.904 "
fill = "none" stroke = "black"/>
</g>
<g>
<polygon points = "304.801, 147.255 351.894, 170.189 308.829, 226.208 286.488, 237.088 280.689, 234.413 277.053, 182.000 "
fill = "none" stroke = "black"/>
</g>
<g>
<polygon points = "43.041, 882.472 45.458, 871.194 68.241, 858.137 105.968, 908.777 85.341, 945.156 54.728, 916.386 "
fill = "none" stroke = "black"/>
</g>
<g>
<polygon points = "279.509, 419.186 247.934, 387.220 245.066, 374.526 287.168, 342.223 301.730, 338.850 312.492, 395.596 "
fill = "none" stroke = "black"/>
</g>
<g>
<polygon points = "326.448, 11.959 282.527, 24.310 226.669, 0.000 330.741, 0.000 "
fill = "none" stroke = "black"/>
</g>
<g>
<polygon points = "816.204, 523.952 862.511, 471.949 878.845, 478.814 860.935, 581.100 812.791, 569.739 806.505, 538.061 "
fill = "none" stroke = "black"/>
</g>
<g>
<polygon points = "376.583, 76.964 329.631, 45.081 326.448, 11.959 330.741, 0.000 434.674, 0.000 "
fill = "none" stroke = "black"/>
</g>
<g>
<polygon points = "359.217, 521.318 358.093, 515.620 396.771, 484.334 419.203, 530.426 "
fill = "none" stroke = "black"/>
</g>
<g>
<polygon points = "494.721, 772.175 534.341, 713.877 551.544, 704.962 562.860, 714.700 576.563, 735.900 563.869, 806.530 511.962, 812.008 508.354, 811.100 "
fill = "none" stroke = "black"/>
</g>
<g>
<polygon points = "223.206, 65.530 199.918, 107.698 117.783, 35.577 129.020, 0.000 195.729, 0.000 "
fill = "none" stroke = "black"/>
</g>
<g>
<polygon points = "64.847, 590.670 0.000, 615.414 0.000, 540.169 "
fill = "none" stroke = "black"/>
</g>
<g>
<polygon points = "963.511, 679.960 968.153, 707.235 926.032, 746.913 898.976, 682.681 937.290, 651.716 "
fill = "none" stroke = "black"/>
</g>
<g>
<polygon points = "787.013, 658.699 765.513, 657.907 775.083, 586.438 812.791, 569.739 860.935, 581.100 863.041, 584.861 838.894, 631.981 815.569, 645.230 "
fill = "none" stroke = "black"/>
</g>
<g>
<polygon points = "376.583, 76.964 387.393, 94.944 378.837, 138.939 321.101, 99.878 312.570, 75.985 329.631, 45.081 "
fill = "none" stroke = "black"/>
</g>
<g>
<polygon points = "118.823, 631.856 126.739, 623.545 177.063, 581.453 192.191, 582.325 229.185, 610.623 225.949, 625.674 122.851, 666.457 "
fill = "none" stroke = "black"/>
</g>
<g>
<polygon points = "472.469, 412.046 500.521, 409.861 511.635, 445.605 462.912, 487.633 407.423, 455.184 "
fill = "none" stroke = "black"/>
</g>
<g>
<polygon points = "534.341, 713.877 494.721, 772.175 458.849, 789.020 440.628, 794.132 431.418, 732.468 444.663, 720.334 "
fill = "none" stroke = "black"/>
</g>
<g>
<polygon points = "328.469, 477.486 341.222, 475.947 358.093, 515.620 359.217, 521.318 322.573, 573.227 321.551, 573.860 314.815, 572.735 "
fill = "none" stroke = "black"/>
</g>
<g>
<polygon points = "68.241, 858.137 77.898, 806.668 107.192, 786.567 163.971, 891.363 105.968, 908.777 "
fill = "none" stroke = "black"/>
</g>
<g>
<polygon points = "972.624, 587.359 943.586, 612.982 863.041, 584.861 860.935, 581.100 878.845, 478.814 903.549, 475.456 922.652, 487.879 "
fill = "none" stroke = "black"/>
</g>
<g>
<polygon points = "335.198, 409.058 312.492, 395.596 301.730, 338.850 318.332, 317.381 370.065, 317.601 389.266, 329.865 389.959, 332.943 370.699, 391.492 349.383, 413.674 "
fill = "none" stroke = "black"/>
</g>
<g>
<polygon points = "480.206, 285.641 484.941, 263.501 561.892, 246.393 618.459, 312.814 596.438, 347.217 519.321, 364.049 "
fill = "none" stroke = "black"/>
</g>
<g>
<polygon points = "220.612, 366.844 209.547, 315.920 218.136, 310.125 287.168, 342.223 245.066, 374.526 "
fill = "none" stroke = "black"/>
</g>
<g>
<polygon points = "673.643, 509.036 704.070, 552.204 685.726, 614.191 625.220, 607.272 621.958, 584.217 "
fill = "none" stroke = "black"/>
</g>
<g>
<polygon points = "98.988, 172.404 124.237, 182.917 104.078, 256.736 0.000, 300.519 0.000, 187.595 "
fill = "none" stroke = "black"/>
</g>
<g>
<polygon points = "953.725, 96.424 927.380, 78.160 907.694, 0.000 962.192, 0.000 993.263, 94.022 "
fill = "none" stroke = "black"/>
</g>
<g>
<polygon points = "972.624, 587.359 922.652, 487.879 1000.000, 477.195 1000.000, 584.409 "
fill = "none" stroke = "black"/>
</g>
<g>
<polygon points = "944.367, 399.807 961.007, 370.045 1000.000, 366.528 1000.000, 441.766 "
fill = "none" stroke = "black"/>
</g>
<g>
<polygon points = "912.545, 949.595 928.982, 842.535 952.424, 816.673 1000.000, 811.004 1000.000, 936.364 "
fill = "none" stroke = "black"/>
</g>
<g>
<polygon points = "744.818, 670.655 765.513, 657.907 787.013, 658.699 852.367, 716.892 782.802, 742.035 746.787, 695.008 "
fill = "none" stroke = "black"/>
</g>
<g>
<polygon points = "944.794, 338.333 920.784, 315.410 934.699, 287.087 965.136, 268.627 982.051, 302.804 "
fill = "none" stroke = "black"/>
</g>
<g>
<polygon points = "227.880, 418.134 220.343, 417.656 199.071, 381.272 220.612, 366.844 245.066, 374.526 247.934, 387.220 "
fill = "none" stroke = "black"/>
</g>
<g>
<polygon points = "968.153, 707.235 963.511, 679.960 1000.000, 680.700 1000.000, 745.243 "
fill = "none" stroke = "black"/>
</g>
<g>
<polygon points = "408.913, 412.917 426.207, 402.266 472.469, 412.046 407.423, 455.184 397.457, 454.549 "
fill = "none" stroke = "black"/>
</g>
<g>
<polygon points = "499.139, 860.237 522.405, 860.068 552.706, 867.040 539.150, 949.951 510.424, 1000.000 501.000, 1000.000 464.613, 953.221 "
fill = "none" stroke = "black"/>
</g>
<g>
<polygon points = "153.445, 975.125 211.030, 981.311 206.968, 1000.000 132.527, 1000.000 "
fill = "none" stroke = "black"/>
</g>
<g>
<polygon points = "322.573, 573.227 359.217, 521.318 419.203, 530.426 420.771, 531.536 422.410, 566.710 "
fill = "none" stroke = "black"/>
</g>
<g>
<polygon points = "825.540, 444.032 862.511, 471.949 816.204, 523.952 769.384, 501.436 769.664, 476.307 "
fill = "none" stroke = "black"/>
</g>
<g>
<polygon points = "830.726, 910.694 912.399, 949.763 905.256, 1000.000 748.215, 1000.000 781.732, 909.596 "
fill = "none" stroke = "black"/>
</g>
<g>
<polygon points = "349.383, 413.674 370.699, 391.492 408.913, 412.917 397.457, 454.549 391.335, 457.337 363.496, 452.471 "
fill = "none" stroke = "black"/>
</g>
<g>
<polygon points = "526.389, 646.842 519.636, 611.518 534.655, 533.576 564.503, 509.032 571.435, 528.584 555.046, 653.386 546.369, 662.572 "
fill = "none" stroke = "black"/>
</g>
<g>
<polygon points = "77.898, 806.668 17.239, 797.937 39.033, 720.325 121.203, 701.746 138.510, 732.354 137.729, 735.129 107.192, 786.567 "
fill = "none" stroke = "black"/>
</g>
<g>
<polygon points = "199.071, 381.272 220.343, 417.656 214.034, 421.998 152.041, 429.035 128.439, 412.760 122.244, 397.098 122.275, 395.726 "
fill = "none" stroke = "black"/>
</g>
<g>
<polygon points = "42.156, 468.562 60.723, 493.114 22.233, 527.835 0.000, 532.541 0.000, 474.022 "
fill = "none" stroke = "black"/>
</g>
<g>
<polygon points = "42.156, 468.562 52.215, 437.351 122.244, 397.098 128.439, 412.760 104.220, 505.902 60.723, 493.114 "
fill = "none" stroke = "black"/>
</g>
<g>
<polygon points = "262.430, 805.449 254.293, 837.241 203.422, 844.580 201.202, 836.963 235.752, 782.020 "
fill = "none" stroke = "black"/>
</g>
<g>
<polygon points = "856.618, 289.945 862.370, 311.576 847.797, 333.855 748.349, 267.922 "
fill = "none" stroke = "black"/>
</g>
<g>
<polygon points = "259.233, 683.257 279.837, 685.472 329.976, 713.572 331.679, 719.868 227.129, 768.283 168.394, 732.002 "
fill = "none" stroke = "black"/>
</g>
<g>
<polygon points = "265.693, 464.968 227.880, 418.134 247.934, 387.220 279.509, 419.186 "
fill = "none" stroke = "black"/>
</g>
<g>
<polygon points = "214.034, 421.998 220.343, 417.656 227.880, 418.134 265.693, 464.968 266.144, 477.246 246.021, 503.142 211.106, 495.216 209.156, 492.378 "
fill = "none" stroke = "black"/>
</g>
<g>
<polygon points = "379.492, 249.055 435.839, 191.214 444.351, 191.866 484.941, 263.501 480.206, 285.641 389.266, 329.865 370.065, 317.601 "
fill = "none" stroke = "black"/>
</g>
<g>
<polygon points = "913.384, 223.948 909.973, 222.720 920.528, 154.180 1000.000, 196.974 1000.000, 216.216 "
fill = "none" stroke = "black"/>
</g>
<g>
<polygon points = "335.198, 409.058 349.383, 413.674 363.496, 452.471 341.222, 475.947 328.469, 477.486 289.226, 474.819 "
fill = "none" stroke = "black"/>
</g>
<g>
<polygon points = "104.078, 256.736 124.237, 182.917 153.372, 185.908 159.503, 193.595 162.971, 312.565 109.396, 360.183 93.113, 349.290 "
fill = "none" stroke = "black"/>
</g>
<g>
<polygon points = "572.060, 849.643 552.706, 867.040 522.405, 860.068 511.962, 812.008 563.869, 806.530 571.985, 841.630 "
fill = "none" stroke = "black"/>
</g>
<g>
<polygon points = "214.034, 421.998 209.156, 492.378 152.041, 429.035 "
fill = "none" stroke = "black"/>
</g>
<g>
<polygon points = "961.007, 370.045 944.794, 338.333 982.051, 302.804 1000.000, 300.367 1000.000, 366.528 "
fill = "none" stroke = "black"/>
</g>
<g>
<polygon points = "262.430, 805.449 335.641, 776.892 380.060, 857.590 379.616, 859.414 309.741, 898.204 288.672, 887.088 254.293, 837.241 "
fill = "none" stroke = "black"/>
</g>
<g>
<polygon points = "753.734, 231.230 857.218, 272.466 856.618, 289.945 748.349, 267.922 743.031, 266.303 "
fill = "none" stroke = "black"/>
</g>
<g>
<polygon points = "903.297, 84.442 892.226, 122.379 854.974, 96.239 848.109, 82.072 "
fill = "none" stroke = "black"/>
</g>
<g>
<polygon points = "787.013, 658.699 815.569, 645.230 877.506, 696.458 852.635, 716.982 852.367, 716.892 "
fill = "none" stroke = "black"/>
</g>
<g>
<polygon points = "848.109, 82.072 854.974, 96.239 866.001, 153.020 814.682, 117.015 839.242, 77.482 840.086, 76.846 "
fill = "none" stroke = "black"/>
</g>
<g>
<polygon points = "22.120, 50.972 0.000, 59.840 0.000, 0.000 39.440, 0.000 "
fill = "none" stroke = "black"/>
</g>
<g>
<polygon points = "857.218, 272.466 753.734, 231.230 755.267, 219.921 865.510, 227.964 866.976, 229.868 "
fill = "none" stroke = "black"/>
</g>
<g>
<polygon points = "346.235, 997.232 346.634, 1000.000 271.159, 1000.000 285.191, 945.621 300.040, 934.016 "
fill = "none" stroke = "black"/>
</g>
<g>
<polygon points = "590.272, 42.092 516.521, 64.954 455.494, 30.526 448.650, 0.000 579.743, 0.000 "
fill = "none" stroke = "black"/>
</g>
<g>
<polygon points = "192.191, 582.325 248.478, 510.517 285.103, 567.434 229.185, 610.623 "
fill = "none" stroke = "black"/>
</g>
<g>
<polygon points = "816.204, 523.952 806.505, 538.061 767.724, 521.970 769.384, 501.436 "
fill = "none" stroke = "black"/>
</g>
<g>
<polygon points = "786.765, 396.638 712.465, 363.970 712.687, 361.409 756.227, 359.926 "
fill = "none" stroke = "black"/>
</g>
<g>
<polygon points = "963.511, 679.960 937.290, 651.716 943.586, 612.982 972.624, 587.359 1000.000, 584.409 1000.000, 680.700 "
fill = "none" stroke = "black"/>
</g>
<g>
<polygon points = "920.528, 154.180 918.300, 149.904 953.725, 96.424 993.263, 94.022 1000.000, 96.195 1000.000, 196.974 "
fill = "none" stroke = "black"/>
</g>
<g>
<polygon points = "265.693, 464.968 279.509, 419.186 312.492, 395.596 335.198, 409.058 289.226, 474.819 266.144, 477.246 "
fill = "none" stroke = "black"/>
</g>
<g>
<polygon points = "64.847, 590.670 85.724, 589.447 118.823, 631.856 122.851, 666.457 119.002, 687.771 0.000, 647.359 0.000, 615.414 "
fill = "none" stroke = "black"/>
</g>
<g>
<polygon points = "17.239, 797.937 77.898, 806.668 68.241, 858.137 45.458, 871.194 0.000, 866.355 0.000, 799.045 "
fill = "none" stroke = "black"/>
</g>
<g>
<polygon points = "162.971, 312.565 209.547, 315.920 220.612, 366.844 199.071, 381.272 122.275, 395.726 109.396, 360.183 "
fill = "none" stroke = "black"/>
</g>
<g>
<polygon points = "485.081, 560.530 431.069, 581.330 422.410, 566.710 420.771, 531.536 456.991, 501.995 494.696, 544.850 "
fill = "none" stroke = "black"/>
</g>
<g>
<polygon points = "119.002, 687.771 121.203, 701.746 39.033, 720.325 0.000, 717.878 0.000, 647.359 "
fill = "none" stroke = "black"/>
</g>
<g>
<polygon points = "734.058, 3.171 594.299, 45.360 592.291, 44.982 590.272, 42.092 579.743, 0.000 734.171, 0.000 "
fill = "none" stroke = "black"/>
</g>
<g>
<polygon points = "866.976, 229.868 909.973, 222.720 913.384, 223.948 934.699, 287.087 920.784, 315.410 862.370, 311.576 856.618, 289.945 857.218, 272.466 "
fill = "none" stroke = "black"/>
</g>
<g>
<polygon points = "927.380, 78.160 903.297, 84.442 848.109, 82.072 840.086, 76.846 840.334, 49.491 873.722, 0.000 907.694, 0.000 "
fill = "none" stroke = "black"/>
</g>
<g>
<polygon points = "308.829, 226.208 351.894, 170.189 382.848, 159.824 435.839, 191.214 379.492, 249.055 "
fill = "none" stroke = "black"/>
</g>
<g>
<polygon points = "912.545, 949.595 912.399, 949.763 830.726, 910.694 855.163, 849.676 863.655, 838.633 874.984, 837.599 928.982, 842.535 "
fill = "none" stroke = "black"/>
</g>
<g>
<polygon points = "644.146, 177.573 667.508, 178.224 752.238, 204.268 755.267, 219.921 753.734, 231.230 743.031, 266.303 730.374, 283.022 697.182, 303.810 666.985, 296.547 642.793, 178.220 "
fill = "none" stroke = "black"/>
</g>
<g>
<polygon points = "534.341, 713.877 444.663, 720.334 421.093, 636.351 433.613, 624.709 526.389, 646.842 546.369, 662.572 551.544, 704.962 "
fill = "none" stroke = "black"/>
</g>
<g>
<polygon points = "858.766, 760.459 874.984, 837.599 863.655, 838.633 809.088, 796.941 "
fill = "none" stroke = "black"/>
</g>
<g>
<polygon points = "199.918, 107.698 223.206, 65.530 234.348, 64.763 283.174, 85.778 270.673, 127.046 235.688, 139.997 196.471, 136.921 "
fill = "none" stroke = "black"/>
</g>
<g>
<polygon points = "286.488, 237.088 300.848, 284.392 219.019, 308.358 234.843, 235.014 280.689, 234.413 "
fill = "none" stroke = "black"/>
</g>
<g>
<polygon points = "379.616, 859.414 417.565, 916.504 346.235, 997.232 300.040, 934.016 309.741, 898.204 "
fill = "none" stroke = "black"/>
</g>
<g>
<polygon points = "484.941, 263.501 444.351, 191.866 482.794, 148.052 490.893, 145.639 574.135, 146.531 596.619, 171.832 561.892, 246.393 "
fill = "none" stroke = "black"/>
</g>
<g>
<polygon points = "777.121, 155.553 777.248, 157.012 752.238, 204.268 667.508, 178.224 740.556, 106.171 "
fill = "none" stroke = "black"/>
</g>
<g>
<polygon points = "878.845, 478.814 862.511, 471.949 825.540, 444.032 820.470, 421.460 820.576, 419.805 836.917, 356.930 941.516, 402.249 903.549, 475.456 "
fill = "none" stroke = "black"/>
</g>
<g>
<polygon points = "786.765, 396.638 820.576, 419.805 820.470, 421.460 703.042, 403.921 712.465, 363.970 "
fill = "none" stroke = "black"/>
</g>
<g>
<polygon points = "104.078, 256.736 93.113, 349.290 0.000, 324.480 0.000, 300.519 "
fill = "none" stroke = "black"/>
</g>
<g>
<polygon points = "416.563, 834.538 440.628, 794.132 458.849, 789.020 499.117, 817.694 479.747, 843.645 "
fill = "none" stroke = "black"/>
</g>
<g>
<polygon points = "286.488, 237.088 308.829, 226.208 379.492, 249.055 370.065, 317.601 318.332, 317.381 300.848, 284.392 "
fill = "none" stroke = "black"/>
</g>
<g>
<polygon points = "211.030, 981.311 220.022, 964.981 251.012, 1000.000 206.968, 1000.000 "
fill = "none" stroke = "black"/>
</g>
<g>
<polygon points = "270.673, 127.046 302.323, 142.631 304.801, 147.255 277.053, 182.000 235.688, 139.997 "
fill = "none" stroke = "black"/>
</g>
<g>
<polygon points = "271.159, 1000.000 251.012, 1000.000 220.022, 964.981 221.781, 953.614 285.191, 945.621 "
fill = "none" stroke = "black"/>
</g>
<g>
<polygon points = "458.849, 789.020 494.721, 772.175 508.354, 811.100 499.117, 817.694 "
fill = "none" stroke = "black"/>
</g>
<g>
<polygon points = "539.150, 949.951 634.500, 904.787 655.978, 1000.000 510.424, 1000.000 "
fill = "none" stroke = "black"/>
</g>
<g>
<polygon points = "965.136, 268.627 934.699, 287.087 913.384, 223.948 1000.000, 216.216 1000.000, 221.613 "
fill = "none" stroke = "black"/>
</g>
<g>
<polygon points = "519.636, 611.518 485.081, 560.530 494.696, 544.850 534.655, 533.576 "
fill = "none" stroke = "black"/>
</g>
<g>
<polygon points = "820.470, 421.460 825.540, 444.032 769.664, 476.307 667.461, 458.151 703.042, 403.921 "
fill = "none" stroke = "black"/>
</g>
<g>
<polygon points = "539.150, 949.951 552.706, 867.040 572.060, 849.643 641.694, 882.247 634.500, 904.787 "
fill = "none" stroke = "black"/>
</g>
<g>
<polygon points = "734.058, 3.171 734.305, 4.042 728.168, 74.271 675.415, 91.046 594.299, 45.360 "
fill = "none" stroke = "black"/>
</g>
<g>
<polygon points = "379.616, 859.414 380.060, 857.590 416.563, 834.538 479.747, 843.645 499.139, 860.237 464.613, 953.221 417.565, 916.504 "
fill = "none" stroke = "black"/>
</g>
<g>
<polygon points = "830.726, 910.694 781.732, 909.596 776.911, 900.251 790.951, 856.884 855.163, 849.676 "
fill = "none" stroke = "black"/>
</g>
<g>
<polygon points = "663.920, 870.082 641.694, 882.247 572.060, 849.643 571.985, 841.630 650.030, 800.873 663.543, 816.025 "
fill = "none" stroke = "black"/>
</g>
<g>
<polygon points = "422.410, 566.710 431.069, 581.330 433.613, 624.709 421.093, 636.351 367.482, 652.324 321.551, 573.860 322.573, 573.227 "
fill = "none" stroke = "black"/>
</g>
<g>
<circle cx = "211.044" cy = "803.684" r="5"/></g>
<g>
<circle cx = "250.298" cy = "180.664" r="5"/></g>
<g>
<circle cx = "241.846" cy = "920.254" r="5"/></g>
<g>
<circle cx = "276.669" cy = "55.152" r="5"/></g>
<g>
<circle cx = "585.694" cy = "580.919" r="5"/></g>
<g>
<circle cx = "826.836" cy = "845.022" r="5"/></g>
<g>
<circle cx = "651.933" cy = "706.857" r="5"/></g>
<g>
<circle cx = "152.960" cy = "482.959" r="5"/></g>
<g>
<circle cx = "59.098" cy = "20.401" r="5"/></g>
<g>
<circle cx = "790.768" cy = "58.485" r="5"/></g>
<g>
<circle cx = "874.004" cy = "798.515" r="5"/></g>
<g>
<circle cx = "495.390" cy = "516.171" r="5"/></g>
<g>
<circle cx = "758.351" cy = "837.760" r="5"/></g>
<g>
<circle cx = "646.902" cy = "649.541" r="5"/></g>
<g>
<circle cx = "836.278" cy = "140.557" r="5"/></g>
<g>
<circle cx = "419.758" cy = "484.990" r="5"/></g>
<g>
<circle cx = "39.374" cy = "921.121" r="5"/></g>
<g>
<circle cx = "137.213" cy = "945.396" r="5"/></g>
<g>
<circle cx = "187.099" cy = "971.295" r="5"/></g>
<g>
<circle cx = "209.344" cy = "659.335" r="5"/></g>
<g>
<circle cx = "793.519" cy = "304.477" r="5"/></g>
<g>
<circle cx = "893.884" cy = "732.855" r="5"/></g>
<g>
<circle cx = "820.086" cy = "746.883" r="5"/></g>
<g>
<circle cx = "574.334" cy = "409.378" r="5"/></g>
<g>
<circle cx = "714.571" cy = "919.313" r="5"/></g>
<g>
<circle cx = "610.627" cy = "809.138" r="5"/></g>
<g>
<circle cx = "984.874" cy = "286.068" r="5"/></g>
<g>
<circle cx = "749.524" cy = "759.536" r="5"/></g>
<g>
<circle cx = "816.460" cy = "204.105" r="5"/></g>
<g>
<circle cx = "54.131" cy = "525.725" r="5"/></g>
<g>
<circle cx = "194.285" cy = "552.210" r="5"/></g>
<g>
<circle cx = "390.257" cy = "980.696" r="5"/></g>
<g>
<circle cx = "680.804" cy = "774.913" r="5"/></g>
<g>
<circle cx = "959.536" cy = "736.493" r="5"/></g>
<g>
<circle cx = "491.391" cy = "77.062" r="5"/></g>
<g>
<circle cx = "877.374" cy = "122.863" r="5"/></g>
<g>
<circle cx = "422.563" cy = "109.507" r="5"/></g>
<g>
<circle cx = "251.137" cy = "24.744" r="5"/></g>
<g>
<circle cx = "876.543" cy = "637.512" r="5"/></g>
<g>
<circle cx = "146.228" cy = "89.104" r="5"/></g>
<g>
<circle cx = "616.558" cy = "243.613" r="5"/></g>
<g>
<circle cx = "41.184" cy = "407.071" r="5"/></g>
<g>
<circle cx = "658.649" cy = "369.180" r="5"/></g>
<g>
<circle cx = "20.431" cy = "750.080" r="5"/></g>
<g>
<circle cx = "166.989" cy = "831.143" r="5"/></g>
<g>
<circle cx = "974.712" cy = "446.976" r="5"/></g>
<g>
<circle cx = "737.960" cy = "513.138" r="5"/></g>
<g>
<circle cx = "405.530" cy = "61.477" r="5"/></g>
<g>
<circle cx = "234.708" cy = "867.581" r="5"/></g>
<g>
<circle cx = "257.027" cy = "307.067" r="5"/></g>
<g>
<circle cx = "375.829" cy = "493.835" r="5"/></g>
<g>
<circle cx = "763.323" cy = "341.004" r="5"/></g>
<g>
<circle cx = "633.463" cy = "659.829" r="5"/></g>
<g>
<circle cx = "309.940" cy = "633.928" r="5"/></g>
<g>
<circle cx = "902.436" cy = "362.559" r="5"/></g>
<g>
<circle cx = "848.807" cy = "668.721" r="5"/></g>
<g>
<circle cx = "991.999" cy = "984.303" r="5"/></g>
<g>
<circle cx = "42.135" cy = "906.408" r="5"/></g>
<g>
<circle cx = "812.668" cy = "7.393" r="5"/></g>
<g>
<circle cx = "404.893" cy = "766.260" r="5"/></g>
<g>
<circle cx = "263.405" cy = "628.087" r="5"/></g>
<g>
<circle cx = "266.002" cy = "769.186" r="5"/></g>
<g>
<circle cx = "695.325" cy = "129.853" r="5"/></g>
<g>
<circle cx = "39.914" cy = "554.468" r="5"/></g>
<g>
<circle cx = "410.024" cy = "695.215" r="5"/></g>
<g>
<circle cx = "786.688" cy = "546.552" r="5"/></g>
<g>
<circle cx = "327.320" cy = "127.796" r="5"/></g>
<g>
<circle cx = "622.159" cy = "547.804" r="5"/></g>
<g>
<circle cx = "996.754" cy = "28.879" r="5"/></g>
<g>
<circle cx = "449.370" cy = "350.342" r="5"/></g>
<g>
<circle cx = "790.594" cy = "96.030" r="5"/></g>
<g>
<circle cx = "635.297" cy = "108.160" r="5"/></g>
<g>
<circle cx = "734.272" cy = "594.187" r="5"/></g>
<g>
<circle cx = "772.792" cy = "371.502" r="5"/></g>
<g>
<circle cx = "21.442" cy = "892.827" r="5"/></g>
<g>
<circle cx = "148.952" cy = "562.438" r="5"/></g>
<g>
<circle cx = "197.235" cy = "277.185" r="5"/></g>
<g>
<circle cx = "903.701" cy = "112.938" r="5"/></g>
<g>
<circle cx = "46.692" cy = "92.181" r="5"/></g>
<g>
<circle cx = "675.677" cy = "928.882" r="5"/></g>
<g>
<circle cx = "689.129" cy = "724.109" r="5"/></g>
<g>
<circle cx = "530.058" cy = "89.345" r="5"/></g>
<g>
<circle cx = "296.336" cy = "114.186" r="5"/></g>
<g>
<circle cx = "706.525" cy = "827.887" r="5"/></g>
<g>
<circle cx = "509.135" cy = "832.415" r="5"/></g>
<g>
<circle cx = "433.764" cy = "378.361" r="5"/></g>
<g>
<circle cx = "134.670" cy = "559.011" r="5"/></g>
<g>
<circle cx = "21.015" cy = "445.423" r="5"/></g>
<g>
<circle cx = "316.848" cy = "511.382" r="5"/></g>
<g>
<circle cx = "402.710" cy = "393.521" r="5"/></g>
<g>
<circle cx = "483.554" cy = "587.047" r="5"/></g>
<g>
<circle cx = "894.732" cy = "181.907" r="5"/></g>
<g>
<circle cx = "303.366" cy = "176.983" r="5"/></g>
<g>
<circle cx = "58.501" cy = "900.768" r="5"/></g>
<g>
<circle cx = "275.556" cy = "387.052" r="5"/></g>
<g>
<circle cx = "261.452" cy = "1.043" r="5"/></g>
<g>
<circle cx = "828.064" cy = "538.342" r="5"/></g>
<g>
<circle cx = "383.542" cy = "44.880" r="5"/></g>
<g>
<circle cx = "383.104" cy = "502.828" r="5"/></g>
<g>
<circle cx = "519.128" cy = "792.694" r="5"/></g>
<g>
<circle cx = "174.539" cy = "56.862" r="5"/></g>
<g>
<circle cx = "23.640" cy = "575.364" r="5"/></g>
<g>
<circle cx = "938.433" cy = "714.090" r="5"/></g>
<g>
<circle cx = "812.417" cy = "604.651" r="5"/></g>
<g>
<circle cx = "349.329" cy = "95.265" r="5"/></g>
<g>
<circle cx = "190.810" cy = "612.481" r="5"/></g>
<g>
<circle cx = "439.449" cy = "451.319" r="5"/></g>
<g>
<circle cx = "466.659" cy = "757.036" r="5"/></g>
<g>
<circle cx = "330.099" cy = "513.281" r="5"/></g>
<g>
<circle cx = "111.877" cy = "861.003" r="5"/></g>
<g>
<circle cx = "906.379" cy = "552.055" r="5"/></g>
<g>
<circle cx = "343.735" cy = "374.121" r="5"/></g>
<g>
<circle cx = "550.443" cy = "299.920" r="5"/></g>
<g>
<circle cx = "240.861" cy = "341.833" r="5"/></g>
<g>
<circle cx = "655.884" cy = "570.989" r="5"/></g>
<g>
<circle cx = "73.154" cy = "264.617" r="5"/></g>
<g>
<circle cx = "951.644" cy = "43.786" r="5"/></g>
<g>
<circle cx = "983.851" cy = "513.138" r="5"/></g>
<g>
<circle cx = "998.060" cy = "416.020" r="5"/></g>
<g>
<circle cx = "978.177" cy = "892.937" r="5"/></g>
<g>
<circle cx = "808.371" cy = "714.470" r="5"/></g>
<g>
<circle cx = "967.032" cy = "294.899" r="5"/></g>
<g>
<circle cx = "222.922" cy = "398.942" r="5"/></g>
<g>
<circle cx = "998.468" cy = "703.872" r="5"/></g>
<g>
<circle cx = "423.443" cy = "427.185" r="5"/></g>
<g>
<circle cx = "509.540" cy = "887.912" r="5"/></g>
<g>
<circle cx = "185.517" cy = "986.015" r="5"/></g>
<g>
<circle cx = "376.539" cy = "546.064" r="5"/></g>
<g>
<circle cx = "800.540" cy = "513.833" r="5"/></g>
<g>
<circle cx = "826.327" cy = "960.745" r="5"/></g>
<g>
<circle cx = "389.130" cy = "417.743" r="5"/></g>
<g>
<circle cx = "544.148" cy = "575.464" r="5"/></g>
<g>
<circle cx = "39.427" cy = "755.414" r="5"/></g>
<g>
<circle cx = "202.770" cy = "410.724" r="5"/></g>
<g>
<circle cx = "27.608" cy = "496.323" r="5"/></g>
<g>
<circle cx = "72.829" cy = "462.124" r="5"/></g>
<g>
<circle cx = "226.932" cy = "813.674" r="5"/></g>
<g>
<circle cx = "799.605" cy = "295.296" r="5"/></g>
<g>
<circle cx = "251.585" cy = "738.053" r="5"/></g>
<g>
<circle cx = "247.426" cy = "414.838" r="5"/></g>
<g>
<circle cx = "220.539" cy = "436.546" r="5"/></g>
<g>
<circle cx = "410.272" cy = "269.945" r="5"/></g>
<g>
<circle cx = "936.786" cy = "188.383" r="5"/></g>
<g>
<circle cx = "321.541" cy = "442.329" r="5"/></g>
<g>
<circle cx = "126.705" cy = "279.241" r="5"/></g>
<g>
<circle cx = "523.003" cy = "829.401" r="5"/></g>
<g>
<circle cx = "205.584" cy = "435.510" r="5"/></g>
<g>
<circle cx = "989.235" cy = "318.182" r="5"/></g>
<g>
<circle cx = "289.612" cy = "829.715" r="5"/></g>
<g>
<circle cx = "806.226" cy = "262.747" r="5"/></g>
<g>
<circle cx = "887.630" cy = "108.248" r="5"/></g>
<g>
<circle cx = "844.878" cy = "673.471" r="5"/></g>
<g>
<circle cx = "844.167" cy = "129.312" r="5"/></g>
<g>
<circle cx = "11.423" cy = "4.202" r="5"/></g>
<g>
<circle cx = "813.517" cy = "244.452" r="5"/></g>
<g>
<circle cx = "299.334" cy = "993.811" r="5"/></g>
<g>
<circle cx = "513.889" cy = "37.183" r="5"/></g>
<g>
<circle cx = "220.935" cy = "573.100" r="5"/></g>
<g>
<circle cx = "798.520" cy = "518.034" r="5"/></g>
<g>
<circle cx = "764.594" cy = "378.322" r="5"/></g>
<g>
<circle cx = "999.408" cy = "657.484" r="5"/></g>
<g>
<circle cx = "958.032" cy = "148.927" r="5"/></g>
<g>
<circle cx = "308.641" cy = "433.311" r="5"/></g>
<g>
<circle cx = "44.310" cy = "629.535" r="5"/></g>
<g>
<circle cx = "26.534" cy = "844.990" r="5"/></g>
<g>
<circle cx = "191.810" cy = "352.491" r="5"/></g>
<g>
<circle cx = "466.163" cy = "541.887" r="5"/></g>
<g>
<circle cx = "24.293" cy = "688.480" r="5"/></g>
<g>
<circle cx = "655.348" cy = "1.798" r="5"/></g>
<g>
<circle cx = "908.757" cy = "266.268" r="5"/></g>
<g>
<circle cx = "889.729" cy = "59.381" r="5"/></g>
<g>
<circle cx = "357.804" cy = "218.833" r="5"/></g>
<g>
<circle cx = "866.934" cy = "875.858" r="5"/></g>
<g>
<circle cx = "692.589" cy = "228.069" r="5"/></g>
<g>
<circle cx = "461.174" cy = "680.860" r="5"/></g>
<g>
<circle cx = "860.143" cy = "801.429" r="5"/></g>
<g>
<circle cx = "256.461" cy = "102.106" r="5"/></g>
<g>
<circle cx = "251.718" cy = "288.940" r="5"/></g>
<g>
<circle cx = "357.224" cy = "951.508" r="5"/></g>
<g>
<circle cx = "528.843" cy = "202.760" r="5"/></g>
<g>
<circle cx = "716.256" cy = "151.073" r="5"/></g>
<g>
<circle cx = "885.832" cy = "400.881" r="5"/></g>
<g>
<circle cx = "758.280" cy = "392.681" r="5"/></g>
<g>
<circle cx = "76.819" cy = "273.331" r="5"/></g>
<g>
<circle cx = "482.155" cy = "812.276" r="5"/></g>
<g>
<circle cx = "344.216" cy = "260.860" r="5"/></g>
<g>
<circle cx = "232.289" cy = "996.179" r="5"/></g>
<g>
<circle cx = "276.127" cy = "155.228" r="5"/></g>
<g>
<circle cx = "249.496" cy = "980.951" r="5"/></g>
<g>
<circle cx = "488.449" cy = "803.438" r="5"/></g>
<g>
<circle cx = "607.655" cy = "944.227" r="5"/></g>
<g>
<circle cx = "942.715" cy = "254.804" r="5"/></g>
<g>
<circle cx = "510.277" cy = "568.937" r="5"/></g>
<g>
<circle cx = "752.585" cy = "430.811" r="5"/></g>
<g>
<circle cx = "586.978" cy = "900.573" r="5"/></g>
<g>
<circle cx = "669.254" cy = "47.867" r="5"/></g>
<g>
<circle cx = "473.198" cy = "874.418" r="5"/></g>
<g>
<circle cx = "828.573" cy = "860.495" r="5"/></g>
<g>
<circle cx = "620.730" cy = "828.486" r="5"/></g>
<g>
<circle cx = "379.612" cy = "593.144" r="5"/></g>
</svg>
